<?xml version="1.0" standalone="no"?>
<!DOCTYPE svg PUBLIC "-//W3C//DTD SVG 1.1//EN" "http://www.w3.org/Graphics/SVG/1.1/DTD/svg11.dtd">
<svg width="276mm" height="114mm" viewBox="-138 -64 276 114" xmlns="http://www.w3.org/2000/svg" version="1.1">
<title>OpenSCAD Model</title>
<path d="
M 137.95,-52.62 L 104.44,-52.62 L 104.44,-63.54 L -104.44,-63.54 L -104.44,-52.62 L -137.95,-52.62
 L -137.95,49.62 L 137.95,49.62 z
M -17.0105,-42.4006 L -17.0309,-42.4049 L -17.05,-42.4134 L -17.0669,-42.4257 L -17.0809,-42.4412 L -17.0914,-42.4593
 L -17.0978,-42.4792 L -17.1,-42.5 L -17.1,-62 L -17.0978,-62.0208 L -17.0914,-62.0407 L -17.0809,-62.0588
 L -17.0669,-62.0743 L -17.05,-62.0866 L -17.0309,-62.0951 L -17.0105,-62.0994 L 17.0105,-62.0994 L 17.0309,-62.0951
 L 17.05,-62.0866 L 17.0669,-62.0743 L 17.0809,-62.0588 L 17.0914,-62.0407 L 17.0978,-62.0208 L 17.1,-62
 L 17.1,-42.5 L 17.0978,-42.4792 L 17.0914,-42.4593 L 17.0809,-42.4412 L 17.0669,-42.4257 L 17.05,-42.4134
 L 17.0309,-42.4049 L 17.0105,-42.4006 z
M 97.121,-49.9509 L 114.789,-51.6521 L 116.419,-34.7304 L 98.7504,-33.0291 z
M 107.368,-39.4009 L 107.966,-39.5894 L 108.512,-39.8983 L 108.982,-40.3138 L 109.355,-40.818 L 109.615,-41.3887
 L 109.751,-42.001 L 109.756,-42.6282 L 109.631,-43.2427 L 109.381,-43.8179 L 109.017,-44.3285 L 108.554,-44.7522
 L 108.014,-45.0705 L 107.419,-45.2695 L 106.796,-45.3405 L 106.172,-45.2804 L 105.574,-45.0918 L 105.028,-44.783
 L 104.558,-44.3674 L 104.185,-43.8632 L 103.925,-43.2925 L 103.789,-42.6802 L 103.784,-42.0531 L 103.909,-41.4385
 L 104.159,-40.8634 L 104.523,-40.3528 L 104.985,-39.929 L 105.526,-39.6107 L 106.121,-39.4117 L 106.744,-39.3407
 z
M 106.337,-40.388 L 105.94,-40.5207 L 105.58,-40.7329 L 105.272,-41.0154 L 105.029,-41.3558 L 104.862,-41.7392
 L 104.779,-42.1489 L 104.783,-42.567 L 104.873,-42.9752 L 105.047,-43.3557 L 105.295,-43.6918 L 105.608,-43.9688
 L 105.972,-44.1747 L 106.371,-44.3005 L 106.787,-44.3405 L 107.203,-44.2932 L 107.599,-44.1605 L 107.959,-43.9483
 L 108.268,-43.6659 L 108.511,-43.3255 L 108.677,-42.942 L 108.761,-42.5323 L 108.757,-42.1142 L 108.666,-41.706
 L 108.493,-41.3255 L 108.244,-40.9894 L 107.931,-40.7124 L 107.567,-40.5065 L 107.169,-40.3808 L 106.752,-40.3407
 z
M -116.419,-34.7304 L -114.789,-51.6521 L -97.121,-49.9509 L -98.7504,-33.0291 z
M -106.121,-39.4117 L -105.526,-39.6107 L -104.985,-39.929 L -104.523,-40.3528 L -104.159,-40.8634 L -103.909,-41.4385
 L -103.784,-42.0531 L -103.789,-42.6802 L -103.925,-43.2925 L -104.185,-43.8632 L -104.558,-44.3674 L -105.028,-44.783
 L -105.574,-45.0918 L -106.172,-45.2804 L -106.796,-45.3405 L -107.419,-45.2695 L -108.014,-45.0705 L -108.554,-44.7522
 L -109.017,-44.3285 L -109.381,-43.8179 L -109.631,-43.2427 L -109.756,-42.6282 L -109.751,-42.001 L -109.615,-41.3887
 L -109.355,-40.818 L -108.982,-40.3138 L -108.512,-39.8983 L -107.966,-39.5894 L -107.368,-39.4009 L -106.744,-39.3407
 z
M -107.169,-40.3808 L -107.567,-40.5065 L -107.931,-40.7124 L -108.244,-40.9894 L -108.493,-41.3255 L -108.666,-41.706
 L -108.757,-42.1142 L -108.761,-42.5323 L -108.677,-42.942 L -108.511,-43.3255 L -108.268,-43.6659 L -107.959,-43.9483
 L -107.599,-44.1605 L -107.203,-44.2932 L -106.787,-44.3405 L -106.371,-44.3005 L -105.972,-44.1747 L -105.608,-43.9688
 L -105.295,-43.6918 L -105.047,-43.3557 L -104.873,-42.9752 L -104.783,-42.567 L -104.779,-42.1489 L -104.862,-41.7392
 L -105.029,-41.3558 L -105.272,-41.0154 L -105.58,-40.7329 L -105.94,-40.5207 L -106.337,-40.388 L -106.752,-40.3407
 z
M 76.4847,-47.7177 L 94.1024,-49.8809 L 96.1742,-33.0076 L 78.5565,-30.8445 z
M 87.0043,-37.4396 L 87.5973,-37.6438 L 88.1349,-37.9668 L 88.5936,-38.3945 L 88.9533,-38.9083 L 89.1984,-39.4856
 L 89.318,-40.1012 L 89.3071,-40.7283 L 89.166,-41.3394 L 88.901,-41.9078 L 88.5235,-42.4087 L 88.0502,-42.8201
 L 87.5016,-43.1242 L 86.9019,-43.3076 L 86.2771,-43.3622 L 85.6546,-43.2858 L 85.0616,-43.0816 L 84.524,-42.7586
 L 84.0653,-42.3309 L 83.7056,-41.8171 L 83.4605,-41.2398 L 83.3409,-40.6242 L 83.3518,-39.9971 L 83.4929,-39.386
 L 83.7579,-38.8176 L 84.1354,-38.3167 L 84.6087,-37.9052 L 85.1573,-37.6012 L 85.757,-37.4178 L 86.3818,-37.3632
 z
M 85.9478,-38.3994 L 85.548,-38.5217 L 85.1823,-38.7244 L 84.8667,-38.9987 L 84.6151,-39.3326 L 84.4384,-39.7115
 L 84.3444,-40.119 L 84.3371,-40.537 L 84.4168,-40.9474 L 84.5802,-41.3323 L 84.82,-41.6748 L 85.1258,-41.96
 L 85.4842,-42.1753 L 85.8795,-42.3114 L 86.2945,-42.3624 L 86.7111,-42.3259 L 87.1109,-42.2037 L 87.4766,-42.001
 L 87.7922,-41.7267 L 88.0438,-41.3928 L 88.2205,-41.0138 L 88.3145,-40.6064 L 88.3218,-40.1884 L 88.2421,-39.7779
 L 88.0787,-39.3931 L 87.8389,-39.0506 L 87.5331,-38.7654 L 87.1747,-38.5501 L 86.7794,-38.414 L 86.3643,-38.363
 z
M -96.1742,-33.0076 L -94.1024,-49.8809 L -76.4847,-47.7177 L -78.5565,-30.8445 z
M -85.757,-37.4178 L -85.1573,-37.6012 L -84.6087,-37.9052 L -84.1354,-38.3167 L -83.7579,-38.8176 L -83.4929,-39.386
 L -83.3518,-39.9971 L -83.3409,-40.6242 L -83.4605,-41.2398 L -83.7056,-41.8171 L -84.0653,-42.3309 L -84.524,-42.7586
 L -85.0616,-43.0816 L -85.6546,-43.2858 L -86.2771,-43.3622 L -86.9019,-43.3076 L -87.5016,-43.1242 L -88.0502,-42.8201
 L -88.5235,-42.4087 L -88.901,-41.9078 L -89.166,-41.3394 L -89.3071,-40.7283 L -89.318,-40.1012 L -89.1984,-39.4856
 L -88.9533,-38.9083 L -88.5936,-38.3945 L -88.1349,-37.9668 L -87.5973,-37.6438 L -87.0043,-37.4396 L -86.3818,-37.3632
 z
M -86.7794,-38.414 L -87.1747,-38.5501 L -87.5331,-38.7654 L -87.8389,-39.0506 L -88.0787,-39.3931 L -88.2421,-39.7779
 L -88.3218,-40.1884 L -88.3145,-40.6064 L -88.2205,-41.0138 L -88.0438,-41.3928 L -87.7922,-41.7267 L -87.4766,-42.001
 L -87.1109,-42.2037 L -86.7111,-42.3259 L -86.2945,-42.3624 L -85.8795,-42.3114 L -85.4842,-42.1753 L -85.1258,-41.96
 L -84.82,-41.6748 L -84.5802,-41.3323 L -84.4168,-40.9474 L -84.3371,-40.537 L -84.3444,-40.119 L -84.4384,-39.7115
 L -84.6151,-39.3326 L -84.8667,-38.9987 L -85.1823,-38.7244 L -85.548,-38.5217 L -85.9478,-38.3994 L -86.3643,-38.363
 z
M 57.6263,-45.4022 L 75.244,-47.5654 L 77.3158,-30.6921 L 59.6981,-28.5289 z
M 68.1459,-35.1241 L 68.7389,-35.3282 L 69.2765,-35.6513 L 69.7352,-36.079 L 70.0949,-36.5927 L 70.34,-37.1701
 L 70.4596,-37.7857 L 70.4487,-38.4128 L 70.3076,-39.0239 L 70.0426,-39.5923 L 69.6651,-40.0932 L 69.1918,-40.5046
 L 68.6433,-40.8087 L 68.0435,-40.9921 L 67.4187,-41.0467 L 66.7962,-40.9703 L 66.2032,-40.7661 L 65.6656,-40.4431
 L 65.207,-40.0154 L 64.8472,-39.5016 L 64.6022,-38.9243 L 64.4825,-38.3086 L 64.4934,-37.6816 L 64.6345,-37.0705
 L 64.8996,-36.5021 L 65.277,-36.0012 L 65.7504,-35.5897 L 66.2989,-35.2857 L 66.8987,-35.1023 L 67.5234,-35.0476
 z
M 67.0895,-36.0839 L 66.6896,-36.2062 L 66.3239,-36.4089 L 66.0084,-36.6832 L 65.7567,-37.0171 L 65.58,-37.396
 L 65.486,-37.8034 L 65.4787,-38.2215 L 65.5585,-38.6319 L 65.7218,-39.0168 L 65.9617,-39.3593 L 66.2674,-39.6444
 L 66.6258,-39.8598 L 67.0212,-39.9959 L 67.4362,-40.0469 L 67.8527,-40.0104 L 68.2525,-39.8882 L 68.6182,-39.6855
 L 68.9338,-39.4112 L 69.1854,-39.0772 L 69.3621,-38.6983 L 69.4562,-38.2909 L 69.4635,-37.8729 L 69.3837,-37.4624
 L 69.2203,-37.0775 L 68.9805,-36.735 L 68.6747,-36.4499 L 68.3163,-36.2346 L 67.921,-36.0984 L 67.506,-36.0475
 z
M -77.3158,-30.6921 L -75.244,-47.5654 L -57.6263,-45.4022 L -59.6981,-28.5289 z
M -66.8987,-35.1023 L -66.2989,-35.2857 L -65.7504,-35.5897 L -65.277,-36.0012 L -64.8996,-36.5021 L -64.6345,-37.0705
 L -64.4934,-37.6816 L -64.4825,-38.3086 L -64.6022,-38.9243 L -64.8472,-39.5016 L -65.207,-40.0154 L -65.6656,-40.4431
 L -66.2032,-40.7661 L -66.7962,-40.9703 L -67.4187,-41.0467 L -68.0435,-40.9921 L -68.6433,-40.8087 L -69.1918,-40.5046
 L -69.6651,-40.0932 L -70.0426,-39.5923 L -70.3076,-39.0239 L -70.4487,-38.4128 L -70.4596,-37.7857 L -70.34,-37.1701
 L -70.0949,-36.5927 L -69.7352,-36.079 L -69.2765,-35.6513 L -68.7389,-35.3282 L -68.1459,-35.1241 L -67.5234,-35.0476
 z
M -67.921,-36.0984 L -68.3163,-36.2346 L -68.6747,-36.4499 L -68.9805,-36.735 L -69.2203,-37.0775 L -69.3837,-37.4624
 L -69.4635,-37.8729 L -69.4562,-38.2909 L -69.3621,-38.6983 L -69.1854,-39.0772 L -68.9338,-39.4112 L -68.6182,-39.6855
 L -68.2525,-39.8882 L -67.8527,-40.0104 L -67.4362,-40.0469 L -67.0212,-39.9959 L -66.6258,-39.8598 L -66.2674,-39.6444
 L -65.9617,-39.3593 L -65.7218,-39.0168 L -65.5585,-38.6319 L -65.4787,-38.2215 L -65.486,-37.8034 L -65.58,-37.396
 L -65.7567,-37.0171 L -66.0084,-36.6832 L -66.3239,-36.4089 L -66.6896,-36.2062 L -67.0895,-36.0839 L -67.506,-36.0475
 z
M -135.454,-27.6446 L -133.753,-45.3129 L -116.831,-43.6835 L -118.532,-26.0152 z
M -125.803,-32.6833 L -125.191,-32.8191 L -124.62,-33.0791 L -124.116,-33.4522 L -123.7,-33.9219 L -123.391,-34.4678
 L -123.203,-35.0659 L -123.143,-35.6902 L -123.214,-36.3133 L -123.413,-36.9081 L -123.731,-37.4485 L -124.155,-37.9109
 L -124.665,-38.2751 L -125.24,-38.5252 L -125.855,-38.6502 L -126.482,-38.6447 L -127.094,-38.509 L -127.665,-38.2489
 L -128.169,-37.8759 L -128.585,-37.4061 L -128.894,-36.8603 L -129.082,-36.2621 L -129.142,-35.6378 L -129.071,-35.0147
 L -128.872,-34.4199 L -128.554,-33.8796 L -128.13,-33.4172 L -127.62,-33.053 L -127.045,-32.8029 L -126.43,-32.6778
 z
M -126.744,-33.7566 L -127.127,-33.9233 L -127.468,-34.1661 L -127.75,-34.4744 L -127.962,-34.8346 L -128.095,-35.2311
 L -128.142,-35.6466 L -128.102,-36.0628 L -127.977,-36.4615 L -127.771,-36.8254 L -127.494,-37.1386 L -127.158,-37.3873
 L -126.777,-37.5607 L -126.369,-37.6512 L -125.951,-37.6548 L -125.541,-37.5715 L -125.158,-37.4047 L -124.817,-37.1619
 L -124.535,-36.8537 L -124.323,-36.4934 L -124.19,-36.0969 L -124.143,-35.6815 L -124.183,-35.2653 L -124.308,-34.8665
 L -124.514,-34.5026 L -124.791,-34.1895 L -125.127,-33.9408 L -125.508,-33.7674 L -125.916,-33.6769 L -126.334,-33.6732
 z
M 116.831,-43.6835 L 133.753,-45.3129 L 135.454,-27.6446 L 118.532,-26.0152 z
M 127.045,-32.8029 L 127.62,-33.053 L 128.13,-33.4172 L 128.554,-33.8796 L 128.872,-34.4199 L 129.071,-35.0147
 L 129.142,-35.6378 L 129.082,-36.2621 L 128.894,-36.8603 L 128.585,-37.4061 L 128.169,-37.8759 L 127.665,-38.2489
 L 127.094,-38.509 L 126.482,-38.6447 L 125.855,-38.6502 L 125.24,-38.5252 L 124.665,-38.2751 L 124.155,-37.9109
 L 123.731,-37.4485 L 123.413,-36.9081 L 123.214,-36.3133 L 123.143,-35.6902 L 123.203,-35.0659 L 123.391,-34.4678
 L 123.7,-33.9219 L 124.116,-33.4522 L 124.62,-33.0791 L 125.191,-32.8191 L 125.803,-32.6833 L 126.43,-32.6778
 z
M 125.916,-33.6769 L 125.508,-33.7674 L 125.127,-33.9408 L 124.791,-34.1895 L 124.514,-34.5026 L 124.308,-34.8665
 L 124.183,-35.2653 L 124.143,-35.6815 L 124.19,-36.0969 L 124.323,-36.4934 L 124.535,-36.8537 L 124.817,-37.1619
 L 125.158,-37.4047 L 125.541,-37.5715 L 125.951,-37.6548 L 126.369,-37.6512 L 126.777,-37.5607 L 127.158,-37.3873
 L 127.494,-37.1386 L 127.771,-36.8254 L 127.977,-36.4615 L 128.102,-36.0628 L 128.142,-35.6466 L 128.095,-35.2311
 L 127.962,-34.8346 L 127.75,-34.4744 L 127.468,-34.1661 L 127.127,-33.9233 L 126.744,-33.7566 L 126.334,-33.6732
 z
M 39.0051,-43.2334 L 56.6496,-45.1658 L 58.5004,-28.2668 L 40.8559,-26.3344 z
M 49.3893,-32.8184 L 49.9849,-33.0148 L 50.5267,-33.3308 L 50.9909,-33.7525 L 51.3573,-34.2614 L 51.6099,-34.8355
 L 51.7376,-35.4495 L 51.7349,-36.0767 L 51.6018,-36.6896 L 51.3443,-37.2614 L 50.9734,-37.7672 L 50.5055,-38.1848
 L 49.961,-38.496 L 49.3637,-38.6872 L 48.7397,-38.75 L 48.1162,-38.6818 L 47.5206,-38.4854 L 46.9788,-38.1694
 L 46.5146,-37.7477 L 46.1481,-37.2387 L 45.8956,-36.6647 L 45.7679,-36.0507 L 45.7706,-35.4235 L 45.9037,-34.8106
 L 46.1612,-34.2388 L 46.5321,-33.733 L 47,-33.3154 L 47.5445,-33.0042 L 48.1418,-32.813 L 48.7658,-32.7501
 z
M 48.3455,-33.792 L 47.9473,-33.9195 L 47.5842,-34.127 L 47.2723,-34.4054 L 47.0251,-34.7426 L 46.8533,-35.1238
 L 46.7646,-35.5324 L 46.7628,-35.9505 L 46.848,-36.3598 L 47.0163,-36.7425 L 47.2606,-37.0819 L 47.5701,-37.363
 L 47.9313,-37.5736 L 48.3284,-37.7046 L 48.744,-37.7501 L 49.16,-37.7082 L 49.5582,-37.5807 L 49.9212,-37.3732
 L 50.2332,-37.0948 L 50.4804,-36.7576 L 50.6521,-36.3764 L 50.7409,-35.9678 L 50.7427,-35.5497 L 50.6575,-35.1404
 L 50.4892,-34.7577 L 50.2449,-34.4183 L 49.9354,-34.1372 L 49.5742,-33.9266 L 49.1771,-33.7956 L 48.7615,-33.7501
 z
M -58.5004,-28.2668 L -56.6496,-45.1658 L -39.0051,-43.2334 L -40.8559,-26.3344 z
M -48.1418,-32.813 L -47.5445,-33.0042 L -47,-33.3154 L -46.5321,-33.733 L -46.1612,-34.2388 L -45.9037,-34.8106
 L -45.7706,-35.4235 L -45.7679,-36.0507 L -45.8956,-36.6647 L -46.1481,-37.2387 L -46.5146,-37.7477 L -46.9788,-38.1694
 L -47.5206,-38.4854 L -48.1162,-38.6818 L -48.7397,-38.75 L -49.3637,-38.6872 L -49.961,-38.496 L -50.5055,-38.1848
 L -50.9734,-37.7672 L -51.3443,-37.2614 L -51.6018,-36.6896 L -51.7349,-36.0767 L -51.7376,-35.4495 L -51.6099,-34.8355
 L -51.3573,-34.2614 L -50.9909,-33.7525 L -50.5267,-33.3308 L -49.9849,-33.0148 L -49.3893,-32.8184 L -48.7658,-32.7501
 z
M -49.1771,-33.7956 L -49.5742,-33.9266 L -49.9354,-34.1372 L -50.2449,-34.4183 L -50.4892,-34.7577 L -50.6575,-35.1404
 L -50.7427,-35.5497 L -50.7409,-35.9678 L -50.6521,-36.3764 L -50.4804,-36.7576 L -50.2332,-37.0948 L -49.9212,-37.3732
 L -49.5582,-37.5807 L -49.16,-37.7082 L -48.744,-37.7501 L -48.3284,-37.7046 L -47.9313,-37.5736 L -47.5701,-37.363
 L -47.2606,-37.0819 L -47.0163,-36.7425 L -46.848,-36.3598 L -46.7628,-35.9505 L -46.7646,-35.5324 L -46.8533,-35.1238
 L -47.0251,-34.7426 L -47.2723,-34.4054 L -47.5842,-34.127 L -47.9473,-33.9195 L -48.3455,-33.792 L -48.7615,-33.7501
 z
M 20.4488,-42.0764 L 38.1171,-43.7777 L 39.7465,-26.856 L 22.0782,-25.1547 z
M 30.6957,-31.5265 L 31.2939,-31.715 L 31.8397,-32.0239 L 32.3094,-32.4394 L 32.6825,-32.9436 L 32.9426,-33.5143
 L 33.0783,-34.1266 L 33.0838,-34.7538 L 32.9588,-35.3683 L 32.7087,-35.9435 L 32.3445,-36.4541 L 31.8821,-36.8778
 L 31.3417,-37.1961 L 30.7469,-37.3951 L 30.1238,-37.4661 L 29.4995,-37.406 L 28.9014,-37.2174 L 28.3555,-36.9086
 L 27.8858,-36.493 L 27.5127,-35.9888 L 27.2527,-35.4181 L 27.1169,-34.8058 L 27.1114,-34.1787 L 27.2365,-33.5641
 L 27.4866,-32.989 L 27.8508,-32.4784 L 28.3132,-32.0546 L 28.8535,-31.7363 L 29.4483,-31.5373 L 30.0714,-31.4663
 z
M 29.6647,-32.5136 L 29.2682,-32.6463 L 28.908,-32.8585 L 28.5997,-33.141 L 28.3569,-33.4814 L 28.1902,-33.8648
 L 28.1068,-34.2745 L 28.1105,-34.6926 L 28.201,-35.1008 L 28.3744,-35.4813 L 28.6231,-35.8174 L 28.9362,-36.0944
 L 29.3001,-36.3003 L 29.6989,-36.4261 L 30.1151,-36.4661 L 30.5305,-36.4188 L 30.927,-36.2861 L 31.2873,-36.0739
 L 31.5955,-35.7915 L 31.8383,-35.4511 L 32.0051,-35.0676 L 32.0884,-34.6579 L 32.0848,-34.2398 L 31.9943,-33.8316
 L 31.8209,-33.4511 L 31.5722,-33.115 L 31.259,-32.838 L 30.8951,-32.6321 L 30.4964,-32.5064 L 30.0802,-32.4663
 z
M -39.7465,-26.856 L -38.1171,-43.7777 L -20.4488,-42.0764 L -22.0782,-25.1547 z
M -29.4483,-31.5373 L -28.8535,-31.7363 L -28.3132,-32.0546 L -27.8508,-32.4784 L -27.4866,-32.989 L -27.2365,-33.5641
 L -27.1114,-34.1787 L -27.1169,-34.8058 L -27.2527,-35.4181 L -27.5127,-35.9888 L -27.8858,-36.493 L -28.3555,-36.9086
 L -28.9014,-37.2174 L -29.4995,-37.406 L -30.1238,-37.4661 L -30.7469,-37.3951 L -31.3417,-37.1961 L -31.8821,-36.8778
 L -32.3445,-36.4541 L -32.7087,-35.9435 L -32.9588,-35.3683 L -33.0838,-34.7538 L -33.0783,-34.1266 L -32.9426,-33.5143
 L -32.6825,-32.9436 L -32.3094,-32.4394 L -31.8397,-32.0239 L -31.2939,-31.715 L -30.6957,-31.5265 L -30.0714,-31.4663
 z
M -30.4964,-32.5064 L -30.8951,-32.6321 L -31.259,-32.838 L -31.5722,-33.115 L -31.8209,-33.4511 L -31.9943,-33.8316
 L -32.0848,-34.2398 L -32.0884,-34.6579 L -32.0051,-35.0676 L -31.8383,-35.4511 L -31.5955,-35.7915 L -31.2873,-36.0739
 L -30.927,-36.2861 L -30.5305,-36.4188 L -30.1151,-36.4661 L -29.6989,-36.4261 L -29.3001,-36.3003 L -28.9362,-36.0944
 L -28.6231,-35.8174 L -28.3744,-35.4813 L -28.201,-35.1008 L -28.1105,-34.6926 L -28.1068,-34.2745 L -28.1902,-33.8648
 L -28.3569,-33.4814 L -28.5997,-33.141 L -28.908,-32.8585 L -29.2682,-32.6463 L -29.6647,-32.5136 L -30.0802,-32.4663
 z
M -20.2115,-25.4029 L -19.722,-42.3958 L -1.97942,-41.8847 L -2.4689,-24.8918 z
M -10.251,-30.7651 L -9.67091,-31.0036 L -9.15312,-31.3575 L -8.72021,-31.8113 L -8.39111,-32.3452 L -8.18022,-32.9358
 L -8.09673,-33.5574 L -8.1443,-34.1828 L -8.32085,-34.7846 L -8.61867,-35.3365 L -9.02473,-35.8145 L -9.52129,-36.1976
 L -10.0867,-36.4691 L -10.6961,-36.6171 L -11.323,-36.6351 L -11.94,-36.5225 L -12.5201,-36.284 L -13.0378,-35.9301
 L -13.4707,-35.4763 L -13.7998,-34.9424 L -14.0107,-34.3518 L -14.0942,-33.7302 L -14.0467,-33.1048 L -13.8701,-32.503
 L -13.5723,-31.951 L -13.1662,-31.4731 L -12.6697,-31.09 L -12.1043,-30.8185 L -11.4948,-30.6705 L -10.8679,-30.6525
 z
M -11.3617,-31.6616 L -11.768,-31.7603 L -12.1449,-31.9413 L -12.476,-32.1967 L -12.7467,-32.5153 L -12.9452,-32.8833
 L -13.0629,-33.2845 L -13.0947,-33.7014 L -13.039,-34.1158 L -12.8984,-34.5095 L -12.679,-34.8655 L -12.3904,-35.168
 L -12.0452,-35.4039 L -11.6585,-35.5629 L -11.2472,-35.638 L -10.8292,-35.626 L -10.4229,-35.5273 L -10.046,-35.3463
 L -9.71498,-35.0909 L -9.44426,-34.7723 L -9.24573,-34.4043 L -9.12802,-34.0031 L -9.09631,-33.5862 L -9.15196,-33.1718
 L -9.29257,-32.778 L -9.51196,-32.4221 L -9.80057,-32.1196 L -10.1458,-31.8837 L -10.5325,-31.7247 L -10.9438,-31.6496
 z
M 1.97942,-41.8847 L 19.722,-42.3958 L 20.2115,-25.4029 L 2.4689,-24.8918 z
M 11.4948,-30.6705 L 12.1043,-30.8185 L 12.6697,-31.09 L 13.1662,-31.4731 L 13.5723,-31.951 L 13.8701,-32.503
 L 14.0467,-33.1048 L 14.0942,-33.7302 L 14.0107,-34.3518 L 13.7998,-34.9424 L 13.4707,-35.4763 L 13.0378,-35.9301
 L 12.5201,-36.284 L 11.94,-36.5225 L 11.323,-36.6351 L 10.6961,-36.6171 L 10.0867,-36.4691 L 9.52129,-36.1976
 L 9.02473,-35.8145 L 8.61867,-35.3365 L 8.32085,-34.7846 L 8.1443,-34.1828 L 8.09673,-33.5574 L 8.18022,-32.9358
 L 8.39111,-32.3452 L 8.72021,-31.8113 L 9.15312,-31.3575 L 9.67091,-31.0036 L 10.251,-30.7651 L 10.8679,-30.6525
 z
M 10.5325,-31.7247 L 10.1458,-31.8837 L 9.80057,-32.1196 L 9.51196,-32.4221 L 9.29257,-32.778 L 9.15196,-33.1718
 L 9.09631,-33.5862 L 9.12802,-34.0031 L 9.24573,-34.4043 L 9.44426,-34.7723 L 9.71498,-35.0909 L 10.046,-35.3463
 L 10.4229,-35.5273 L 10.8292,-35.626 L 11.2472,-35.638 L 11.6585,-35.5629 L 12.0452,-35.4039 L 12.3904,-35.168
 L 12.679,-34.8655 L 12.8984,-34.5095 L 13.039,-34.1158 L 13.0947,-33.7014 L 13.0629,-33.2845 L 12.9452,-32.8833
 L 12.7467,-32.5153 L 12.476,-32.1967 L 12.1449,-31.9413 L 11.768,-31.7603 L 11.3617,-31.6616 L 10.9438,-31.6496
 z
M -118.144,-16.8132 L -116.515,-33.735 L -98.8462,-32.0337 L -100.476,-15.112 z
M -107.846,-21.4946 L -107.251,-21.6936 L -106.711,-22.0119 L -106.248,-22.4356 L -105.884,-22.9462 L -105.634,-23.5214
 L -105.509,-24.136 L -105.514,-24.7631 L -105.65,-25.3754 L -105.91,-25.9461 L -106.283,-26.4503 L -106.753,-26.8658
 L -107.299,-27.1747 L -107.897,-27.3633 L -108.521,-27.4234 L -109.144,-27.3524 L -109.739,-27.1534 L -110.28,-26.8351
 L -110.742,-26.4113 L -111.106,-25.9007 L -111.356,-25.3256 L -111.481,-24.711 L -111.476,-24.0839 L -111.34,-23.4716
 L -111.08,-22.9009 L -110.707,-22.3967 L -110.237,-21.9811 L -109.691,-21.6723 L -109.093,-21.4837 L -108.469,-21.4236
 z
M -108.894,-22.4636 L -109.293,-22.5894 L -109.656,-22.7953 L -109.97,-23.0723 L -110.218,-23.4084 L -110.392,-23.7889
 L -110.482,-24.1971 L -110.486,-24.6152 L -110.402,-25.0249 L -110.236,-25.4083 L -109.993,-25.7487 L -109.685,-26.0312
 L -109.324,-26.2434 L -108.928,-26.3761 L -108.513,-26.4234 L -108.096,-26.3833 L -107.698,-26.2576 L -107.334,-26.0517
 L -107.021,-25.7747 L -106.772,-25.4386 L -106.598,-25.0581 L -106.508,-24.6499 L -106.504,-24.2318 L -106.588,-23.8221
 L -106.754,-23.4386 L -106.997,-23.0983 L -107.305,-22.8158 L -107.666,-22.6036 L -108.062,-22.4709 L -108.478,-22.4236
 z
M 98.8462,-32.0337 L 116.515,-33.735 L 118.144,-16.8132 L 100.476,-15.112 z
M 109.093,-21.4837 L 109.691,-21.6723 L 110.237,-21.9811 L 110.707,-22.3967 L 111.08,-22.9009 L 111.34,-23.4716
 L 111.476,-24.0839 L 111.481,-24.711 L 111.356,-25.3256 L 111.106,-25.9007 L 110.742,-26.4113 L 110.28,-26.8351
 L 109.739,-27.1534 L 109.144,-27.3524 L 108.521,-27.4234 L 107.897,-27.3633 L 107.299,-27.1747 L 106.753,-26.8658
 L 106.283,-26.4503 L 105.91,-25.9461 L 105.65,-25.3754 L 105.514,-24.7631 L 105.509,-24.136 L 105.634,-23.5214
 L 105.884,-22.9462 L 106.248,-22.4356 L 106.711,-22.0119 L 107.251,-21.6936 L 107.846,-21.4946 L 108.469,-21.4236
 z
M 108.062,-22.4709 L 107.666,-22.6036 L 107.305,-22.8158 L 106.997,-23.0983 L 106.754,-23.4386 L 106.588,-23.8221
 L 106.504,-24.2318 L 106.508,-24.6499 L 106.598,-25.0581 L 106.772,-25.4386 L 107.021,-25.7747 L 107.334,-26.0517
 L 107.698,-26.2576 L 108.096,-26.3833 L 108.513,-26.4234 L 108.928,-26.3761 L 109.324,-26.2434 L 109.685,-26.0312
 L 109.993,-25.7487 L 110.236,-25.4083 L 110.402,-25.0249 L 110.486,-24.6152 L 110.482,-24.1971 L 110.392,-23.7889
 L 110.218,-23.4084 L 109.97,-23.0723 L 109.656,-22.7953 L 109.293,-22.5894 L 108.894,-22.4636 L 108.478,-22.4236
 z
M 78.6784,-29.8519 L 96.2961,-32.0151 L 98.3678,-15.1418 L 80.7501,-12.9786 z
M 89.198,-19.5738 L 89.791,-19.7779 L 90.3285,-20.101 L 90.7872,-20.5287 L 91.147,-21.0424 L 91.392,-21.6198
 L 91.5117,-22.2354 L 91.5007,-22.8625 L 91.3596,-23.4736 L 91.0946,-24.042 L 90.7172,-24.5428 L 90.2438,-24.9543
 L 89.6953,-25.2584 L 89.0955,-25.4417 L 88.4707,-25.4964 L 87.8483,-25.42 L 87.2552,-25.2158 L 86.7177,-24.8928
 L 86.259,-24.465 L 85.8992,-23.9513 L 85.6542,-23.374 L 85.5345,-22.7583 L 85.5455,-22.1313 L 85.6866,-21.5202
 L 85.9516,-20.9518 L 86.329,-20.4509 L 86.8024,-20.0394 L 87.3509,-19.7354 L 87.9507,-19.552 L 88.5755,-19.4973
 z
M 88.1415,-20.5336 L 87.7416,-20.6559 L 87.3759,-20.8586 L 87.0604,-21.1329 L 86.8088,-21.4668 L 86.6321,-21.8457
 L 86.538,-22.2531 L 86.5307,-22.6712 L 86.6105,-23.0816 L 86.7739,-23.4665 L 87.0137,-23.809 L 87.3195,-24.0941
 L 87.6779,-24.3095 L 88.0732,-24.4456 L 88.4882,-24.4966 L 88.9047,-24.4601 L 89.3046,-24.3379 L 89.6703,-24.1352
 L 89.9858,-23.8609 L 90.2374,-23.5269 L 90.4141,-23.148 L 90.5082,-22.7406 L 90.5155,-22.3225 L 90.4357,-21.9121
 L 90.2723,-21.5272 L 90.0325,-21.1847 L 89.7267,-20.8996 L 89.3683,-20.6842 L 88.973,-20.5481 L 88.558,-20.4972
 z
M -98.3678,-15.1418 L -96.2961,-32.0151 L -78.6784,-29.8519 L -80.7501,-12.9786 z
M -87.9507,-19.552 L -87.3509,-19.7354 L -86.8024,-20.0394 L -86.329,-20.4509 L -85.9516,-20.9518 L -85.6866,-21.5202
 L -85.5455,-22.1313 L -85.5345,-22.7583 L -85.6542,-23.374 L -85.8992,-23.9513 L -86.259,-24.465 L -86.7177,-24.8928
 L -87.2552,-25.2158 L -87.8483,-25.42 L -88.4707,-25.4964 L -89.0955,-25.4417 L -89.6953,-25.2584 L -90.2438,-24.9543
 L -90.7172,-24.5428 L -91.0946,-24.042 L -91.3596,-23.4736 L -91.5007,-22.8625 L -91.5117,-22.2354 L -91.392,-21.6198
 L -91.147,-21.0424 L -90.7872,-20.5287 L -90.3285,-20.101 L -89.791,-19.7779 L -89.198,-19.5738 L -88.5755,-19.4973
 z
M -88.973,-20.5481 L -89.3683,-20.6842 L -89.7267,-20.8996 L -90.0325,-21.1847 L -90.2723,-21.5272 L -90.4357,-21.9121
 L -90.5155,-22.3225 L -90.5082,-22.7406 L -90.4141,-23.148 L -90.2374,-23.5269 L -89.9858,-23.8609 L -89.6703,-24.1352
 L -89.3046,-24.3379 L -88.9047,-24.4601 L -88.4882,-24.4966 L -88.0732,-24.4456 L -87.6779,-24.3095 L -87.3195,-24.0941
 L -87.0137,-23.809 L -86.7739,-23.4665 L -86.6105,-23.0816 L -86.5307,-22.6712 L -86.538,-22.2531 L -86.6321,-21.8457
 L -86.8088,-21.4668 L -87.0604,-21.1329 L -87.3759,-20.8586 L -87.7416,-20.6559 L -88.1415,-20.5336 L -88.558,-20.4972
 z
M -79.5095,-12.8263 L -77.4377,-29.6996 L -59.82,-27.5364 L -61.8918,-10.6631 z
M -69.0923,-17.2365 L -68.4925,-17.4198 L -67.944,-17.7239 L -67.4707,-18.1353 L -67.0932,-18.6362 L -66.8282,-19.2046
 L -66.6871,-19.8157 L -66.6761,-20.4428 L -66.7958,-21.0584 L -67.0409,-21.6358 L -67.4006,-22.1495 L -67.8593,-22.5772
 L -68.3969,-22.9003 L -68.9899,-23.1044 L -69.6124,-23.1809 L -70.2372,-23.1262 L -70.8369,-22.9428 L -71.3854,-22.6388
 L -71.8588,-22.2273 L -72.2362,-21.7264 L -72.5013,-21.158 L -72.6424,-20.547 L -72.6533,-19.9199 L -72.5336,-19.3042
 L -72.2886,-18.7269 L -71.9288,-18.2132 L -71.4702,-17.7854 L -70.9326,-17.4624 L -70.3396,-17.2582 L -69.7171,-17.1818
 z
M -70.1146,-18.2326 L -70.51,-18.3687 L -70.8683,-18.5841 L -71.1741,-18.8692 L -71.414,-19.2117 L -71.5773,-19.5966
 L -71.6571,-20.007 L -71.6498,-20.4251 L -71.5558,-20.8325 L -71.3791,-21.2114 L -71.1274,-21.5453 L -70.8119,-21.8196
 L -70.4462,-22.0224 L -70.0463,-22.1446 L -69.6298,-22.181 L -69.2148,-22.1301 L -68.8195,-21.994 L -68.4611,-21.7786
 L -68.1553,-21.4935 L -67.9155,-21.151 L -67.7521,-20.7661 L -67.6723,-20.3557 L -67.6796,-19.9376 L -67.7737,-19.5302
 L -67.9504,-19.1513 L -68.202,-18.8173 L -68.5176,-18.543 L -68.8833,-18.3403 L -69.2831,-18.2181 L -69.6996,-18.1816
 z
M 59.82,-27.5364 L 77.4377,-29.6996 L 79.5095,-12.8263 L 61.8918,-10.6631 z
M 70.3396,-17.2582 L 70.9326,-17.4624 L 71.4702,-17.7854 L 71.9288,-18.2132 L 72.2886,-18.7269 L 72.5336,-19.3042
 L 72.6533,-19.9199 L 72.6424,-20.547 L 72.5013,-21.158 L 72.2362,-21.7264 L 71.8588,-22.2273 L 71.3854,-22.6388
 L 70.8369,-22.9428 L 70.2372,-23.1262 L 69.6124,-23.1809 L 68.9899,-23.1044 L 68.3969,-22.9003 L 67.8593,-22.5772
 L 67.4006,-22.1495 L 67.0409,-21.6358 L 66.7958,-21.0584 L 66.6761,-20.4428 L 66.6871,-19.8157 L 66.8282,-19.2046
 L 67.0932,-18.6362 L 67.4707,-18.1353 L 67.944,-17.7239 L 68.4925,-17.4198 L 69.0923,-17.2365 L 69.7171,-17.1818
 z
M 69.2831,-18.2181 L 68.8833,-18.3403 L 68.5176,-18.543 L 68.202,-18.8173 L 67.9504,-19.1513 L 67.7737,-19.5302
 L 67.6796,-19.9376 L 67.6723,-20.3557 L 67.7521,-20.7661 L 67.9155,-21.151 L 68.1553,-21.4935 L 68.4611,-21.7786
 L 68.8195,-21.994 L 69.2148,-22.1301 L 69.6298,-22.181 L 70.0463,-22.1446 L 70.4462,-22.0224 L 70.8119,-21.8196
 L 71.1274,-21.5453 L 71.3791,-21.2114 L 71.5558,-20.8325 L 71.6498,-20.4251 L 71.6571,-20.007 L 71.5773,-19.5966
 L 71.414,-19.2117 L 71.1741,-18.8692 L 70.8683,-18.5841 L 70.51,-18.3687 L 70.1146,-18.2326 L 69.6996,-18.1816
 z
M 40.9647,-25.3404 L 58.6092,-27.2728 L 60.46,-10.3738 L 42.8155,-8.44141 z
M 51.3489,-14.9254 L 51.9445,-15.1218 L 52.4863,-15.4378 L 52.9505,-15.8594 L 53.3169,-16.3684 L 53.5695,-16.9425
 L 53.6973,-17.5565 L 53.6945,-18.1837 L 53.5614,-18.7966 L 53.3038,-19.3684 L 52.933,-19.8742 L 52.4651,-20.2918
 L 51.9206,-20.603 L 51.3233,-20.7942 L 50.6993,-20.857 L 50.0758,-20.7888 L 49.4802,-20.5924 L 48.9384,-20.2764
 L 48.4742,-19.8547 L 48.1078,-19.3457 L 47.8552,-18.7717 L 47.7274,-18.1576 L 47.7302,-17.5305 L 47.8633,-16.9176
 L 48.1208,-16.3458 L 48.4917,-15.84 L 48.9596,-15.4224 L 49.5041,-15.1112 L 50.1014,-14.92 L 50.7254,-14.8571
 z
M 50.3051,-15.899 L 49.9069,-16.0265 L 49.5439,-16.2339 L 49.2319,-16.5123 L 48.9847,-16.8495 L 48.813,-17.2308
 L 48.7242,-17.6393 L 48.7224,-18.0574 L 48.8076,-18.4668 L 48.976,-18.8495 L 49.2202,-19.1888 L 49.5297,-19.47
 L 49.8909,-19.6806 L 50.288,-19.8115 L 50.7036,-19.8571 L 51.1196,-19.8152 L 51.5178,-19.6877 L 51.8808,-19.4802
 L 52.1928,-19.2018 L 52.44,-18.8646 L 52.6118,-18.4834 L 52.7005,-18.0748 L 52.7023,-17.6567 L 52.6171,-17.2473
 L 52.4487,-16.8647 L 52.2045,-16.5253 L 51.895,-16.2442 L 51.5338,-16.0336 L 51.1367,-15.9026 L 50.7211,-15.8571
 z
M -60.46,-10.3738 L -58.6092,-27.2728 L -40.9647,-25.3404 L -42.8155,-8.44141 z
M -50.1014,-14.92 L -49.5041,-15.1112 L -48.9596,-15.4224 L -48.4917,-15.84 L -48.1208,-16.3458 L -47.8633,-16.9176
 L -47.7302,-17.5305 L -47.7274,-18.1576 L -47.8552,-18.7717 L -48.1078,-19.3457 L -48.4742,-19.8547 L -48.9384,-20.2764
 L -49.4802,-20.5924 L -50.0758,-20.7888 L -50.6993,-20.857 L -51.3233,-20.7942 L -51.9206,-20.603 L -52.4651,-20.2918
 L -52.933,-19.8742 L -53.3038,-19.3684 L -53.5614,-18.7966 L -53.6945,-18.1837 L -53.6973,-17.5565 L -53.5695,-16.9425
 L -53.3169,-16.3684 L -52.9505,-15.8594 L -52.4863,-15.4378 L -51.9445,-15.1218 L -51.3489,-14.9254 L -50.7254,-14.8571
 z
M -51.1367,-15.9026 L -51.5338,-16.0336 L -51.895,-16.2442 L -52.2045,-16.5253 L -52.4487,-16.8647 L -52.6171,-17.2473
 L -52.7023,-17.6567 L -52.7005,-18.0748 L -52.6118,-18.4834 L -52.44,-18.8646 L -52.1928,-19.2018 L -51.8808,-19.4802
 L -51.5178,-19.6877 L -51.1196,-19.8152 L -50.7036,-19.8571 L -50.288,-19.8115 L -49.8909,-19.6806 L -49.5297,-19.47
 L -49.2202,-19.1888 L -48.976,-18.8495 L -48.8076,-18.4668 L -48.7224,-18.0574 L -48.7242,-17.6393 L -48.813,-17.2308
 L -48.9847,-16.8495 L -49.2319,-16.5123 L -49.5439,-16.2339 L -49.9069,-16.0265 L -50.3051,-15.899 L -50.7211,-15.8571
 z
M 22.174,-24.1593 L 39.8423,-25.8606 L 41.4717,-8.93884 L 23.8034,-7.23758 z
M 32.4209,-13.6093 L 33.0191,-13.7979 L 33.565,-14.1067 L 34.0347,-14.5223 L 34.4077,-15.0265 L 34.6678,-15.5972
 L 34.8036,-16.2095 L 34.809,-16.8366 L 34.684,-17.4512 L 34.4339,-18.0263 L 34.0697,-18.5369 L 33.6073,-18.9606
 L 33.0669,-19.279 L 32.4722,-19.478 L 31.849,-19.549 L 31.2247,-19.4888 L 30.6266,-19.3003 L 30.0807,-18.9914
 L 29.611,-18.5759 L 29.238,-18.0717 L 28.9779,-17.501 L 28.8421,-16.8887 L 28.8367,-16.2615 L 28.9617,-15.647
 L 29.2118,-15.0718 L 29.576,-14.5612 L 30.0384,-14.1375 L 30.5788,-13.8192 L 31.1735,-13.6202 L 31.7967,-13.5492
 z
M 31.39,-14.5965 L 30.9935,-14.7292 L 30.6332,-14.9414 L 30.3249,-15.2238 L 30.0821,-15.5642 L 29.9154,-15.9477
 L 29.8321,-16.3574 L 29.8357,-16.7755 L 29.9262,-17.1837 L 30.0996,-17.5642 L 30.3483,-17.9003 L 30.6614,-18.1773
 L 31.0253,-18.3832 L 31.4241,-18.5089 L 31.8403,-18.549 L 32.2557,-18.5017 L 32.6522,-18.369 L 33.0125,-18.1568
 L 33.3208,-17.8743 L 33.5636,-17.5339 L 33.7303,-17.1505 L 33.8136,-16.7408 L 33.81,-16.3227 L 33.7195,-15.9145
 L 33.5461,-15.534 L 33.2974,-15.1979 L 32.9843,-14.9209 L 32.6203,-14.715 L 32.2216,-14.5892 L 31.8054,-14.5491
 z
M -41.4717,-8.93884 L -39.8423,-25.8606 L -22.174,-24.1593 L -23.8034,-7.23758 z
M -31.1735,-13.6202 L -30.5788,-13.8192 L -30.0384,-14.1375 L -29.576,-14.5612 L -29.2118,-15.0718 L -28.9617,-15.647
 L -28.8367,-16.2615 L -28.8421,-16.8887 L -28.9779,-17.501 L -29.238,-18.0717 L -29.611,-18.5759 L -30.0807,-18.9914
 L -30.6266,-19.3003 L -31.2247,-19.4888 L -31.849,-19.549 L -32.4722,-19.478 L -33.0669,-19.279 L -33.6073,-18.9606
 L -34.0697,-18.5369 L -34.4339,-18.0263 L -34.684,-17.4512 L -34.809,-16.8366 L -34.8036,-16.2095 L -34.6678,-15.5972
 L -34.4077,-15.0265 L -34.0347,-14.5223 L -33.565,-14.1067 L -33.0191,-13.7979 L -32.4209,-13.6093 L -31.7967,-13.5492
 z
M -32.2216,-14.5892 L -32.6203,-14.715 L -32.9843,-14.9209 L -33.2974,-15.1979 L -33.5461,-15.534 L -33.7195,-15.9145
 L -33.81,-16.3227 L -33.8136,-16.7408 L -33.7303,-17.1505 L -33.5636,-17.5339 L -33.3208,-17.8743 L -33.0125,-18.1568
 L -32.6522,-18.369 L -32.2557,-18.5017 L -31.8403,-18.549 L -31.4241,-18.5089 L -31.0253,-18.3832 L -30.6614,-18.1773
 L -30.3483,-17.9003 L -30.0996,-17.5642 L -29.9262,-17.1837 L -29.8357,-16.7755 L -29.8321,-16.3574 L -29.9154,-15.9477
 L -30.0821,-15.5642 L -30.3249,-15.2238 L -30.6332,-14.9414 L -30.9935,-14.7292 L -31.39,-14.5965 L -31.8054,-14.5491
 z
M -21.9368,-7.48573 L -21.4473,-24.4787 L -3.70464,-23.9676 L -4.19414,-6.97464 z
M -11.9762,-12.848 L -11.3961,-13.0865 L -10.8783,-13.4404 L -10.4454,-13.8941 L -10.1163,-14.4281 L -9.90544,-15.0187
 L -9.82195,-15.6403 L -9.86952,-16.2656 L -10.0461,-16.8674 L -10.3439,-17.4194 L -10.75,-17.8974 L -11.2465,-18.2805
 L -11.8119,-18.5519 L -12.4213,-18.6999 L -13.0482,-18.718 L -13.6652,-18.6053 L -14.2453,-18.3668 L -14.7631,-18.013
 L -15.196,-17.5592 L -15.5251,-17.0253 L -15.736,-16.4346 L -15.8195,-15.813 L -15.7719,-15.1877 L -15.5953,-14.5859
 L -15.2975,-14.0339 L -14.8914,-13.556 L -14.3949,-13.1729 L -13.8295,-12.9014 L -13.2201,-12.7534 L -12.5932,-12.7353
 z
M -13.0869,-13.7445 L -13.4933,-13.8431 L -13.8702,-14.0241 L -14.2012,-14.2795 L -14.4719,-14.5982 L -14.6705,-14.9661
 L -14.7882,-15.3673 L -14.8199,-15.7842 L -14.7642,-16.1986 L -14.6236,-16.5924 L -14.4042,-16.9483 L -14.1156,-17.2509
 L -13.7704,-17.4868 L -13.3837,-17.6458 L -12.9724,-17.7209 L -12.5545,-17.7089 L -12.1482,-17.6102 L -11.7712,-17.4292
 L -11.4402,-17.1738 L -11.1695,-16.8551 L -10.9709,-16.4872 L -10.8532,-16.086 L -10.8215,-15.6691 L -10.8772,-15.2547
 L -11.0178,-14.8609 L -11.2372,-14.505 L -11.5258,-14.2025 L -11.871,-13.9665 L -12.2577,-13.8075 L -12.669,-13.7324
 z
M 3.70464,-23.9676 L 21.4473,-24.4787 L 21.9368,-7.48573 L 4.19414,-6.97464 z
M 13.2201,-12.7534 L 13.8295,-12.9014 L 14.3949,-13.1729 L 14.8914,-13.556 L 15.2975,-14.0339 L 15.5953,-14.5859
 L 15.7719,-15.1877 L 15.8195,-15.813 L 15.736,-16.4346 L 15.5251,-17.0253 L 15.196,-17.5592 L 14.7631,-18.013
 L 14.2453,-18.3668 L 13.6652,-18.6053 L 13.0482,-18.718 L 12.4213,-18.6999 L 11.8119,-18.5519 L 11.2465,-18.2805
 L 10.75,-17.8974 L 10.3439,-17.4194 L 10.0461,-16.8674 L 9.86952,-16.2656 L 9.82195,-15.6403 L 9.90544,-15.0187
 L 10.1163,-14.4281 L 10.4454,-13.8941 L 10.8783,-13.4404 L 11.3961,-13.0865 L 11.9762,-12.848 L 12.5932,-12.7353
 z
M 12.2577,-13.8075 L 11.871,-13.9665 L 11.5258,-14.2025 L 11.2372,-14.505 L 11.0178,-14.8609 L 10.8772,-15.2547
 L 10.8215,-15.6691 L 10.8532,-16.086 L 10.9709,-16.4872 L 11.1695,-16.8551 L 11.4402,-17.1738 L 11.7712,-17.4292
 L 12.1482,-17.6102 L 12.5545,-17.7089 L 12.9724,-17.7209 L 13.3837,-17.6458 L 13.7704,-17.4868 L 14.1156,-17.2509
 L 14.4042,-16.9483 L 14.6236,-16.5924 L 14.7642,-16.1986 L 14.8199,-15.7842 L 14.7882,-15.3673 L 14.6705,-14.9661
 L 14.4719,-14.5982 L 14.2012,-14.2795 L 13.8702,-14.0241 L 13.4933,-13.8431 L 13.0869,-13.7445 L 12.669,-13.7324
 z
M -119.869,1.10387 L -118.24,-15.8179 L -100.571,-14.1166 L -102.201,2.80513 z
M -109.571,-3.57747 L -108.976,-3.77647 L -108.436,-4.09479 L -107.973,-4.51849 L -107.609,-5.0291 L -107.359,-5.60423
 L -107.234,-6.21881 L -107.24,-6.84596 L -107.375,-7.45825 L -107.635,-8.02896 L -108.008,-8.53313 L -108.478,-8.9487
 L -109.024,-9.25752 L -109.622,-9.44612 L -110.246,-9.50623 L -110.87,-9.43524 L -111.464,-9.23624 L -112.005,-8.91792
 L -112.467,-8.49422 L -112.831,-7.98361 L -113.081,-7.40846 L -113.206,-6.79388 L -113.201,-6.16675 L -113.065,-5.55444
 L -112.805,-4.98375 L -112.432,-4.47958 L -111.962,-4.06401 L -111.417,-3.75517 L -110.818,-3.56659 L -110.194,-3.50648
 z
M -110.619,-4.54651 L -111.018,-4.67224 L -111.382,-4.87813 L -111.695,-5.15517 L -111.944,-5.49127 L -112.117,-5.87175
 L -112.207,-6.27995 L -112.211,-6.69804 L -112.128,-7.10777 L -111.961,-7.4912 L -111.718,-7.83159 L -111.41,-8.11407
 L -111.05,-8.32628 L -110.653,-8.45895 L -110.238,-8.50627 L -109.822,-8.4662 L -109.423,-8.34047 L -109.059,-8.13458
 L -108.746,-7.85753 L -108.497,-7.52144 L -108.324,-7.14096 L -108.233,-6.73276 L -108.229,-6.31467 L -108.313,-5.90494
 L -108.48,-5.5215 L -108.722,-5.18112 L -109.031,-4.89864 L -109.391,-4.68643 L -109.787,-4.55376 L -110.203,-4.50642
 z
M 100.571,-14.1166 L 118.24,-15.8179 L 119.869,1.10387 L 102.201,2.80513 z
M 110.818,-3.56659 L 111.417,-3.75517 L 111.962,-4.06401 L 112.432,-4.47958 L 112.805,-4.98375 L 113.065,-5.55444
 L 113.201,-6.16675 L 113.206,-6.79388 L 113.081,-7.40846 L 112.831,-7.98361 L 112.467,-8.49422 L 112.005,-8.91792
 L 111.464,-9.23624 L 110.87,-9.43524 L 110.246,-9.50623 L 109.622,-9.44612 L 109.024,-9.25752 L 108.478,-8.9487
 L 108.008,-8.53313 L 107.635,-8.02896 L 107.375,-7.45825 L 107.24,-6.84596 L 107.234,-6.21881 L 107.359,-5.60423
 L 107.609,-5.0291 L 107.973,-4.51849 L 108.436,-4.09479 L 108.976,-3.77647 L 109.571,-3.57747 L 110.194,-3.50648
 z
M 109.787,-4.55376 L 109.391,-4.68643 L 109.031,-4.89864 L 108.722,-5.18112 L 108.48,-5.5215 L 108.313,-5.90494
 L 108.229,-6.31467 L 108.233,-6.73276 L 108.324,-7.14096 L 108.497,-7.52144 L 108.746,-7.85753 L 109.059,-8.13458
 L 109.423,-8.34047 L 109.822,-8.4662 L 110.238,-8.50627 L 110.653,-8.45895 L 111.05,-8.32628 L 111.41,-8.11407
 L 111.718,-7.83159 L 111.961,-7.4912 L 112.128,-7.10777 L 112.211,-6.69804 L 112.207,-6.27995 L 112.117,-5.87175
 L 111.944,-5.49127 L 111.695,-5.15517 L 111.382,-4.87813 L 111.018,-4.67224 L 110.619,-4.54651 L 110.203,-4.50642
 z
M -100.561,2.72401 L -98.4897,-14.1493 L -80.872,-11.9861 L -82.9438,4.88719 z
M -90.1443,-1.68616 L -89.5446,-1.86952 L -88.996,-2.17357 L -88.5227,-2.58504 L -88.1452,-3.08592 L -87.8802,-3.65433
 L -87.7391,-4.26543 L -87.7282,-4.8925 L -87.8478,-5.50813 L -88.0929,-6.08545 L -88.4526,-6.5992 L -88.9113,-7.02693
 L -89.4489,-7.34995 L -90.0419,-7.55412 L -90.6644,-7.63055 L -91.2892,-7.5759 L -91.8889,-7.39253 L -92.4375,-7.08849
 L -92.9108,-6.67702 L -93.2882,-6.17613 L -93.5533,-5.60773 L -93.6944,-4.99664 L -93.7053,-4.36957 L -93.5856,-3.75392
 L -93.3406,-3.17661 L -92.9809,-2.66286 L -92.5222,-2.23512 L -91.9846,-1.91211 L -91.3916,-1.70793 L -90.7691,-1.6315
 z
M -91.1666,-2.68228 L -91.562,-2.81841 L -91.9204,-3.03375 L -92.2262,-3.31891 L -92.466,-3.66141 L -92.6293,-4.04628
 L -92.7091,-4.45671 L -92.7018,-4.87477 L -92.6078,-5.28217 L -92.4311,-5.6611 L -92.1795,-5.99503 L -91.8639,-6.26933
 L -91.4982,-6.47203 L -91.0984,-6.59428 L -90.6818,-6.63072 L -90.2668,-6.57977 L -89.8715,-6.44365 L -89.5131,-6.2283
 L -89.2073,-5.94315 L -88.9675,-5.60065 L -88.8041,-5.21577 L -88.7243,-4.80534 L -88.7317,-4.38728 L -88.8257,-3.97989
 L -89.0024,-3.60095 L -89.254,-3.26703 L -89.5696,-2.99272 L -89.9353,-2.79002 L -90.3351,-2.66777 L -90.7516,-2.63133
 z
M 80.872,-11.9861 L 98.4897,-14.1493 L 100.561,2.72401 L 82.9438,4.88719 z
M 91.3916,-1.70793 L 91.9846,-1.91211 L 92.5222,-2.23512 L 92.9809,-2.66286 L 93.3406,-3.17661 L 93.5856,-3.75392
 L 93.7053,-4.36957 L 93.6944,-4.99664 L 93.5533,-5.60773 L 93.2882,-6.17613 L 92.9108,-6.67702 L 92.4375,-7.08849
 L 91.8889,-7.39253 L 91.2892,-7.5759 L 90.6644,-7.63055 L 90.0419,-7.55412 L 89.4489,-7.34995 L 88.9113,-7.02693
 L 88.4526,-6.5992 L 88.0929,-6.08545 L 87.8478,-5.50813 L 87.7282,-4.8925 L 87.7391,-4.26543 L 87.8802,-3.65433
 L 88.1452,-3.08592 L 88.5227,-2.58504 L 88.996,-2.17357 L 89.5446,-1.86952 L 90.1443,-1.68616 L 90.7691,-1.6315
 z
M 90.3351,-2.66777 L 89.9353,-2.79002 L 89.5696,-2.99272 L 89.254,-3.26703 L 89.0024,-3.60095 L 88.8257,-3.97989
 L 88.7317,-4.38728 L 88.7243,-4.80534 L 88.8041,-5.21577 L 88.9675,-5.60065 L 89.2073,-5.94315 L 89.5131,-6.2283
 L 89.8715,-6.44365 L 90.2668,-6.57977 L 90.6818,-6.63072 L 91.0984,-6.59428 L 91.4982,-6.47203 L 91.8639,-6.26933
 L 92.1795,-5.99503 L 92.4311,-5.6611 L 92.6078,-5.28217 L 92.7018,-4.87477 L 92.7091,-4.45671 L 92.6293,-4.04628
 L 92.466,-3.66141 L 92.2262,-3.31891 L 91.9204,-3.03375 L 91.562,-2.81841 L 91.1666,-2.68228 L 90.7516,-2.63133
 z
M 62.0136,-9.67056 L 79.6313,-11.8337 L 81.7031,5.03952 L 64.0854,7.20271 z
M 72.5332,0.607574 L 73.1262,0.403397 L 73.6638,0.080368 L 74.1225,-0.347336 L 74.4822,-0.861084 L 74.7273,-1.4384
 L 74.8469,-2.05405 L 74.836,-2.68112 L 74.6949,-3.29221 L 74.4299,-3.86061 L 74.0524,-4.3615 L 73.5791,-4.77296
 L 73.0306,-5.07701 L 72.4308,-5.26039 L 71.806,-5.31503 L 71.1835,-5.2386 L 70.5905,-5.03442 L 70.0529,-4.71141
 L 69.5943,-4.28369 L 69.2345,-3.76993 L 68.9895,-3.19261 L 68.8698,-2.57698 L 68.8807,-1.94991 L 69.0218,-1.33881
 L 69.2869,-0.770401 L 69.6643,-0.269516 L 70.1376,0.141922 L 70.6862,0.445984 L 71.2859,0.629349 L 71.9107,0.684006
 z
M 71.4767,-0.352249 L 71.0769,-0.474503 L 70.7112,-0.6772 L 70.3957,-0.951508 L 70.144,-1.28543 L 69.9673,-1.66437
 L 69.8733,-2.07178 L 69.866,-2.48982 L 69.9458,-2.90025 L 70.1091,-3.28513 L 70.349,-3.62762 L 70.6547,-3.91278
 L 71.0131,-4.12813 L 71.4085,-4.26425 L 71.8235,-4.3152 L 72.24,-4.27876 L 72.6398,-4.15652 L 73.0055,-3.95381
 L 73.3211,-3.6795 L 73.5727,-3.34558 L 73.7494,-2.96664 L 73.8435,-2.55925 L 73.8508,-2.1412 L 73.771,-1.73077
 L 73.6076,-1.34589 L 73.3678,-1.00339 L 73.062,-0.718246 L 72.7036,-0.502899 L 72.3083,-0.366776 L 71.8933,-0.315811
 z
M -81.7031,5.03952 L -79.6313,-11.8337 L -62.0136,-9.67056 L -64.0854,7.20271 z
M -71.2859,0.629349 L -70.6862,0.445984 L -70.1376,0.141922 L -69.6643,-0.269516 L -69.2869,-0.770401 L -69.0218,-1.33881
 L -68.8807,-1.94991 L -68.8698,-2.57698 L -68.9895,-3.19261 L -69.2345,-3.76993 L -69.5943,-4.28369 L -70.0529,-4.71141
 L -70.5905,-5.03442 L -71.1835,-5.2386 L -71.806,-5.31503 L -72.4308,-5.26039 L -73.0306,-5.07701 L -73.5791,-4.77296
 L -74.0524,-4.3615 L -74.4299,-3.86061 L -74.6949,-3.29221 L -74.836,-2.68112 L -74.8469,-2.05405 L -74.7273,-1.4384
 L -74.4822,-0.861084 L -74.1225,-0.347336 L -73.6638,0.080368 L -73.1262,0.403397 L -72.5332,0.607574 L -71.9107,0.684006
 z
M -72.3083,-0.366776 L -72.7036,-0.502899 L -73.062,-0.718246 L -73.3678,-1.00339 L -73.6076,-1.34589 L -73.771,-1.73077
 L -73.8508,-2.1412 L -73.8435,-2.55925 L -73.7494,-2.96664 L -73.5727,-3.34558 L -73.3211,-3.6795 L -73.0055,-3.95381
 L -72.6398,-4.15652 L -72.24,-4.27876 L -71.8235,-4.3152 L -71.4085,-4.26425 L -71.0131,-4.12813 L -70.6547,-3.91278
 L -70.349,-3.62762 L -70.1091,-3.28513 L -69.9458,-2.90025 L -69.866,-2.48982 L -69.8733,-2.07178 L -69.9673,-1.66437
 L -70.144,-1.28543 L -70.3957,-0.951508 L -70.7112,-0.6772 L -71.0769,-0.474503 L -71.4767,-0.352249 L -71.8933,-0.315811
 z
M -62.4196,7.51921 L -60.5688,-9.37975 L -42.9243,-7.44736 L -44.7751,9.45158 z
M -52.061,2.97305 L -51.4637,2.78185 L -50.9192,2.47064 L -50.4513,2.05301 L -50.0804,1.54723 L -49.8229,0.975403
 L -49.6898,0.362518 L -49.6871,-0.264633 L -49.8148,-0.878647 L -50.0674,-1.45271 L -50.4338,-1.96172 L -50.898,-2.38339
 L -51.4398,-2.69934 L -52.0354,-2.89575 L -52.6589,-2.96402 L -53.2829,-2.9012 L -53.8802,-2.70999 L -54.4247,-2.39879
 L -54.8926,-1.98116 L -55.2635,-1.47537 L -55.521,-0.903549 L -55.6541,-0.290665 L -55.6568,0.336487 L -55.5291,0.9505
 L -55.2766,1.52457 L -54.9101,2.03355 L -54.4459,2.45525 L -53.9041,2.77119 L -53.3085,2.96759 L -52.685,3.03587
 z
M -53.0963,1.99039 L -53.4934,1.85944 L -53.8546,1.6488 L -54.1641,1.36768 L -54.4084,1.02835 L -54.5768,0.645645
 L -54.6619,0.236298 L -54.6601,-0.181793 L -54.5714,-0.590393 L -54.3996,-0.971619 L -54.1524,-1.30881 L -53.8405,-1.58722
 L -53.4774,-1.79469 L -53.0792,-1.92215 L -52.6632,-1.96405 L -52.2476,-1.91853 L -51.8505,-1.7876 L -51.4893,-1.57695
 L -51.1798,-1.29582 L -50.9356,-0.956497 L -50.7672,-0.573792 L -50.682,-0.164444 L -50.6838,0.253647 L -50.7726,0.662247
 L -50.9443,1.04347 L -51.1915,1.38065 L -51.5034,1.65907 L -51.8665,1.86655 L -52.2647,1.994 L -52.6807,2.0359
 z
M 42.9243,-7.44736 L 60.5688,-9.37975 L 62.4196,7.51921 L 44.7751,9.45158 z
M 53.3085,2.96759 L 53.9041,2.77119 L 54.4459,2.45525 L 54.9101,2.03355 L 55.2766,1.52457 L 55.5291,0.9505
 L 55.6568,0.336487 L 55.6541,-0.290665 L 55.521,-0.903549 L 55.2635,-1.47537 L 54.8926,-1.98116 L 54.4247,-2.39879
 L 53.8802,-2.70999 L 53.2829,-2.9012 L 52.6589,-2.96402 L 52.0354,-2.89575 L 51.4398,-2.69934 L 50.898,-2.38339
 L 50.4338,-1.96172 L 50.0674,-1.45271 L 49.8148,-0.878647 L 49.6871,-0.264633 L 49.6898,0.362518 L 49.8229,0.975403
 L 50.0804,1.54723 L 50.4513,2.05301 L 50.9192,2.47064 L 51.4637,2.78185 L 52.061,2.97305 L 52.685,3.03587
 z
M 52.2647,1.994 L 51.8665,1.86655 L 51.5034,1.65907 L 51.1915,1.38065 L 50.9443,1.04347 L 50.7726,0.662247
 L 50.6838,0.253647 L 50.682,-0.164444 L 50.7672,-0.573792 L 50.9356,-0.956497 L 51.1798,-1.29582 L 51.4893,-1.57695
 L 51.8505,-1.7876 L 52.2476,-1.91853 L 52.6632,-1.96405 L 53.0792,-1.92215 L 53.4774,-1.79469 L 53.8405,-1.58722
 L 54.1524,-1.30881 L 54.3996,-0.971619 L 54.5714,-0.590393 L 54.6601,-0.181793 L 54.6619,0.236298 L 54.5768,0.645645
 L 54.4084,1.02835 L 54.1641,1.36768 L 53.8546,1.6488 L 53.4934,1.85944 L 53.0963,1.99039 L 52.6807,2.0359
 z
M -43.1969,8.97827 L -41.5675,-7.94345 L -23.8992,-6.24219 L -25.5286,10.6795 z
M -32.8988,4.29692 L -32.304,4.09792 L -31.7636,3.7796 L -31.3012,3.3559 L -30.937,2.84529 L -30.6869,2.27016
 L -30.5619,1.65558 L -30.5674,1.02843 L -30.7031,0.416138 L -30.9632,-0.154556 L -31.3362,-0.658722 L -31.806,-1.07428
 L -32.3518,-1.38312 L -32.95,-1.5717 L -33.5742,-1.63182 L -34.1974,-1.56084 L -34.7921,-1.36183 L -35.3325,-1.04352
 L -35.7949,-0.619797 L -36.1591,-0.109207 L -36.4092,0.465927 L -36.5343,1.08051 L -36.5288,1.70764 L -36.393,2.31995
 L -36.1329,2.89064 L -35.7599,3.39481 L -35.2902,3.81038 L -34.7443,4.11922 L -34.1462,4.3078 L -33.5219,4.3679
 z
M -33.9468,3.32788 L -34.3456,3.20216 L -34.7095,2.99626 L -35.0226,2.71922 L -35.2713,2.38312 L -35.4447,2.00264
 L -35.5352,1.59444 L -35.5389,1.17635 L -35.4555,0.766632 L -35.2888,0.383194 L -35.046,0.0428009 L -34.7377,-0.239655
 L -34.3775,-0.451874 L -33.981,-0.584534 L -33.5655,-0.631866 L -33.1493,-0.591797 L -32.7506,-0.466064 L -32.3867,-0.260178
 L -32.0735,0.016861 L -31.8248,0.352966 L -31.6514,0.733429 L -31.5609,1.14163 L -31.5573,1.55972 L -31.6406,1.96945
 L -31.8074,2.35289 L -32.0502,2.69328 L -32.3584,2.97575 L -32.7187,3.18796 L -33.1152,3.32063 L -33.5306,3.36797
 z
M 23.8992,-6.24219 L 41.5675,-7.94345 L 43.1969,8.97827 L 25.5286,10.6795 z
M 34.1462,4.3078 L 34.7443,4.11922 L 35.2902,3.81038 L 35.7599,3.39481 L 36.1329,2.89064 L 36.393,2.31995
 L 36.5288,1.70764 L 36.5343,1.08051 L 36.4092,0.465927 L 36.1591,-0.109207 L 35.7949,-0.619797 L 35.3325,-1.04352
 L 34.7921,-1.36183 L 34.1974,-1.56084 L 33.5742,-1.63182 L 32.95,-1.5717 L 32.3518,-1.38312 L 31.806,-1.07428
 L 31.3362,-0.658722 L 30.9632,-0.154556 L 30.7031,0.416138 L 30.5674,1.02843 L 30.5619,1.65558 L 30.6869,2.27016
 L 30.937,2.84529 L 31.3012,3.3559 L 31.7636,3.7796 L 32.304,4.09792 L 32.8988,4.29692 L 33.5219,4.3679
 z
M 33.1152,3.32063 L 32.7187,3.18796 L 32.3584,2.97575 L 32.0502,2.69328 L 31.8074,2.35289 L 31.6406,1.96945
 L 31.5573,1.55972 L 31.5609,1.14163 L 31.6514,0.733429 L 31.8248,0.352966 L 32.0735,0.016861 L 32.3867,-0.260178
 L 32.7506,-0.466064 L 33.1493,-0.591797 L 33.5655,-0.631866 L 33.981,-0.584534 L 34.3775,-0.451874 L 34.7377,-0.239655
 L 35.046,0.0428009 L 35.2888,0.383194 L 35.4555,0.766632 L 35.5389,1.17635 L 35.5352,1.59444 L 35.4447,2.00264
 L 35.2713,2.38312 L 35.0226,2.71922 L 34.7095,2.99626 L 34.3456,3.20216 L 33.9468,3.32788 L 33.5306,3.36797
 z
M 5.42986,-6.05046 L 23.1725,-6.56155 L 23.662,10.4314 L 5.91936,10.9425 z
M 14.9453,5.16374 L 15.5547,5.01575 L 16.1201,4.74426 L 16.6167,4.36116 L 17.0227,3.88319 L 17.3206,3.33124
 L 17.4971,2.72945 L 17.5447,2.10408 L 17.4612,1.4825 L 17.2503,0.891846 L 16.9212,0.357956 L 16.4883,-0.0958252
 L 15.9705,-0.449707 L 15.3904,-0.688202 L 14.7735,-0.800873 L 14.1466,-0.782806 L 13.5371,-0.634811 L 12.9717,-0.363327
 L 12.4752,0.0197601 L 12.0691,0.497726 L 11.7713,1.04968 L 11.5948,1.65147 L 11.5472,2.27684 L 11.6307,2.89842
 L 11.8416,3.48906 L 12.1707,4.02296 L 12.6036,4.47676 L 13.1214,4.83064 L 13.7014,5.06914 L 14.3184,5.18181
 z
M 13.9829,4.10957 L 13.5962,3.95059 L 13.251,3.71466 L 12.9624,3.41214 L 12.743,3.0562 L 12.6024,2.66245
 L 12.5468,2.24805 L 12.5785,1.83113 L 12.6962,1.42993 L 12.8947,1.06197 L 13.1654,0.743317 L 13.4965,0.487915
 L 13.8734,0.306931 L 14.2797,0.208267 L 14.6976,0.196228 L 15.1089,0.271347 L 15.4956,0.430328 L 15.8408,0.66626
 L 16.1294,0.968781 L 16.3488,1.32471 L 16.4894,1.71848 L 16.5451,2.13287 L 16.5134,2.54977 L 16.3957,2.95099
 L 16.1971,3.31895 L 15.9264,3.6376 L 15.5954,3.89301 L 15.2185,4.07399 L 14.8122,4.17265 L 14.3942,4.18469
 z
M -23.662,10.4314 L -23.1725,-6.56155 L -5.42986,-6.05046 L -5.91936,10.9425 z
M -13.7014,5.06914 L -13.1214,4.83064 L -12.6036,4.47676 L -12.1707,4.02296 L -11.8416,3.48906 L -11.6307,2.89842
 L -11.5472,2.27684 L -11.5948,1.65147 L -11.7713,1.04968 L -12.0691,0.497726 L -12.4752,0.0197601 L -12.9717,-0.363327
 L -13.5371,-0.634811 L -14.1466,-0.782806 L -14.7735,-0.800873 L -15.3904,-0.688202 L -15.9705,-0.449707 L -16.4883,-0.0958252
 L -16.9212,0.357956 L -17.2503,0.891846 L -17.4612,1.4825 L -17.5447,2.10408 L -17.4971,2.72945 L -17.3206,3.33124
 L -17.0227,3.88319 L -16.6167,4.36116 L -16.1201,4.74426 L -15.5547,5.01575 L -14.9453,5.16374 L -14.3184,5.18181
 z
M -14.8122,4.17265 L -15.2185,4.07399 L -15.5954,3.89301 L -15.9264,3.6376 L -16.1971,3.31895 L -16.3957,2.95099
 L -16.5134,2.54977 L -16.5451,2.13287 L -16.4894,1.71848 L -16.3488,1.32471 L -16.1294,0.968781 L -15.8408,0.66626
 L -15.4956,0.430328 L -15.1089,0.271347 L -14.6976,0.196228 L -14.2797,0.208267 L -13.8734,0.306931 L -13.4965,0.487915
 L -13.1654,0.743317 L -12.8947,1.06197 L -12.6962,1.42993 L -12.5785,1.83113 L -12.5468,2.24805 L -12.6024,2.66245
 L -12.743,3.0562 L -12.9624,3.41214 L -13.251,3.71466 L -13.5962,3.95059 L -13.9829,4.10957 L -14.3942,4.18469
 z
M 101.437,3.75838 L 128.064,1.1945 L 129.693,18.1162 L 103.066,20.6801 z
M 116.163,13.8771 L 116.761,13.6885 L 117.307,13.3797 L 117.777,12.9641 L 118.15,12.4599 L 118.41,11.8892
 L 118.546,11.2769 L 118.551,10.6498 L 118.426,10.0352 L 118.176,9.46005 L 117.812,8.94946 L 117.35,8.52574
 L 116.809,8.20744 L 116.214,8.00842 L 115.591,7.93744 L 114.967,7.99756 L 114.369,8.18614 L 113.823,8.49498
 L 113.353,8.91054 L 112.98,9.4147 L 112.72,9.98541 L 112.584,10.5977 L 112.579,11.2249 L 112.704,11.8394
 L 112.954,12.4146 L 113.318,12.9252 L 113.781,13.3489 L 114.321,13.6672 L 114.916,13.8662 L 115.539,13.9372
 z
M 115.132,12.8899 L 114.736,12.7572 L 114.376,12.545 L 114.067,12.2626 L 113.824,11.9222 L 113.658,11.5387
 L 113.574,11.129 L 113.578,10.7109 L 113.669,10.3027 L 113.842,9.92224 L 114.091,9.58614 L 114.404,9.30908
 L 114.768,9.1032 L 115.166,8.97746 L 115.583,8.93739 L 115.998,8.98473 L 116.395,9.11739 L 116.755,9.32961
 L 117.063,9.61208 L 117.306,9.95247 L 117.473,10.3359 L 117.556,10.7456 L 117.552,11.1637 L 117.462,11.5719
 L 117.288,11.9524 L 117.04,12.2885 L 116.727,12.5655 L 116.363,12.7714 L 115.964,12.8972 L 115.548,12.9372
 z
M -129.693,18.1162 L -128.064,1.1945 L -101.437,3.75838 L -103.066,20.6801 z
M -114.916,13.8662 L -114.321,13.6672 L -113.781,13.3489 L -113.318,12.9252 L -112.954,12.4146 L -112.704,11.8394
 L -112.579,11.2249 L -112.584,10.5977 L -112.72,9.98541 L -112.98,9.4147 L -113.353,8.91054 L -113.823,8.49498
 L -114.369,8.18614 L -114.967,7.99756 L -115.591,7.93744 L -116.214,8.00842 L -116.809,8.20744 L -117.35,8.52574
 L -117.812,8.94946 L -118.176,9.46005 L -118.426,10.0352 L -118.551,10.6498 L -118.546,11.2769 L -118.41,11.8892
 L -118.15,12.4599 L -117.777,12.9641 L -117.307,13.3797 L -116.761,13.6885 L -116.163,13.8771 L -115.539,13.9372
 z
M -115.964,12.8972 L -116.363,12.7714 L -116.727,12.5655 L -117.04,12.2885 L -117.288,11.9524 L -117.462,11.5719
 L -117.552,11.1637 L -117.556,10.7456 L -117.473,10.3359 L -117.306,9.95247 L -117.063,9.61208 L -116.755,9.32961
 L -116.395,9.11739 L -115.998,8.98473 L -115.583,8.93739 L -115.166,8.97746 L -114.768,9.1032 L -114.404,9.30908
 L -114.091,9.58614 L -113.842,9.92224 L -113.669,10.3027 L -113.578,10.7109 L -113.574,11.129 L -113.658,11.5387
 L -113.824,11.9222 L -114.067,12.2626 L -114.376,12.545 L -114.736,12.7572 L -115.132,12.8899 L -115.548,12.9372
 z
M 83.0657,5.87973 L 100.683,3.71655 L 102.755,20.5898 L 85.1374,22.753 z
M 93.5853,16.1579 L 94.1782,15.9537 L 94.7158,15.6307 L 95.1745,15.203 L 95.5343,14.6892 L 95.7793,14.1119
 L 95.899,13.4963 L 95.888,12.8692 L 95.7469,12.2581 L 95.4819,11.6897 L 95.1044,11.1888 L 94.6311,10.7773
 L 94.0826,10.4733 L 93.4828,10.2899 L 92.858,10.2353 L 92.2355,10.3117 L 91.6425,10.5159 L 91.1049,10.8389
 L 90.6463,11.2666 L 90.2865,11.7804 L 90.0415,12.3577 L 89.9218,12.9733 L 89.9328,13.6004 L 90.0739,14.2115
 L 90.3389,14.7799 L 90.7163,15.2808 L 91.1897,15.6922 L 91.7382,15.9963 L 92.338,16.1797 L 92.9628,16.2343
 z
M 92.5288,15.198 L 92.1289,15.0758 L 91.7632,14.8731 L 91.4477,14.5988 L 91.1961,14.2649 L 91.0194,13.8859
 L 90.9253,13.4785 L 90.918,13.0605 L 90.9978,12.65 L 91.1611,12.2652 L 91.401,11.9227 L 91.7068,11.6375
 L 92.0652,11.4222 L 92.4605,11.286 L 92.8755,11.2351 L 93.292,11.2715 L 93.6919,11.3938 L 94.0575,11.5965
 L 94.3731,11.8708 L 94.6247,12.2047 L 94.8014,12.5836 L 94.8955,12.991 L 94.9028,13.4091 L 94.823,13.8195
 L 94.6596,14.2044 L 94.4198,14.5469 L 94.114,14.8321 L 93.7556,15.0474 L 93.3603,15.1835 L 92.9453,15.2345
 z
M -102.755,20.5898 L -100.683,3.71655 L -83.0657,5.87973 L -85.1374,22.753 z
M -92.338,16.1797 L -91.7382,15.9963 L -91.1897,15.6922 L -90.7163,15.2808 L -90.3389,14.7799 L -90.0739,14.2115
 L -89.9328,13.6004 L -89.9218,12.9733 L -90.0415,12.3577 L -90.2865,11.7804 L -90.6463,11.2666 L -91.1049,10.8389
 L -91.6425,10.5159 L -92.2355,10.3117 L -92.858,10.2353 L -93.4828,10.2899 L -94.0826,10.4733 L -94.6311,10.7773
 L -95.1044,11.1888 L -95.4819,11.6897 L -95.7469,12.2581 L -95.888,12.8692 L -95.899,13.4963 L -95.7793,14.1119
 L -95.5343,14.6892 L -95.1745,15.203 L -94.7158,15.6307 L -94.1782,15.9537 L -93.5853,16.1579 L -92.9628,16.2343
 z
M -93.3603,15.1835 L -93.7556,15.0474 L -94.114,14.8321 L -94.4198,14.5469 L -94.6596,14.2044 L -94.823,13.8195
 L -94.9028,13.4091 L -94.8955,12.991 L -94.8014,12.5836 L -94.6247,12.2047 L -94.3731,11.8708 L -94.0575,11.5965
 L -93.6919,11.3938 L -93.292,11.2715 L -92.8755,11.2351 L -92.4605,11.286 L -92.0652,11.4222 L -91.7068,11.6375
 L -91.401,11.9227 L -91.1611,12.2652 L -90.9978,12.65 L -90.918,13.0605 L -90.9253,13.4785 L -91.0194,13.8859
 L -91.1961,14.2649 L -91.4477,14.5988 L -91.7632,14.8731 L -92.1289,15.0758 L -92.5288,15.198 L -92.9453,15.2345
 z
M 64.2073,8.19525 L 81.825,6.03207 L 83.8968,22.9054 L 66.2791,25.0685 z
M 74.7269,18.4734 L 75.3199,18.2692 L 75.8575,17.9462 L 76.3161,17.5185 L 76.6759,17.0047 L 76.9209,16.4274
 L 77.0406,15.8118 L 77.0297,15.1847 L 76.8886,14.5736 L 76.6235,14.0052 L 76.2461,13.5043 L 75.7727,13.0928
 L 75.2242,12.7888 L 74.6244,12.6054 L 73.9997,12.5508 L 73.3772,12.6272 L 72.7842,12.8314 L 72.2466,13.1544
 L 71.7879,13.5821 L 71.4282,14.0959 L 71.1831,14.6732 L 71.0634,15.2888 L 71.0744,15.9159 L 71.2155,16.527
 L 71.4805,17.0954 L 71.858,17.5963 L 72.3313,18.0078 L 72.8798,18.3118 L 73.4796,18.4952 L 74.1044,18.5498
 z
M 73.6704,17.5136 L 73.2706,17.3913 L 72.9049,17.1886 L 72.5893,16.9143 L 72.3377,16.5804 L 72.161,16.2014
 L 72.0669,15.794 L 72.0596,15.376 L 72.1394,14.9656 L 72.3028,14.5807 L 72.5426,14.2382 L 72.8484,13.953
 L 73.2068,13.7377 L 73.6021,13.6016 L 74.0171,13.5506 L 74.4336,13.5871 L 74.8335,13.7093 L 75.1992,13.912
 L 75.5147,14.1863 L 75.7664,14.5202 L 75.9431,14.8992 L 76.0371,15.3066 L 76.0444,15.7246 L 75.9646,16.1351
 L 75.8013,16.5199 L 75.5614,16.8624 L 75.2556,17.1476 L 74.8972,17.3629 L 74.5019,17.499 L 74.0869,17.55
 z
M -83.8968,22.9054 L -81.825,6.03207 L -64.2073,8.19525 L -66.2791,25.0685 z
M -73.4796,18.4952 L -72.8798,18.3118 L -72.3313,18.0078 L -71.858,17.5963 L -71.4805,17.0954 L -71.2155,16.527
 L -71.0744,15.9159 L -71.0634,15.2888 L -71.1831,14.6732 L -71.4282,14.0959 L -71.7879,13.5821 L -72.2466,13.1544
 L -72.7842,12.8314 L -73.3772,12.6272 L -73.9997,12.5508 L -74.6244,12.6054 L -75.2242,12.7888 L -75.7727,13.0928
 L -76.2461,13.5043 L -76.6235,14.0052 L -76.8886,14.5736 L -77.0297,15.1847 L -77.0406,15.8118 L -76.9209,16.4274
 L -76.6759,17.0047 L -76.3161,17.5185 L -75.8575,17.9462 L -75.3199,18.2692 L -74.7269,18.4734 L -74.1044,18.5498
 z
M -74.5019,17.499 L -74.8972,17.3629 L -75.2556,17.1476 L -75.5614,16.8624 L -75.8013,16.5199 L -75.9646,16.1351
 L -76.0444,15.7246 L -76.0371,15.3066 L -75.9431,14.8992 L -75.7664,14.5202 L -75.5147,14.1863 L -75.1992,13.912
 L -74.8335,13.7093 L -74.4336,13.5871 L -74.0171,13.5506 L -73.6021,13.6016 L -73.2068,13.7377 L -72.8484,13.953
 L -72.5426,14.2382 L -72.3028,14.5807 L -72.1394,14.9656 L -72.0596,15.376 L -72.0669,15.794 L -72.161,16.2014
 L -72.3377,16.5804 L -72.5893,16.9143 L -72.9049,17.1886 L -73.2706,17.3913 L -73.6704,17.5136 L -74.0869,17.55
 z
M 44.8839,10.4456 L 62.5284,8.51326 L 64.3792,25.4122 L 46.7347,27.3446 z
M 55.2681,20.8606 L 55.8637,20.6642 L 56.4055,20.3483 L 56.8697,19.9266 L 57.2361,19.4176 L 57.4887,18.8435
 L 57.6165,18.2295 L 57.6137,17.6023 L 57.4807,16.9894 L 57.2231,16.4176 L 56.8522,15.9118 L 56.3843,15.4942
 L 55.8398,15.183 L 55.2425,14.9918 L 54.6185,14.929 L 53.995,14.9973 L 53.3994,15.1936 L 52.8576,15.5096
 L 52.3934,15.9313 L 52.027,16.4403 L 51.7744,17.0143 L 51.6467,17.6284 L 51.6494,18.2555 L 51.7825,18.8684
 L 52.0401,19.4402 L 52.4109,19.946 L 52.8788,20.3636 L 53.4233,20.6749 L 54.0206,20.8661 L 54.6447,20.9289
 z
M 54.2243,19.887 L 53.8261,19.7596 L 53.4631,19.5521 L 53.1511,19.2737 L 52.9039,18.9365 L 52.7322,18.5553
 L 52.6434,18.1467 L 52.6416,17.7286 L 52.7268,17.3192 L 52.8952,16.9365 L 53.1395,16.5972 L 53.4489,16.316
 L 53.8101,16.1054 L 54.2072,15.9745 L 54.6228,15.929 L 55.0388,15.9708 L 55.4371,16.0983 L 55.8001,16.3058
 L 56.112,16.5842 L 56.3592,16.9214 L 56.531,17.3026 L 56.6197,17.7112 L 56.6215,18.1293 L 56.5363,18.5387
 L 56.368,18.9214 L 56.1237,19.2607 L 55.8142,19.5418 L 55.453,19.7525 L 55.0559,19.8834 L 54.6403,19.9289
 z
M -64.3792,25.4122 L -62.5284,8.51326 L -44.8839,10.4456 L -46.7347,27.3446 z
M -54.0206,20.8661 L -53.4233,20.6749 L -52.8788,20.3636 L -52.4109,19.946 L -52.0401,19.4402 L -51.7825,18.8684
 L -51.6494,18.2555 L -51.6467,17.6284 L -51.7744,17.0143 L -52.027,16.4403 L -52.3934,15.9313 L -52.8576,15.5096
 L -53.3994,15.1936 L -53.995,14.9973 L -54.6185,14.929 L -55.2425,14.9918 L -55.8398,15.183 L -56.3843,15.4942
 L -56.8522,15.9118 L -57.2231,16.4176 L -57.4807,16.9894 L -57.6137,17.6023 L -57.6165,18.2295 L -57.4887,18.8435
 L -57.2361,19.4176 L -56.8697,19.9266 L -56.4055,20.3483 L -55.8637,20.6642 L -55.2681,20.8606 L -54.6447,20.9289
 z
M -55.0559,19.8834 L -55.453,19.7525 L -55.8142,19.5418 L -56.1237,19.2607 L -56.368,18.9214 L -56.5363,18.5387
 L -56.6215,18.1293 L -56.6197,17.7112 L -56.531,17.3026 L -56.3592,16.9214 L -56.112,16.5842 L -55.8001,16.3058
 L -55.4371,16.0983 L -55.0388,15.9708 L -54.6228,15.929 L -54.2072,15.9745 L -53.8101,16.1054 L -53.4489,16.316
 L -53.1395,16.5972 L -52.8952,16.9365 L -52.7268,17.3192 L -52.6416,17.7286 L -52.6434,18.1467 L -52.7322,18.5553
 L -52.9039,18.9365 L -53.1511,19.2737 L -53.4631,19.5521 L -53.8261,19.7596 L -54.2243,19.887 L -54.6403,19.9289
 z
M 25.6245,11.6749 L 43.2928,9.97366 L 44.9221,26.8954 L 27.2538,28.5967 z
M 35.8714,22.2249 L 36.4695,22.0363 L 37.0154,21.7275 L 37.4851,21.3119 L 37.8582,20.8078 L 38.1183,20.2371
 L 38.254,19.6248 L 38.2595,18.9976 L 38.1344,18.3831 L 37.8844,17.8079 L 37.5202,17.2973 L 37.0578,16.8736
 L 36.5174,16.5553 L 35.9226,16.3563 L 35.2995,16.2853 L 34.6752,16.3454 L 34.0771,16.534 L 33.5312,16.8428
 L 33.0615,17.2584 L 32.6884,17.7626 L 32.4283,18.3333 L 32.2926,18.9456 L 32.2871,19.5727 L 32.4122,20.1873
 L 32.6622,20.7624 L 33.0264,21.273 L 33.4888,21.6967 L 34.0292,22.015 L 34.624,22.2141 L 35.2471,22.285
 z
M 34.8404,21.2378 L 34.4439,21.1051 L 34.0836,20.8929 L 33.7754,20.6104 L 33.5326,20.27 L 33.3659,19.8866
 L 33.2825,19.4769 L 33.2861,19.0588 L 33.3766,18.6506 L 33.55,18.2701 L 33.7987,17.934 L 34.1119,17.6569
 L 34.4758,17.451 L 34.8746,17.3253 L 35.2907,17.2852 L 35.7062,17.3326 L 36.1027,17.4652 L 36.4629,17.6775
 L 36.7712,17.9599 L 37.014,18.3003 L 37.1807,18.6838 L 37.2641,19.0935 L 37.2604,19.5116 L 37.1699,19.9198
 L 36.9966,20.3002 L 36.7478,20.6364 L 36.4347,20.9134 L 36.0708,21.1193 L 35.672,21.245 L 35.2558,21.2851
 z
M -44.9221,26.8954 L -43.2928,9.97366 L -25.6245,11.6749 L -27.2538,28.5967 z
M -34.624,22.2141 L -34.0292,22.015 L -33.4888,21.6967 L -33.0264,21.273 L -32.6622,20.7624 L -32.4122,20.1873
 L -32.2871,19.5727 L -32.2926,18.9456 L -32.4283,18.3333 L -32.6884,17.7626 L -33.0615,17.2584 L -33.5312,16.8428
 L -34.0771,16.534 L -34.6752,16.3454 L -35.2995,16.2853 L -35.9226,16.3563 L -36.5174,16.5553 L -37.0578,16.8736
 L -37.5202,17.2973 L -37.8844,17.8079 L -38.1344,18.3831 L -38.2595,18.9976 L -38.254,19.6248 L -38.1183,20.2371
 L -37.8582,20.8078 L -37.4851,21.3119 L -37.0154,21.7275 L -36.4695,22.0363 L -35.8714,22.2249 L -35.2471,22.285
 z
M -35.672,21.245 L -36.0708,21.1193 L -36.4347,20.9134 L -36.7478,20.6364 L -36.9966,20.3002 L -37.1699,19.9198
 L -37.2604,19.5116 L -37.2641,19.0935 L -37.1807,18.6838 L -37.014,18.3003 L -36.7712,17.9599 L -36.4629,17.6775
 L -36.1027,17.4652 L -35.7062,17.3326 L -35.2907,17.2852 L -34.8746,17.3253 L -34.4758,17.451 L -34.1119,17.6569
 L -33.7987,17.934 L -33.55,18.2701 L -33.3766,18.6506 L -33.2861,19.0588 L -33.2825,19.4769 L -33.3659,19.8866
 L -33.5326,20.27 L -33.7754,20.6104 L -34.0836,20.8929 L -34.4439,21.1051 L -34.8404,21.2378 L -35.2558,21.2851
 z
M 7.15508,11.8667 L 24.8977,11.3556 L 25.3872,28.3485 L 7.64458,28.8596 z
M 16.6705,23.0809 L 17.28,22.9329 L 17.8453,22.6614 L 18.3419,22.2783 L 18.748,21.8003 L 19.0458,21.2484
 L 19.2223,20.6466 L 19.2699,20.0212 L 19.1864,19.3996 L 18.9755,18.809 L 18.6464,18.2751 L 18.2135,17.8213
 L 17.6957,17.4674 L 17.1157,17.2289 L 16.4987,17.1162 L 15.8718,17.1343 L 15.2623,17.2823 L 14.697,17.5538
 L 14.2004,17.9369 L 13.7943,18.4149 L 13.4965,18.9668 L 13.32,19.5686 L 13.2724,20.194 L 13.3559,20.8156
 L 13.5668,21.4062 L 13.8959,21.9401 L 14.3288,22.3939 L 14.8466,22.7478 L 15.4266,22.9863 L 16.0436,23.0989
 z
M 15.7081,22.0267 L 15.3214,21.8677 L 14.9762,21.6318 L 14.6876,21.3293 L 14.4682,20.9733 L 14.3276,20.5796
 L 14.272,20.1652 L 14.3037,19.7483 L 14.4214,19.3471 L 14.6199,18.9791 L 14.8906,18.6604 L 15.2217,18.4051
 L 15.5986,18.2241 L 16.0049,18.1254 L 16.4229,18.1134 L 16.8342,18.1885 L 17.2209,18.3475 L 17.5661,18.5834
 L 17.8547,18.8859 L 18.0741,19.2419 L 18.2147,19.6356 L 18.2703,20.05 L 18.2386,20.4669 L 18.1209,20.8681
 L 17.9224,21.2361 L 17.6517,21.5547 L 17.3206,21.8101 L 16.9437,21.9911 L 16.5374,22.0898 L 16.1194,22.1018
 z
M -25.3872,28.3485 L -24.8977,11.3556 L -7.15508,11.8667 L -7.64458,28.8596 z
M -15.4266,22.9863 L -14.8466,22.7478 L -14.3288,22.3939 L -13.8959,21.9401 L -13.5668,21.4062 L -13.3559,20.8156
 L -13.2724,20.194 L -13.32,19.5686 L -13.4965,18.9668 L -13.7943,18.4149 L -14.2004,17.9369 L -14.697,17.5538
 L -15.2623,17.2823 L -15.8718,17.1343 L -16.4987,17.1162 L -17.1157,17.2289 L -17.6957,17.4674 L -18.2135,17.8213
 L -18.6464,18.2751 L -18.9755,18.809 L -19.1864,19.3996 L -19.2699,20.0212 L -19.2223,20.6466 L -19.0458,21.2484
 L -18.748,21.8003 L -18.3419,22.2783 L -17.8453,22.6614 L -17.28,22.9329 L -16.6705,23.0809 L -16.0436,23.0989
 z
M -16.5374,22.0898 L -16.9437,21.9911 L -17.3206,21.8101 L -17.6517,21.5547 L -17.9224,21.2361 L -18.1209,20.8681
 L -18.2386,20.4669 L -18.2703,20.05 L -18.2147,19.6356 L -18.0741,19.2419 L -17.8547,18.8859 L -17.5661,18.5834
 L -17.2209,18.3475 L -16.8342,18.1885 L -16.4229,18.1134 L -16.0049,18.1254 L -15.5986,18.2241 L -15.2217,18.4051
 L -14.8906,18.6604 L -14.6199,18.9791 L -14.4214,19.3471 L -14.3037,19.7483 L -14.272,20.1652 L -14.3276,20.5796
 L -14.4682,20.9733 L -14.6876,21.3293 L -14.9762,21.6318 L -15.3214,21.8677 L -15.7081,22.0267 L -16.1194,22.1018
 z
M 84.8544,24.5509 L 111.405,21.2909 L 113.477,38.1642 L 86.9262,41.4242 z
M 99.8405,34.2806 L 100.433,34.0765 L 100.971,33.7534 L 101.43,33.3257 L 101.789,32.812 L 102.035,32.2346
 L 102.154,31.619 L 102.143,30.9919 L 102.002,30.3808 L 101.737,29.8125 L 101.36,29.3116 L 100.886,28.9001
 L 100.338,28.596 L 99.7381,28.4127 L 99.1133,28.358 L 98.4908,28.4344 L 97.8978,28.6386 L 97.3602,28.9617
 L 96.9015,29.3894 L 96.5418,29.9031 L 96.2967,30.4804 L 96.177,31.0961 L 96.188,31.7232 L 96.3291,32.3343
 L 96.5941,32.9026 L 96.9716,33.4035 L 97.4449,33.815 L 97.9934,34.1191 L 98.5932,34.3024 L 99.218,34.3571
 z
M 98.784,33.3208 L 98.3842,33.1986 L 98.0185,32.9958 L 97.7029,32.7215 L 97.4513,32.3876 L 97.2746,32.0087
 L 97.1805,31.6013 L 97.1732,31.1832 L 97.253,30.7728 L 97.4164,30.3879 L 97.6562,30.0454 L 97.962,29.7603
 L 98.3204,29.5449 L 98.7157,29.4088 L 99.1307,29.3578 L 99.5472,29.3943 L 99.9471,29.5165 L 100.313,29.7193
 L 100.628,29.9936 L 100.88,30.3275 L 101.057,30.7064 L 101.151,31.1138 L 101.158,31.5319 L 101.078,31.9423
 L 100.915,32.3272 L 100.675,32.6697 L 100.369,32.9548 L 100.011,33.1702 L 99.6155,33.3063 L 99.2005,33.3573
 z
M -113.477,38.1642 L -111.405,21.2909 L -84.8544,24.5509 L -86.9262,41.4242 z
M -98.5932,34.3024 L -97.9934,34.1191 L -97.4449,33.815 L -96.9716,33.4035 L -96.5941,32.9026 L -96.3291,32.3343
 L -96.188,31.7232 L -96.177,31.0961 L -96.2967,30.4804 L -96.5418,29.9031 L -96.9015,29.3894 L -97.3602,28.9617
 L -97.8978,28.6386 L -98.4908,28.4344 L -99.1133,28.358 L -99.7381,28.4127 L -100.338,28.596 L -100.886,28.9001
 L -101.36,29.3116 L -101.737,29.8125 L -102.002,30.3808 L -102.143,30.9919 L -102.154,31.619 L -102.035,32.2346
 L -101.789,32.812 L -101.43,33.3257 L -100.971,33.7534 L -100.433,34.0765 L -99.8405,34.2806 L -99.218,34.3571
 z
M -99.6155,33.3063 L -100.011,33.1702 L -100.369,32.9548 L -100.675,32.6697 L -100.915,32.3272 L -101.078,31.9423
 L -101.158,31.5319 L -101.151,31.1138 L -101.057,30.7064 L -100.88,30.3275 L -100.628,29.9936 L -100.313,29.7193
 L -99.9471,29.5165 L -99.5472,29.3943 L -99.1307,29.3578 L -98.7157,29.4088 L -98.3204,29.5449 L -97.962,29.7603
 L -97.6562,30.0454 L -97.4164,30.3879 L -97.253,30.7728 L -97.1732,31.1832 L -97.1805,31.6013 L -97.2746,32.0087
 L -97.4513,32.3876 L -97.7029,32.7215 L -98.0185,32.9958 L -98.3842,33.1986 L -98.784,33.3208 L -99.2005,33.3573
 z
M 66.4009,26.0611 L 84.0186,23.8979 L 86.0904,40.7712 L 68.4727,42.9344 z
M 76.9205,36.3392 L 77.5135,36.1351 L 78.0511,35.812 L 78.5098,35.3843 L 78.8695,34.8706 L 79.1146,34.2932
 L 79.2342,33.6776 L 79.2233,33.0505 L 79.0822,32.4394 L 78.8172,31.871 L 78.4397,31.3701 L 77.9664,30.9587
 L 77.4179,30.6546 L 76.8181,30.4713 L 76.1933,30.4166 L 75.5708,30.493 L 74.9778,30.6972 L 74.4402,31.0202
 L 73.9815,31.448 L 73.6218,31.9617 L 73.3768,32.539 L 73.2571,33.1547 L 73.268,33.7817 L 73.4091,34.3928
 L 73.6742,34.9612 L 74.0516,35.4621 L 74.5249,35.8736 L 75.0735,36.1776 L 75.6732,36.361 L 76.298,36.4157
 z
M 75.864,35.3794 L 75.4642,35.2571 L 75.0985,35.0544 L 74.783,34.7801 L 74.5313,34.4462 L 74.3546,34.0673
 L 74.2606,33.6599 L 74.2533,33.2418 L 74.3331,32.8314 L 74.4964,32.4465 L 74.7363,32.104 L 75.042,31.8189
 L 75.4004,31.6035 L 75.7958,31.4674 L 76.2108,31.4164 L 76.6273,31.4529 L 77.0271,31.5751 L 77.3928,31.7778
 L 77.7084,32.0521 L 77.96,32.3861 L 78.1367,32.765 L 78.2308,33.1724 L 78.2381,33.5905 L 78.1583,34.0009
 L 77.9949,34.3858 L 77.7551,34.7283 L 77.4493,35.0134 L 77.0909,35.2287 L 76.6956,35.3649 L 76.2806,35.4158
 z
M -86.0904,40.7712 L -84.0186,23.8979 L -66.4009,26.0611 L -68.4727,42.9344 z
M -75.6732,36.361 L -75.0735,36.1776 L -74.5249,35.8736 L -74.0516,35.4621 L -73.6742,34.9612 L -73.4091,34.3928
 L -73.268,33.7817 L -73.2571,33.1547 L -73.3768,32.539 L -73.6218,31.9617 L -73.9815,31.448 L -74.4402,31.0202
 L -74.9778,30.6972 L -75.5708,30.493 L -76.1933,30.4166 L -76.8181,30.4713 L -77.4179,30.6546 L -77.9664,30.9587
 L -78.4397,31.3701 L -78.8172,31.871 L -79.0822,32.4394 L -79.2233,33.0505 L -79.2342,33.6776 L -79.1146,34.2932
 L -78.8695,34.8706 L -78.5098,35.3843 L -78.0511,35.812 L -77.5135,36.1351 L -76.9205,36.3392 L -76.298,36.4157
 z
M -76.6956,35.3649 L -77.0909,35.2287 L -77.4493,35.0134 L -77.7551,34.7283 L -77.9949,34.3858 L -78.1583,34.0009
 L -78.2381,33.5905 L -78.2308,33.1724 L -78.1367,32.765 L -77.96,32.3861 L -77.7084,32.0521 L -77.3928,31.7778
 L -77.0271,31.5751 L -76.6273,31.4529 L -76.2108,31.4164 L -75.7958,31.4674 L -75.4004,31.6035 L -75.042,31.8189
 L -74.7363,32.104 L -74.4964,32.4465 L -74.3331,32.8314 L -74.2533,33.2418 L -74.2606,33.6599 L -74.3546,34.0673
 L -74.5313,34.4462 L -74.783,34.7801 L -75.0985,35.0544 L -75.4642,35.2571 L -75.864,35.3794 L -76.2806,35.4158
 z
M -66.3388,43.3052 L -64.488,26.4063 L -46.8435,28.3387 L -48.6943,45.2376 z
M -55.9802,38.7591 L -55.3829,38.5679 L -54.8384,38.2567 L -54.3705,37.839 L -53.9997,37.3333 L -53.7421,36.7614
 L -53.609,36.1485 L -53.6063,35.5214 L -53.734,34.9074 L -53.9866,34.3333 L -54.353,33.8243 L -54.8172,33.4026
 L -55.359,33.0867 L -55.9546,32.8903 L -56.5781,32.822 L -57.2021,32.8848 L -57.7994,33.076 L -58.3439,33.3872
 L -58.8118,33.8049 L -59.1827,34.3106 L -59.4402,34.8825 L -59.5733,35.4953 L -59.576,36.1225 L -59.4483,36.7365
 L -59.1958,37.3106 L -58.8293,37.8196 L -58.3651,38.2413 L -57.8233,38.5572 L -57.2277,38.7536 L -56.6042,38.8219
 z
M -57.0155,37.7764 L -57.4126,37.6455 L -57.7738,37.4348 L -58.0833,37.1537 L -58.3276,36.8144 L -58.496,36.4317
 L -58.5811,36.0223 L -58.5793,35.6042 L -58.4906,35.1956 L -58.3188,34.8144 L -58.0716,34.4772 L -57.7597,34.1988
 L -57.3967,33.9913 L -56.9984,33.8639 L -56.5824,33.822 L -56.1668,33.8675 L -55.7697,33.9984 L -55.4085,34.2091
 L -55.099,34.4902 L -54.8548,34.8295 L -54.6864,35.2122 L -54.6012,35.6216 L -54.603,36.0397 L -54.6918,36.4483
 L -54.8635,36.8295 L -55.1107,37.1667 L -55.4227,37.4451 L -55.7857,37.6526 L -56.1839,37.78 L -56.5999,37.8219
 z
M 46.8435,28.3387 L 64.488,26.4063 L 66.3388,43.3052 L 48.6943,45.2376 z
M 57.2277,38.7536 L 57.8233,38.5572 L 58.3651,38.2413 L 58.8293,37.8196 L 59.1958,37.3106 L 59.4483,36.7365
 L 59.576,36.1225 L 59.5733,35.4953 L 59.4402,34.8825 L 59.1827,34.3106 L 58.8118,33.8049 L 58.3439,33.3872
 L 57.7994,33.076 L 57.2021,32.8848 L 56.5781,32.822 L 55.9546,32.8903 L 55.359,33.0867 L 54.8172,33.4026
 L 54.353,33.8243 L 53.9866,34.3333 L 53.734,34.9074 L 53.6063,35.5214 L 53.609,36.1485 L 53.7421,36.7614
 L 53.9997,37.3333 L 54.3705,37.839 L 54.8384,38.2567 L 55.3829,38.5679 L 55.9802,38.7591 L 56.6042,38.8219
 z
M 56.1839,37.78 L 55.7857,37.6526 L 55.4227,37.4451 L 55.1107,37.1667 L 54.8635,36.8295 L 54.6918,36.4483
 L 54.603,36.0397 L 54.6012,35.6216 L 54.6864,35.2122 L 54.8548,34.8295 L 55.099,34.4902 L 55.4085,34.2091
 L 55.7697,33.9984 L 56.1668,33.8675 L 56.5824,33.822 L 56.9984,33.8639 L 57.3967,33.9913 L 57.7597,34.1988
 L 58.0716,34.4772 L 58.3188,34.8144 L 58.4906,35.1956 L 58.5793,35.6042 L 58.5811,36.0223 L 58.496,36.4317
 L 58.3276,36.8144 L 58.0833,37.1537 L 57.7738,37.4348 L 57.4126,37.6455 L 57.0155,37.7764 L 56.5999,37.8219
 z
M 28.375,47 L 28.375,30 L 46.125,30 L 46.125,47 z
M 38.177,41.3532 L 38.75,41.0981 L 39.2574,40.7294 L 39.677,40.2634 L 39.9906,39.7202 L 40.1844,39.1237
 L 40.25,38.5 L 40.1844,37.8763 L 39.9906,37.2798 L 39.677,36.7366 L 39.2574,36.2706 L 38.75,35.9019
 L 38.177,35.6468 L 37.5636,35.5164 L 36.9364,35.5164 L 36.323,35.6468 L 35.75,35.9019 L 35.2426,36.2706
 L 34.823,36.7366 L 34.5094,37.2798 L 34.3156,37.8763 L 34.25,38.5 L 34.3156,39.1237 L 34.5094,39.7202
 L 34.823,40.2634 L 35.2426,40.7294 L 35.75,41.0981 L 36.323,41.3532 L 36.9364,41.4836 L 37.5636,41.4836
 z
M 37.0409,40.489 L 36.632,40.4021 L 36.25,40.232 L 35.9117,39.9863 L 35.632,39.6756 L 35.4229,39.3135
 L 35.2937,38.9158 L 35.25,38.5 L 35.2937,38.0842 L 35.4229,37.6865 L 35.632,37.3244 L 35.9117,37.0137
 L 36.25,36.7679 L 36.632,36.5979 L 37.0409,36.511 L 37.459,36.511 L 37.868,36.5979 L 38.25,36.7679
 L 38.5883,37.0137 L 38.868,37.3244 L 39.0771,37.6865 L 39.2063,38.0842 L 39.25,38.5 L 39.2063,38.9158
 L 39.0771,39.3135 L 38.868,39.6756 L 38.5883,39.9863 L 38.25,40.232 L 37.868,40.4021 L 37.459,40.489
 z
M -46.125,47 L -46.125,30 L -28.375,30 L -28.375,47 z
M -36.323,41.3532 L -35.75,41.0981 L -35.2426,40.7294 L -34.823,40.2634 L -34.5094,39.7202 L -34.3156,39.1237
 L -34.25,38.5 L -34.3156,37.8763 L -34.5094,37.2798 L -34.823,36.7366 L -35.2426,36.2706 L -35.75,35.9019
 L -36.323,35.6468 L -36.9364,35.5164 L -37.5636,35.5164 L -38.177,35.6468 L -38.75,35.9019 L -39.2574,36.2706
 L -39.677,36.7366 L -39.9906,37.2798 L -40.1844,37.8763 L -40.25,38.5 L -40.1844,39.1237 L -39.9906,39.7202
 L -39.677,40.2634 L -39.2574,40.7294 L -38.75,41.0981 L -38.177,41.3532 L -37.5636,41.4836 L -36.9364,41.4836
 z
M -37.459,40.489 L -37.868,40.4021 L -38.25,40.232 L -38.5883,39.9863 L -38.868,39.6756 L -39.0771,39.3135
 L -39.2063,38.9158 L -39.25,38.5 L -39.2063,38.0842 L -39.0771,37.6865 L -38.868,37.3244 L -38.5883,37.0137
 L -38.25,36.7679 L -37.868,36.5979 L -37.459,36.511 L -37.0409,36.511 L -36.632,36.5979 L -36.25,36.7679
 L -35.9117,37.0137 L -35.632,37.3244 L -35.4229,37.6865 L -35.2937,38.0842 L -35.25,38.5 L -35.2937,38.9158
 L -35.4229,39.3135 L -35.632,39.6756 L -35.9117,39.9863 L -36.25,40.232 L -36.632,40.4021 L -37.0409,40.489
 z
M 0.875,48.25 L 0.875,31.25 L 27.625,31.25 L 27.625,48.25 z
M 15.177,42.6032 L 15.75,42.3481 L 16.2574,41.9794 L 16.677,41.5134 L 16.9906,40.9702 L 17.1844,40.3737
 L 17.25,39.75 L 17.1844,39.1263 L 16.9906,38.5298 L 16.677,37.9866 L 16.2574,37.5206 L 15.75,37.1519
 L 15.177,36.8968 L 14.5636,36.7664 L 13.9364,36.7664 L 13.323,36.8968 L 12.75,37.1519 L 12.2426,37.5206
 L 11.823,37.9866 L 11.5094,38.5298 L 11.3156,39.1263 L 11.25,39.75 L 11.3156,40.3737 L 11.5094,40.9702
 L 11.823,41.5134 L 12.2426,41.9794 L 12.75,42.3481 L 13.323,42.6032 L 13.9364,42.7336 L 14.5636,42.7336
 z
M 14.0409,41.739 L 13.632,41.6521 L 13.25,41.482 L 12.9117,41.2363 L 12.632,40.9256 L 12.4229,40.5635
 L 12.2937,40.1658 L 12.25,39.75 L 12.2937,39.3342 L 12.4229,38.9365 L 12.632,38.5744 L 12.9117,38.2637
 L 13.25,38.0179 L 13.632,37.8479 L 14.0409,37.761 L 14.459,37.761 L 14.868,37.8479 L 15.25,38.0179
 L 15.5883,38.2637 L 15.868,38.5744 L 16.0771,38.9365 L 16.2063,39.3342 L 16.25,39.75 L 16.2063,40.1658
 L 16.0771,40.5635 L 15.868,40.9256 L 15.5883,41.2363 L 15.25,41.482 L 14.868,41.6521 L 14.459,41.739
 z
M -27.625,48.25 L -27.625,31.25 L -0.875,31.25 L -0.875,48.25 z
M -13.323,42.6032 L -12.75,42.3481 L -12.2426,41.9794 L -11.823,41.5134 L -11.5094,40.9702 L -11.3156,40.3737
 L -11.25,39.75 L -11.3156,39.1263 L -11.5094,38.5298 L -11.823,37.9866 L -12.2426,37.5206 L -12.75,37.1519
 L -13.323,36.8968 L -13.9364,36.7664 L -14.5636,36.7664 L -15.177,36.8968 L -15.75,37.1519 L -16.2574,37.5206
 L -16.677,37.9866 L -16.9906,38.5298 L -17.1844,39.1263 L -17.25,39.75 L -17.1844,40.3737 L -16.9906,40.9702
 L -16.677,41.5134 L -16.2574,41.9794 L -15.75,42.3481 L -15.177,42.6032 L -14.5636,42.7336 L -13.9364,42.7336
 z
M -14.459,41.739 L -14.868,41.6521 L -15.25,41.482 L -15.5883,41.2363 L -15.868,40.9256 L -16.0771,40.5635
 L -16.2063,40.1658 L -16.25,39.75 L -16.2063,39.3342 L -16.0771,38.9365 L -15.868,38.5744 L -15.5883,38.2637
 L -15.25,38.0179 L -14.868,37.8479 L -14.459,37.761 L -14.0409,37.761 L -13.632,37.8479 L -13.25,38.0179
 L -12.9117,38.2637 L -12.632,38.5744 L -12.4229,38.9365 L -12.2937,39.3342 L -12.25,39.75 L -12.2937,40.1658
 L -12.4229,40.5635 L -12.632,40.9256 L -12.9117,41.2363 L -13.25,41.482 L -13.632,41.6521 L -14.0409,41.739
 z
" stroke="black" fill="lightgray" stroke-width="0.5"/>
</svg>
