<?xml version="1.0" standalone="no"?>
<!DOCTYPE svg PUBLIC "-//W3C//DTD SVG 1.1//EN" "http://www.w3.org/Graphics/SVG/1.1/DTD/svg11.dtd">
<svg width="276mm" height="115mm" viewBox="-138 -62 276 115" xmlns="http://www.w3.org/2000/svg" version="1.1">
<title>OpenSCAD Model</title>
<path d="
M 137.95,-50.12 L 104.44,-50.12 L 104.44,-61.04 L -104.44,-61.04 L -104.44,-50.12 L -137.95,-50.12
 L -137.95,52.12 L 137.95,52.12 z
M -133.164,-31.8683 L -131.463,-49.5366 L -114.79,-47.9312 L -116.491,-30.2629 z
M -123.637,-36.9191 L -123.025,-37.0548 L -122.454,-37.3149 L -121.95,-37.688 L -121.534,-38.1577 L -121.226,-38.7035
 L -121.037,-39.3017 L -120.977,-39.926 L -121.048,-40.5491 L -121.247,-41.1439 L -121.565,-41.6842 L -121.989,-42.1467
 L -122.5,-42.5108 L -123.075,-42.7609 L -123.689,-42.886 L -124.316,-42.8805 L -124.929,-42.7448 L -125.499,-42.4847
 L -126.004,-42.1116 L -126.419,-41.6419 L -126.728,-41.096 L -126.917,-40.4979 L -126.977,-39.8736 L -126.906,-39.2505
 L -126.707,-38.6557 L -126.388,-38.1153 L -125.965,-37.6529 L -125.454,-37.2887 L -124.879,-37.0386 L -124.264,-36.9136
 z
M -124.578,-37.9924 L -124.962,-38.1591 L -125.302,-38.4019 L -125.585,-38.7101 L -125.797,-39.0704 L -125.929,-39.4669
 L -125.977,-39.8823 L -125.937,-40.2985 L -125.811,-40.6973 L -125.605,-41.0612 L -125.328,-41.3743 L -124.992,-41.623
 L -124.611,-41.7964 L -124.203,-41.8869 L -123.785,-41.8906 L -123.375,-41.8072 L -122.992,-41.6405 L -122.652,-41.3977
 L -122.369,-41.0894 L -122.157,-40.7292 L -122.024,-40.3327 L -121.977,-39.9172 L -122.017,-39.5011 L -122.143,-39.1023
 L -122.349,-38.7384 L -122.626,-38.4252 L -122.962,-38.1765 L -123.342,-38.0031 L -123.75,-37.9126 L -124.169,-37.909
 z
M 114.79,-47.9312 L 131.463,-49.5366 L 133.164,-31.8683 L 116.491,-30.2629 z
M 124.879,-37.0386 L 125.454,-37.2887 L 125.965,-37.6529 L 126.388,-38.1153 L 126.707,-38.6557 L 126.906,-39.2505
 L 126.977,-39.8736 L 126.917,-40.4979 L 126.728,-41.096 L 126.419,-41.6419 L 126.004,-42.1116 L 125.499,-42.4847
 L 124.929,-42.7448 L 124.316,-42.8805 L 123.689,-42.886 L 123.075,-42.7609 L 122.5,-42.5108 L 121.989,-42.1467
 L 121.565,-41.6842 L 121.247,-41.1439 L 121.048,-40.5491 L 120.977,-39.926 L 121.037,-39.3017 L 121.226,-38.7035
 L 121.534,-38.1577 L 121.95,-37.688 L 122.454,-37.3149 L 123.025,-37.0548 L 123.637,-36.9191 L 124.264,-36.9136
 z
M 123.75,-37.9126 L 123.342,-38.0031 L 122.962,-38.1765 L 122.626,-38.4252 L 122.349,-38.7384 L 122.143,-39.1023
 L 122.017,-39.5011 L 121.977,-39.9172 L 122.024,-40.3327 L 122.157,-40.7292 L 122.369,-41.0894 L 122.652,-41.3977
 L 122.992,-41.6405 L 123.375,-41.8072 L 123.785,-41.8906 L 124.203,-41.8869 L 124.611,-41.7964 L 124.992,-41.623
 L 125.328,-41.3743 L 125.605,-41.0612 L 125.811,-40.6973 L 125.937,-40.2985 L 125.977,-39.8823 L 125.929,-39.4669
 L 125.797,-39.0704 L 125.585,-38.7101 L 125.302,-38.4019 L 124.962,-38.1591 L 124.578,-37.9924 L 124.169,-37.909
 z
M 96.5803,-47.7442 L 114.249,-49.4455 L 115.854,-32.7726 L 98.1857,-31.0714 z
M 106.815,-37.3187 L 107.413,-37.5072 L 107.959,-37.8161 L 108.429,-38.2317 L 108.802,-38.7358 L 109.062,-39.3065
 L 109.198,-39.9188 L 109.203,-40.546 L 109.078,-41.1605 L 108.828,-41.7357 L 108.464,-42.2463 L 108.002,-42.67
 L 107.461,-42.9883 L 106.866,-43.1873 L 106.243,-43.2583 L 105.619,-43.1982 L 105.021,-43.0096 L 104.475,-42.7008
 L 104.005,-42.2852 L 103.632,-41.781 L 103.372,-41.2103 L 103.236,-40.598 L 103.231,-39.9709 L 103.356,-39.3563
 L 103.606,-38.7812 L 103.97,-38.2706 L 104.433,-37.8469 L 104.973,-37.5285 L 105.568,-37.3295 L 106.191,-37.2585
 z
M 105.784,-38.3058 L 105.388,-38.4385 L 105.027,-38.6507 L 104.719,-38.9332 L 104.476,-39.2736 L 104.31,-39.657
 L 104.226,-40.0667 L 104.23,-40.4848 L 104.32,-40.893 L 104.494,-41.2735 L 104.743,-41.6096 L 105.056,-41.8867
 L 105.42,-42.0925 L 105.818,-42.2183 L 106.235,-42.2583 L 106.65,-42.211 L 107.047,-42.0783 L 107.407,-41.8661
 L 107.715,-41.5837 L 107.958,-41.2433 L 108.125,-40.8598 L 108.208,-40.4501 L 108.204,-40.032 L 108.114,-39.6238
 L 107.94,-39.2433 L 107.692,-38.9072 L 107.379,-38.6302 L 107.015,-38.4243 L 106.616,-38.2986 L 106.2,-38.2585
 z
M -115.854,-32.7726 L -114.249,-49.4455 L -96.5803,-47.7442 L -98.1857,-31.0714 z
M -105.568,-37.3295 L -104.973,-37.5285 L -104.433,-37.8469 L -103.97,-38.2706 L -103.606,-38.7812 L -103.356,-39.3563
 L -103.231,-39.9709 L -103.236,-40.598 L -103.372,-41.2103 L -103.632,-41.781 L -104.005,-42.2852 L -104.475,-42.7008
 L -105.021,-43.0096 L -105.619,-43.1982 L -106.243,-43.2583 L -106.866,-43.1873 L -107.461,-42.9883 L -108.002,-42.67
 L -108.464,-42.2463 L -108.828,-41.7357 L -109.078,-41.1605 L -109.203,-40.546 L -109.198,-39.9188 L -109.062,-39.3065
 L -108.802,-38.7358 L -108.429,-38.2317 L -107.959,-37.8161 L -107.413,-37.5072 L -106.815,-37.3187 L -106.191,-37.2585
 z
M -106.616,-38.2986 L -107.015,-38.4243 L -107.379,-38.6302 L -107.692,-38.9072 L -107.94,-39.2433 L -108.114,-39.6238
 L -108.204,-40.032 L -108.208,-40.4501 L -108.125,-40.8598 L -107.958,-41.2433 L -107.715,-41.5837 L -107.407,-41.8661
 L -107.047,-42.0783 L -106.65,-42.211 L -106.235,-42.2583 L -105.818,-42.2183 L -105.42,-42.0925 L -105.056,-41.8867
 L -104.743,-41.6096 L -104.494,-41.2735 L -104.32,-40.893 L -104.23,-40.4848 L -104.226,-40.0667 L -104.31,-39.657
 L -104.476,-39.2736 L -104.719,-38.9332 L -105.027,-38.6507 L -105.388,-38.4385 L -105.784,-38.3058 L -106.2,-38.2585
 z
M -96.253,-31.009 L -94.4295,-47.6594 L -76.785,-45.727 L -78.6085,-29.0766 z
M -85.9081,-35.4309 L -85.3108,-35.6221 L -84.7663,-35.9333 L -84.2984,-36.3509 L -83.9275,-36.8567 L -83.6699,-37.4285
 L -83.5368,-38.0414 L -83.5341,-38.6686 L -83.6618,-39.2826 L -83.9144,-39.8567 L -84.2808,-40.3656 L -84.7451,-40.7873
 L -85.2868,-41.1033 L -85.8825,-41.2997 L -86.5059,-41.368 L -87.1299,-41.3051 L -87.7272,-41.1139 L -88.2717,-40.8027
 L -88.7397,-40.3851 L -89.1105,-39.8793 L -89.3681,-39.3075 L -89.5012,-38.6946 L -89.5039,-38.0674 L -89.3762,-37.4534
 L -89.1236,-36.8794 L -88.7572,-36.3704 L -88.2929,-35.9487 L -87.7512,-35.6327 L -87.1555,-35.4363 L -86.5321,-35.3681
 z
M -86.9434,-36.4135 L -87.3404,-36.5445 L -87.7016,-36.7551 L -88.0111,-37.0362 L -88.2554,-37.3756 L -88.4238,-37.7583
 L -88.5089,-38.1676 L -88.5071,-38.5857 L -88.4184,-38.9943 L -88.2467,-39.3755 L -87.9994,-39.7127 L -87.6875,-39.9911
 L -87.3245,-40.1986 L -86.9263,-40.3261 L -86.5103,-40.368 L -86.0947,-40.3225 L -85.6976,-40.1915 L -85.3364,-39.9809
 L -85.0269,-39.6998 L -84.7826,-39.3604 L -84.6142,-38.9777 L -84.5291,-38.5684 L -84.5309,-38.1503 L -84.6196,-37.7417
 L -84.7913,-37.3605 L -85.0386,-37.0233 L -85.3505,-36.7449 L -85.7135,-36.5374 L -86.1117,-36.4099 L -86.5277,-36.368
 z
M 76.785,-45.727 L 94.4295,-47.6594 L 96.253,-31.009 L 78.6085,-29.0766 z
M 87.1555,-35.4363 L 87.7512,-35.6327 L 88.2929,-35.9487 L 88.7572,-36.3704 L 89.1236,-36.8794 L 89.3762,-37.4534
 L 89.5039,-38.0674 L 89.5012,-38.6946 L 89.3681,-39.3075 L 89.1105,-39.8793 L 88.7397,-40.3851 L 88.2717,-40.8027
 L 87.7272,-41.1139 L 87.1299,-41.3051 L 86.5059,-41.368 L 85.8825,-41.2997 L 85.2868,-41.1033 L 84.7451,-40.7873
 L 84.2808,-40.3656 L 83.9144,-39.8567 L 83.6618,-39.2826 L 83.5341,-38.6686 L 83.5368,-38.0414 L 83.6699,-37.4285
 L 83.9275,-36.8567 L 84.2984,-36.3509 L 84.7663,-35.9333 L 85.3108,-35.6221 L 85.9081,-35.4309 L 86.5321,-35.3681
 z
M 86.1117,-36.4099 L 85.7135,-36.5374 L 85.3505,-36.7449 L 85.0386,-37.0233 L 84.7913,-37.3605 L 84.6196,-37.7417
 L 84.5309,-38.1503 L 84.5291,-38.5684 L 84.6142,-38.9777 L 84.7826,-39.3604 L 85.0269,-39.6998 L 85.3364,-39.9809
 L 85.6976,-40.1915 L 86.0947,-40.3225 L 86.5103,-40.368 L 86.9263,-40.3261 L 87.3245,-40.1986 L 87.6875,-39.9911
 L 87.9994,-39.7127 L 88.2467,-39.3755 L 88.4184,-38.9943 L 88.5071,-38.5857 L 88.5089,-38.1676 L 88.4238,-37.7583
 L 88.2554,-37.3756 L 88.0111,-37.0362 L 87.7016,-36.7551 L 87.3404,-36.5445 L 86.9434,-36.4135 L 86.5277,-36.368
 z
M 57.6372,-43.2626 L 75.2549,-45.4258 L 77.2962,-28.8006 L 59.6785,-26.6375 z
M 68.1415,-33.1085 L 68.7345,-33.3127 L 69.2721,-33.6357 L 69.7308,-34.0634 L 70.0905,-34.5772 L 70.3356,-35.1545
 L 70.4552,-35.7701 L 70.4443,-36.3972 L 70.3032,-37.0083 L 70.0382,-37.5767 L 69.6607,-38.0776 L 69.1874,-38.4891
 L 68.6389,-38.7931 L 68.0391,-38.9765 L 67.4143,-39.0311 L 66.7918,-38.9547 L 66.1988,-38.7505 L 65.6612,-38.4275
 L 65.2026,-37.9998 L 64.8428,-37.486 L 64.5978,-36.9087 L 64.4781,-36.2931 L 64.489,-35.666 L 64.6301,-35.0549
 L 64.8952,-34.4865 L 65.2726,-33.9856 L 65.746,-33.5742 L 66.2945,-33.2701 L 66.8943,-33.0867 L 67.519,-33.0321
 z
M 67.0851,-34.0684 L 66.6852,-34.1906 L 66.3195,-34.3933 L 66.004,-34.6676 L 65.7523,-35.0015 L 65.5756,-35.3805
 L 65.4816,-35.7879 L 65.4743,-36.2059 L 65.5541,-36.6163 L 65.7174,-37.0012 L 65.9573,-37.3437 L 66.263,-37.6289
 L 66.6214,-37.8442 L 67.0168,-37.9803 L 67.4318,-38.0313 L 67.8483,-37.9949 L 68.2481,-37.8726 L 68.6138,-37.6699
 L 68.9294,-37.3956 L 69.181,-37.0617 L 69.3577,-36.6828 L 69.4518,-36.2753 L 69.4591,-35.8573 L 69.3793,-35.4469
 L 69.2159,-35.062 L 68.9761,-34.7195 L 68.6703,-34.4343 L 68.3119,-34.219 L 67.9166,-34.0829 L 67.5016,-34.0319
 z
M -77.2962,-28.8006 L -75.2549,-45.4258 L -57.6372,-43.2626 L -59.6785,-26.6375 z
M -66.8943,-33.0867 L -66.2945,-33.2701 L -65.746,-33.5742 L -65.2726,-33.9856 L -64.8952,-34.4865 L -64.6301,-35.0549
 L -64.489,-35.666 L -64.4781,-36.2931 L -64.5978,-36.9087 L -64.8428,-37.486 L -65.2026,-37.9998 L -65.6612,-38.4275
 L -66.1988,-38.7505 L -66.7918,-38.9547 L -67.4143,-39.0311 L -68.0391,-38.9765 L -68.6389,-38.7931 L -69.1874,-38.4891
 L -69.6607,-38.0776 L -70.0382,-37.5767 L -70.3032,-37.0083 L -70.4443,-36.3972 L -70.4552,-35.7701 L -70.3356,-35.1545
 L -70.0905,-34.5772 L -69.7308,-34.0634 L -69.2721,-33.6357 L -68.7345,-33.3127 L -68.1415,-33.1085 L -67.519,-33.0321
 z
M -67.9166,-34.0829 L -68.3119,-34.219 L -68.6703,-34.4343 L -68.9761,-34.7195 L -69.2159,-35.062 L -69.3793,-35.4469
 L -69.4591,-35.8573 L -69.4518,-36.2753 L -69.3577,-36.6828 L -69.181,-37.0617 L -68.9294,-37.3956 L -68.6138,-37.6699
 L -68.2481,-37.8726 L -67.8483,-37.9949 L -67.4318,-38.0313 L -67.0168,-37.9803 L -66.6214,-37.8442 L -66.263,-37.6289
 L -65.9573,-37.3437 L -65.7174,-37.0012 L -65.5541,-36.6163 L -65.4743,-36.2059 L -65.4816,-35.7879 L -65.5756,-35.3805
 L -65.7523,-35.0015 L -66.004,-34.6676 L -66.3195,-34.3933 L -66.6852,-34.1906 L -67.0851,-34.0684 L -67.5016,-34.0319
 z
M -58.7045,-26.403 L -56.881,-43.0534 L -39.2365,-41.121 L -41.06,-24.4706 z
M -48.3596,-30.8248 L -47.7622,-31.0161 L -47.2177,-31.3273 L -46.7498,-31.7449 L -46.379,-32.2507 L -46.1214,-32.8225
 L -45.9883,-33.4354 L -45.9856,-34.0625 L -46.1133,-34.6766 L -46.3659,-35.2506 L -46.7323,-35.7596 L -47.1965,-36.1813
 L -47.7383,-36.4973 L -48.334,-36.6937 L -48.9574,-36.7619 L -49.5814,-36.6991 L -50.1787,-36.5079 L -50.7232,-36.1967
 L -51.1911,-35.7791 L -51.562,-35.2733 L -51.8196,-34.7015 L -51.9527,-34.0886 L -51.9554,-33.4614 L -51.8277,-32.8474
 L -51.5751,-32.2733 L -51.2086,-31.7643 L -50.7444,-31.3427 L -50.2026,-31.0267 L -49.607,-30.8303 L -48.9836,-30.762
 z
M -49.3948,-31.8075 L -49.7919,-31.9385 L -50.1531,-32.1491 L -50.4626,-32.4302 L -50.7069,-32.7695 L -50.8753,-33.1523
 L -50.9604,-33.5616 L -50.9586,-33.9797 L -50.8699,-34.3883 L -50.6982,-34.7695 L -50.4509,-35.1067 L -50.139,-35.3851
 L -49.776,-35.5926 L -49.3778,-35.7201 L -48.9617,-35.762 L -48.5461,-35.7164 L -48.149,-35.5855 L -47.7879,-35.3749
 L -47.4784,-35.0938 L -47.2341,-34.7544 L -47.0657,-34.3717 L -46.9805,-33.9624 L -46.9824,-33.5443 L -47.0711,-33.1357
 L -47.2428,-32.7544 L -47.4901,-32.4173 L -47.802,-32.1388 L -48.165,-31.9314 L -48.5632,-31.8039 L -48.9792,-31.762
 z
M 39.2365,-41.121 L 56.881,-43.0534 L 58.7045,-26.403 L 41.06,-24.4706 z
M 49.607,-30.8303 L 50.2026,-31.0267 L 50.7444,-31.3427 L 51.2086,-31.7643 L 51.5751,-32.2733 L 51.8277,-32.8474
 L 51.9554,-33.4614 L 51.9527,-34.0886 L 51.8196,-34.7015 L 51.562,-35.2733 L 51.1911,-35.7791 L 50.7232,-36.1967
 L 50.1787,-36.5079 L 49.5814,-36.6991 L 48.9574,-36.7619 L 48.334,-36.6937 L 47.7383,-36.4973 L 47.1965,-36.1813
 L 46.7323,-35.7596 L 46.3659,-35.2506 L 46.1133,-34.6766 L 45.9856,-34.0625 L 45.9883,-33.4354 L 46.1214,-32.8225
 L 46.379,-32.2507 L 46.7498,-31.7449 L 47.2177,-31.3273 L 47.7622,-31.0161 L 48.3596,-30.8248 L 48.9836,-30.762
 z
M 48.5632,-31.8039 L 48.165,-31.9314 L 47.802,-32.1388 L 47.4901,-32.4173 L 47.2428,-32.7544 L 47.0711,-33.1357
 L 46.9824,-33.5443 L 46.9805,-33.9624 L 47.0657,-34.3717 L 47.2341,-34.7544 L 47.4784,-35.0938 L 47.7879,-35.3749
 L 48.149,-35.5855 L 48.5461,-35.7164 L 48.9617,-35.762 L 49.3778,-35.7201 L 49.776,-35.5926 L 50.139,-35.3851
 L 50.4509,-35.1067 L 50.6982,-34.7695 L 50.8699,-34.3883 L 50.9586,-33.9797 L 50.9604,-33.5616 L 50.8753,-33.1523
 L 50.7069,-32.7695 L 50.4626,-32.4302 L 50.1531,-32.1491 L 49.7919,-31.9385 L 49.3948,-31.8075 L 48.9792,-31.762
 z
M 20.9006,-39.9917 L 38.5689,-41.693 L 40.1743,-25.0201 L 22.506,-23.3188 z
M 31.1356,-29.5661 L 31.7337,-29.7547 L 32.2796,-30.0636 L 32.7493,-30.4791 L 33.1223,-30.9833 L 33.3824,-31.554
 L 33.5182,-32.1663 L 33.5236,-32.7934 L 33.3986,-33.408 L 33.1485,-33.9831 L 32.7843,-34.4937 L 32.3219,-34.9174
 L 31.7815,-35.2358 L 31.1868,-35.4348 L 30.5636,-35.5058 L 29.9393,-35.4456 L 29.3412,-35.2571 L 28.7953,-34.9482
 L 28.3256,-34.5327 L 27.9526,-34.0285 L 27.6925,-33.4578 L 27.5567,-32.8455 L 27.5513,-32.2184 L 27.6763,-31.6038
 L 27.9264,-31.0286 L 28.2906,-30.518 L 28.753,-30.0943 L 29.2934,-29.776 L 29.8881,-29.577 L 30.5113,-29.506
 z
M 30.1046,-30.5533 L 29.7081,-30.686 L 29.3478,-30.8982 L 29.0395,-31.1806 L 28.7967,-31.521 L 28.63,-31.9045
 L 28.5467,-32.3142 L 28.5503,-32.7323 L 28.6408,-33.1405 L 28.8142,-33.521 L 29.0629,-33.8571 L 29.3761,-34.1341
 L 29.74,-34.34 L 30.1387,-34.4657 L 30.5549,-34.5058 L 30.9703,-34.4585 L 31.3668,-34.3258 L 31.7271,-34.1136
 L 32.0354,-33.8311 L 32.2782,-33.4907 L 32.4449,-33.1073 L 32.5282,-32.6976 L 32.5246,-32.2795 L 32.4341,-31.8713
 L 32.2607,-31.4908 L 32.012,-31.1547 L 31.6989,-30.8777 L 31.3349,-30.6718 L 30.9362,-30.546 L 30.52,-30.506
 z
M -40.1743,-25.0201 L -38.5689,-41.693 L -20.9006,-39.9917 L -22.506,-23.3188 z
M -29.8881,-29.577 L -29.2934,-29.776 L -28.753,-30.0943 L -28.2906,-30.518 L -27.9264,-31.0286 L -27.6763,-31.6038
 L -27.5513,-32.2184 L -27.5567,-32.8455 L -27.6925,-33.4578 L -27.9526,-34.0285 L -28.3256,-34.5327 L -28.7953,-34.9482
 L -29.3412,-35.2571 L -29.9393,-35.4456 L -30.5636,-35.5058 L -31.1868,-35.4348 L -31.7815,-35.2358 L -32.3219,-34.9174
 L -32.7843,-34.4937 L -33.1485,-33.9831 L -33.3986,-33.408 L -33.5236,-32.7934 L -33.5182,-32.1663 L -33.3824,-31.554
 L -33.1223,-30.9833 L -32.7493,-30.4791 L -32.2796,-30.0636 L -31.7337,-29.7547 L -31.1356,-29.5661 L -30.5113,-29.506
 z
M -30.9362,-30.546 L -31.3349,-30.6718 L -31.6989,-30.8777 L -32.012,-31.1547 L -32.2607,-31.4908 L -32.4341,-31.8713
 L -32.5246,-32.2795 L -32.5282,-32.6976 L -32.4449,-33.1073 L -32.2782,-33.4907 L -32.0354,-33.8311 L -31.7271,-34.1136
 L -31.3668,-34.3258 L -30.9703,-34.4585 L -30.5549,-34.5058 L -30.1387,-34.4657 L -29.74,-34.34 L -29.3761,-34.1341
 L -29.0629,-33.8571 L -28.8142,-33.521 L -28.6408,-33.1405 L -28.5503,-32.7323 L -28.5467,-32.3142 L -28.63,-31.9045
 L -28.7967,-31.521 L -29.0395,-31.1806 L -29.3478,-30.8982 L -29.7081,-30.686 L -30.1046,-30.5533 L -30.52,-30.506
 z
M 2.67097,-39.8299 L 20.4136,-40.341 L 20.8959,-23.5979 L 3.15327,-23.0869 z
M 12.1828,-28.7406 L 12.7923,-28.8886 L 13.3576,-29.1601 L 13.8542,-29.5432 L 14.2603,-30.0212 L 14.5581,-30.5732
 L 14.7346,-31.1749 L 14.7822,-31.8003 L 14.6987,-32.4219 L 14.4878,-33.0125 L 14.1587,-33.5464 L 13.7258,-34.0002
 L 13.208,-34.3541 L 12.628,-34.5926 L 12.011,-34.7053 L 11.3841,-34.6872 L 10.7746,-34.5392 L 10.2093,-34.2677
 L 9.71269,-33.8846 L 9.30663,-33.4067 L 9.00882,-32.8547 L 8.83226,-32.2529 L 8.78468,-31.6275 L 8.86819,-31.006
 L 9.07909,-30.4153 L 9.40817,-29.8814 L 9.84108,-29.4276 L 10.3589,-29.0737 L 10.9389,-28.8353 L 11.5559,-28.7226
 z
M 11.2204,-29.7948 L 10.8337,-29.9538 L 10.4885,-30.1897 L 10.1999,-30.4923 L 9.98053,-30.8482 L 9.83994,-31.2419
 L 9.78427,-31.6563 L 9.81598,-32.0733 L 9.93369,-32.4745 L 10.1322,-32.8424 L 10.4029,-33.1611 L 10.734,-33.4165
 L 11.1109,-33.5975 L 11.5172,-33.6961 L 11.9351,-33.7082 L 12.3465,-33.6331 L 12.7332,-33.4741 L 13.0784,-33.2381
 L 13.367,-32.9356 L 13.5863,-32.5797 L 13.727,-32.1859 L 13.7826,-31.7715 L 13.7509,-31.3546 L 13.6332,-30.9534
 L 13.4347,-30.5854 L 13.1639,-30.2668 L 12.8329,-30.0114 L 12.456,-29.8304 L 12.0497,-29.7317 L 11.6317,-29.7197
 z
M -20.8959,-23.5979 L -20.4136,-40.341 L -2.67097,-39.8299 L -3.15327,-23.0869 z
M -10.9389,-28.8353 L -10.3589,-29.0737 L -9.84108,-29.4276 L -9.40817,-29.8814 L -9.07909,-30.4153 L -8.86819,-31.006
 L -8.78468,-31.6275 L -8.83226,-32.2529 L -9.00882,-32.8547 L -9.30663,-33.4067 L -9.71269,-33.8846 L -10.2093,-34.2677
 L -10.7746,-34.5392 L -11.3841,-34.6872 L -12.011,-34.7053 L -12.628,-34.5926 L -13.208,-34.3541 L -13.7258,-34.0002
 L -14.1587,-33.5464 L -14.4878,-33.0125 L -14.6987,-32.4219 L -14.7822,-31.8003 L -14.7346,-31.1749 L -14.5581,-30.5732
 L -14.2603,-30.0212 L -13.8542,-29.5432 L -13.3576,-29.1601 L -12.7923,-28.8886 L -12.1828,-28.7406 L -11.5559,-28.7226
 z
M -12.0497,-29.7317 L -12.456,-29.8304 L -12.8329,-30.0114 L -13.1639,-30.2668 L -13.4347,-30.5854 L -13.6332,-30.9534
 L -13.7509,-31.3546 L -13.7826,-31.7715 L -13.727,-32.1859 L -13.5863,-32.5797 L -13.367,-32.9356 L -13.0784,-33.2381
 L -12.7332,-33.4741 L -12.3465,-33.6331 L -11.9351,-33.7082 L -11.5172,-33.6961 L -11.1109,-33.5975 L -10.734,-33.4165
 L -10.4029,-33.1611 L -10.1322,-32.8424 L -9.93369,-32.4745 L -9.81598,-32.0733 L -9.78427,-31.6563 L -9.83994,-31.2419
 L -9.98053,-30.8482 L -10.1999,-30.4923 L -10.4885,-30.1897 L -10.8337,-29.9538 L -11.2204,-29.7948 L -11.6317,-29.7197
 z
M 98.2096,-30.8225 L 115.878,-32.5238 L 117.483,-15.8509 L 99.8151,-14.1496 z
M 108.445,-20.3969 L 109.043,-20.5855 L 109.589,-20.8943 L 110.058,-21.3099 L 110.431,-21.8141 L 110.691,-22.3848
 L 110.827,-22.9971 L 110.833,-23.6242 L 110.708,-24.2388 L 110.458,-24.8139 L 110.093,-25.3245 L 109.631,-25.7483
 L 109.091,-26.0666 L 108.496,-26.2656 L 107.873,-26.3366 L 107.248,-26.2764 L 106.65,-26.0879 L 106.104,-25.779
 L 105.635,-25.3634 L 105.262,-24.8593 L 105.002,-24.2886 L 104.866,-23.6763 L 104.86,-23.0491 L 104.985,-22.4346
 L 105.235,-21.8594 L 105.6,-21.3488 L 106.062,-20.9251 L 106.602,-20.6068 L 107.197,-20.4078 L 107.82,-20.3368
 z
M 107.414,-21.3841 L 107.017,-21.5168 L 106.657,-21.729 L 106.349,-22.0114 L 106.106,-22.3518 L 105.939,-22.7353
 L 105.856,-23.145 L 105.859,-23.5631 L 105.95,-23.9713 L 106.123,-24.3518 L 106.372,-24.6879 L 106.685,-24.9649
 L 107.049,-25.1708 L 107.448,-25.2965 L 107.864,-25.3366 L 108.279,-25.2893 L 108.676,-25.1566 L 109.036,-24.9444
 L 109.344,-24.6619 L 109.587,-24.3215 L 109.754,-23.9381 L 109.837,-23.5284 L 109.834,-23.1103 L 109.743,-22.7021
 L 109.57,-22.3216 L 109.321,-21.9855 L 109.008,-21.7085 L 108.644,-21.5026 L 108.245,-21.3768 L 107.829,-21.3368
 z
M -117.483,-15.8509 L -115.878,-32.5238 L -98.2096,-30.8225 L -99.8151,-14.1496 z
M -107.197,-20.4078 L -106.602,-20.6068 L -106.062,-20.9251 L -105.6,-21.3488 L -105.235,-21.8594 L -104.985,-22.4346
 L -104.86,-23.0491 L -104.866,-23.6763 L -105.002,-24.2886 L -105.262,-24.8593 L -105.635,-25.3634 L -106.104,-25.779
 L -106.65,-26.0879 L -107.248,-26.2764 L -107.873,-26.3366 L -108.496,-26.2656 L -109.091,-26.0666 L -109.631,-25.7483
 L -110.093,-25.3245 L -110.458,-24.8139 L -110.708,-24.2388 L -110.833,-23.6242 L -110.827,-22.9971 L -110.691,-22.3848
 L -110.431,-21.8141 L -110.058,-21.3099 L -109.589,-20.8943 L -109.043,-20.5855 L -108.445,-20.3969 L -107.82,-20.3368
 z
M -108.245,-21.3768 L -108.644,-21.5026 L -109.008,-21.7085 L -109.321,-21.9855 L -109.57,-22.3216 L -109.743,-22.7021
 L -109.834,-23.1103 L -109.837,-23.5284 L -109.754,-23.9381 L -109.587,-24.3215 L -109.344,-24.6619 L -109.036,-24.9444
 L -108.676,-25.1566 L -108.279,-25.2893 L -107.864,-25.3366 L -107.448,-25.2965 L -107.049,-25.1708 L -106.685,-24.9649
 L -106.372,-24.6879 L -106.123,-24.3518 L -105.95,-23.9713 L -105.859,-23.5631 L -105.856,-23.145 L -105.939,-22.7353
 L -106.106,-22.3518 L -106.349,-22.0114 L -106.657,-21.729 L -107.017,-21.5168 L -107.414,-21.3841 L -107.829,-21.3368
 z
M -98.1037,-14.11 L -96.2802,-30.7605 L -78.6357,-28.8281 L -80.4592,-12.1776 z
M -87.7588,-18.5319 L -87.1615,-18.7231 L -86.617,-19.0343 L -86.1491,-19.452 L -85.7782,-19.9577 L -85.5206,-20.5296
 L -85.3876,-21.1425 L -85.3848,-21.7696 L -85.5126,-22.3836 L -85.7651,-22.9577 L -86.1316,-23.4667 L -86.5958,-23.8884
 L -87.1376,-24.2043 L -87.7332,-24.4007 L -88.3566,-24.469 L -88.9807,-24.4062 L -89.578,-24.215 L -90.1225,-23.9038
 L -90.5904,-23.4861 L -90.9612,-22.9804 L -91.2188,-22.4085 L -91.3519,-21.7957 L -91.3546,-21.1685 L -91.2269,-20.5545
 L -90.9743,-19.9804 L -90.6079,-19.4714 L -90.1437,-19.0497 L -89.6019,-18.7338 L -89.0063,-18.5374 L -88.3828,-18.4691
 z
M -88.7941,-19.5146 L -89.1912,-19.6455 L -89.5524,-19.8562 L -89.8618,-20.1373 L -90.1061,-20.4766 L -90.2745,-20.8593
 L -90.3597,-21.2687 L -90.3578,-21.6868 L -90.2691,-22.0954 L -90.0974,-22.4766 L -89.8502,-22.8138 L -89.5382,-23.0922
 L -89.1752,-23.2997 L -88.777,-23.4271 L -88.361,-23.469 L -87.9454,-23.4235 L -87.5483,-23.2926 L -87.1871,-23.0819
 L -86.8776,-22.8008 L -86.6333,-22.4615 L -86.465,-22.0788 L -86.3798,-21.6694 L -86.3816,-21.2513 L -86.4703,-20.8427
 L -86.6421,-20.4615 L -86.8893,-20.1243 L -87.2012,-19.8459 L -87.5642,-19.6384 L -87.9624,-19.511 L -88.3785,-19.4691
 z
M 78.6357,-28.8281 L 96.2802,-30.7605 L 98.1037,-14.11 L 80.4592,-12.1776 z
M 89.0063,-18.5374 L 89.6019,-18.7338 L 90.1437,-19.0497 L 90.6079,-19.4714 L 90.9743,-19.9804 L 91.2269,-20.5545
 L 91.3546,-21.1685 L 91.3519,-21.7957 L 91.2188,-22.4085 L 90.9612,-22.9804 L 90.5904,-23.4861 L 90.1225,-23.9038
 L 89.578,-24.215 L 88.9807,-24.4062 L 88.3566,-24.469 L 87.7332,-24.4007 L 87.1376,-24.2043 L 86.5958,-23.8884
 L 86.1316,-23.4667 L 85.7651,-22.9577 L 85.5126,-22.3836 L 85.3848,-21.7696 L 85.3876,-21.1425 L 85.5206,-20.5296
 L 85.7782,-19.9577 L 86.1491,-19.452 L 86.617,-19.0343 L 87.1615,-18.7231 L 87.7588,-18.5319 L 88.3828,-18.4691
 z
M 87.9624,-19.511 L 87.5642,-19.6384 L 87.2012,-19.8459 L 86.8893,-20.1243 L 86.6421,-20.4615 L 86.4703,-20.8427
 L 86.3816,-21.2513 L 86.3798,-21.6694 L 86.465,-22.0788 L 86.6333,-22.4615 L 86.8776,-22.8008 L 87.1871,-23.0819
 L 87.5483,-23.2926 L 87.9454,-23.4235 L 88.361,-23.469 L 88.777,-23.4271 L 89.1752,-23.2997 L 89.5382,-23.0922
 L 89.8502,-22.8138 L 90.0974,-22.4766 L 90.2691,-22.0954 L 90.3578,-21.6868 L 90.3597,-21.2687 L 90.2745,-20.8593
 L 90.1061,-20.4766 L 89.8618,-20.1373 L 89.5524,-19.8562 L 89.1912,-19.6455 L 88.7941,-19.5146 L 88.3785,-19.4691
 z
M 59.709,-26.3893 L 77.3266,-28.5525 L 79.368,-11.9273 L 61.7503,-9.76416 z
M 70.2133,-16.2352 L 70.8063,-16.4394 L 71.3439,-16.7624 L 71.8026,-17.1902 L 72.1623,-17.7039 L 72.4074,-18.2812
 L 72.527,-18.8969 L 72.5161,-19.5239 L 72.375,-20.135 L 72.11,-20.7034 L 71.7325,-21.2043 L 71.2592,-21.6158
 L 70.7106,-21.9198 L 70.1109,-22.1032 L 69.4861,-22.1579 L 68.8636,-22.0814 L 68.2706,-21.8772 L 67.733,-21.5542
 L 67.2743,-21.1265 L 66.9146,-20.6127 L 66.6695,-20.0354 L 66.5499,-19.4198 L 66.5608,-18.7927 L 66.7019,-18.1816
 L 66.9669,-17.6132 L 67.3444,-17.1123 L 67.8177,-16.7009 L 68.3663,-16.3968 L 68.966,-16.2135 L 69.5908,-16.1588
 z
M 69.1568,-17.1951 L 68.757,-17.3173 L 68.3913,-17.52 L 68.0757,-17.7943 L 67.8241,-18.1283 L 67.6474,-18.5072
 L 67.5534,-18.9146 L 67.5461,-19.3326 L 67.6258,-19.7431 L 67.7892,-20.1279 L 68.029,-20.4704 L 68.3348,-20.7556
 L 68.6932,-20.9709 L 69.0885,-21.1071 L 69.5036,-21.158 L 69.9201,-21.1216 L 70.3199,-20.9993 L 70.6856,-20.7966
 L 71.0012,-20.5223 L 71.2528,-20.1884 L 71.4295,-19.8095 L 71.5235,-19.4021 L 71.5308,-18.984 L 71.4511,-18.5736
 L 71.2877,-18.1887 L 71.0479,-17.8462 L 70.7421,-17.5611 L 70.3837,-17.3457 L 69.9884,-17.2096 L 69.5734,-17.1586
 z
M -79.368,-11.9273 L -77.3266,-28.5525 L -59.709,-26.3893 L -61.7503,-9.76416 z
M -68.966,-16.2135 L -68.3663,-16.3968 L -67.8177,-16.7009 L -67.3444,-17.1123 L -66.9669,-17.6132 L -66.7019,-18.1816
 L -66.5608,-18.7927 L -66.5499,-19.4198 L -66.6695,-20.0354 L -66.9146,-20.6127 L -67.2743,-21.1265 L -67.733,-21.5542
 L -68.2706,-21.8772 L -68.8636,-22.0814 L -69.4861,-22.1579 L -70.1109,-22.1032 L -70.7106,-21.9198 L -71.2592,-21.6158
 L -71.7325,-21.2043 L -72.11,-20.7034 L -72.375,-20.135 L -72.5161,-19.5239 L -72.527,-18.8969 L -72.4074,-18.2812
 L -72.1623,-17.7039 L -71.8026,-17.1902 L -71.3439,-16.7624 L -70.8063,-16.4394 L -70.2133,-16.2352 L -69.5908,-16.1588
 z
M -69.9884,-17.2096 L -70.3837,-17.3457 L -70.7421,-17.5611 L -71.0479,-17.8462 L -71.2877,-18.1887 L -71.4511,-18.5736
 L -71.5308,-18.984 L -71.5235,-19.4021 L -71.4295,-19.8095 L -71.2528,-20.1884 L -71.0012,-20.5223 L -70.6856,-20.7966
 L -70.3199,-20.9993 L -69.9201,-21.1216 L -69.5036,-21.158 L -69.0885,-21.1071 L -68.6932,-20.9709 L -68.3348,-20.7556
 L -68.029,-20.4704 L -67.7892,-20.1279 L -67.6258,-19.7431 L -67.5461,-19.3326 L -67.5534,-18.9146 L -67.6474,-18.5072
 L -67.8241,-18.1283 L -68.0757,-17.7943 L -68.3913,-17.52 L -68.757,-17.3173 L -69.1568,-17.1951 L -69.5734,-17.1586
 z
M 41.0872,-24.222 L 58.7317,-26.1544 L 60.5552,-9.504 L 42.9107,-7.57161 z
M 51.4577,-13.9314 L 52.0534,-14.1277 L 52.5951,-14.4437 L 53.0594,-14.8654 L 53.4258,-15.3744 L 53.6784,-15.9484
 L 53.8061,-16.5625 L 53.8034,-17.1896 L 53.6703,-17.8025 L 53.4127,-18.3743 L 53.0419,-18.8801 L 52.574,-19.2977
 L 52.0295,-19.6089 L 51.4321,-19.8002 L 50.8081,-19.863 L 50.1847,-19.7947 L 49.5891,-19.5983 L 49.0473,-19.2823
 L 48.5831,-18.8607 L 48.2166,-18.3517 L 47.964,-17.7776 L 47.8363,-17.1636 L 47.8391,-16.5364 L 47.9721,-15.9235
 L 48.2297,-15.3517 L 48.6006,-14.8459 L 49.0685,-14.4283 L 49.613,-14.1171 L 50.2103,-13.9259 L 50.8343,-13.8631
 z
M 50.4139,-14.9049 L 50.0157,-15.0324 L 49.6527,-15.2399 L 49.3408,-15.5183 L 49.0936,-15.8555 L 48.9218,-16.2367
 L 48.8331,-16.6453 L 48.8313,-17.0634 L 48.9164,-17.4727 L 49.0848,-17.8555 L 49.3291,-18.1948 L 49.6386,-18.4759
 L 49.9998,-18.6866 L 50.3969,-18.8175 L 50.8125,-18.863 L 51.2285,-18.8211 L 51.6267,-18.6936 L 51.9897,-18.4862
 L 52.3017,-18.2078 L 52.5489,-17.8706 L 52.7206,-17.4893 L 52.8093,-17.0808 L 52.8112,-16.6626 L 52.726,-16.2533
 L 52.5576,-15.8706 L 52.3133,-15.5313 L 52.0038,-15.2501 L 51.6427,-15.0395 L 51.2456,-14.9086 L 50.8299,-14.863
 z
M -60.5552,-9.504 L -58.7317,-26.1544 L -41.0872,-24.222 L -42.9107,-7.57161 z
M -50.2103,-13.9259 L -49.613,-14.1171 L -49.0685,-14.4283 L -48.6006,-14.8459 L -48.2297,-15.3517 L -47.9721,-15.9235
 L -47.8391,-16.5364 L -47.8363,-17.1636 L -47.964,-17.7776 L -48.2166,-18.3517 L -48.5831,-18.8607 L -49.0473,-19.2823
 L -49.5891,-19.5983 L -50.1847,-19.7947 L -50.8081,-19.863 L -51.4321,-19.8002 L -52.0295,-19.6089 L -52.574,-19.2977
 L -53.0419,-18.8801 L -53.4127,-18.3743 L -53.6703,-17.8025 L -53.8034,-17.1896 L -53.8061,-16.5625 L -53.6784,-15.9484
 L -53.4258,-15.3744 L -53.0594,-14.8654 L -52.5951,-14.4437 L -52.0534,-14.1277 L -51.4577,-13.9314 L -50.8343,-13.8631
 z
M -51.2456,-14.9086 L -51.6427,-15.0395 L -52.0038,-15.2501 L -52.3133,-15.5313 L -52.5576,-15.8706 L -52.726,-16.2533
 L -52.8112,-16.6626 L -52.8093,-17.0808 L -52.7206,-17.4893 L -52.5489,-17.8706 L -52.3017,-18.2078 L -51.9897,-18.4862
 L -51.6267,-18.6936 L -51.2285,-18.8211 L -50.8125,-18.863 L -50.3969,-18.8175 L -49.9998,-18.6866 L -49.6386,-18.4759
 L -49.3291,-18.1948 L -49.0848,-17.8555 L -48.9164,-17.4727 L -48.8313,-17.0634 L -48.8331,-16.6453 L -48.9218,-16.2367
 L -49.0936,-15.8555 L -49.3408,-15.5183 L -49.6527,-15.2399 L -50.0157,-15.0324 L -50.4139,-14.9049 L -50.8299,-14.863
 z
M 22.53,-23.07 L 40.1983,-24.7712 L 41.8037,-8.09834 L 24.1354,-6.39708 z
M 32.7649,-12.6444 L 33.3631,-12.833 L 33.9089,-13.1418 L 34.3787,-13.5574 L 34.7517,-14.0615 L 35.0118,-14.6322
 L 35.1475,-15.2445 L 35.153,-15.8717 L 35.028,-16.4863 L 34.7779,-17.0614 L 34.4137,-17.572 L 33.9513,-17.9957
 L 33.4109,-18.314 L 32.8161,-18.513 L 32.193,-18.584 L 31.5687,-18.5239 L 30.9706,-18.3353 L 30.4247,-18.0265
 L 29.955,-17.6109 L 29.5819,-17.1068 L 29.3219,-16.5361 L 29.1861,-15.9238 L 29.1806,-15.2966 L 29.3057,-14.682
 L 29.5558,-14.1069 L 29.92,-13.5963 L 30.3824,-13.1726 L 30.9227,-12.8543 L 31.5175,-12.6553 L 32.1407,-12.5843
 z
M 31.7339,-13.6316 L 31.3374,-13.7642 L 30.9772,-13.9764 L 30.6689,-14.2589 L 30.4261,-14.5993 L 30.2594,-14.9827
 L 30.176,-15.3925 L 30.1797,-15.8106 L 30.2702,-16.2188 L 30.4436,-16.5992 L 30.6923,-16.9353 L 31.0054,-17.2124
 L 31.3693,-17.4183 L 31.7681,-17.544 L 32.1843,-17.5841 L 32.5997,-17.5367 L 32.9962,-17.4041 L 33.3565,-17.1919
 L 33.6647,-16.9094 L 33.9075,-16.569 L 34.0743,-16.1856 L 34.1576,-15.7758 L 34.154,-15.3577 L 34.0635,-14.9495
 L 33.8901,-14.5691 L 33.6414,-14.233 L 33.3282,-13.9559 L 32.9643,-13.75 L 32.5656,-13.6243 L 32.1494,-13.5842
 z
M -41.8037,-8.09834 L -40.1983,-24.7712 L -22.53,-23.07 L -24.1354,-6.39708 z
M -31.5175,-12.6553 L -30.9227,-12.8543 L -30.3824,-13.1726 L -29.92,-13.5963 L -29.5558,-14.1069 L -29.3057,-14.682
 L -29.1806,-15.2966 L -29.1861,-15.9238 L -29.3219,-16.5361 L -29.5819,-17.1068 L -29.955,-17.6109 L -30.4247,-18.0265
 L -30.9706,-18.3353 L -31.5687,-18.5239 L -32.193,-18.584 L -32.8161,-18.513 L -33.4109,-18.314 L -33.9513,-17.9957
 L -34.4137,-17.572 L -34.7779,-17.0614 L -35.028,-16.4863 L -35.153,-15.8717 L -35.1475,-15.2445 L -35.0118,-14.6322
 L -34.7517,-14.0615 L -34.3787,-13.5574 L -33.9089,-13.1418 L -33.3631,-12.833 L -32.7649,-12.6444 L -32.1407,-12.5843
 z
M -32.5656,-13.6243 L -32.9643,-13.75 L -33.3282,-13.9559 L -33.6414,-14.233 L -33.8901,-14.5691 L -34.0635,-14.9495
 L -34.154,-15.3577 L -34.1576,-15.7758 L -34.0743,-16.1856 L -33.9075,-16.569 L -33.6647,-16.9094 L -33.3565,-17.1919
 L -32.9962,-17.4041 L -32.5997,-17.5367 L -32.1843,-17.5841 L -31.7681,-17.544 L -31.3693,-17.4183 L -31.0054,-17.2124
 L -30.6923,-16.9353 L -30.4436,-16.5992 L -30.2702,-16.2188 L -30.1797,-15.8106 L -30.176,-15.3925 L -30.2594,-14.9827
 L -30.4261,-14.5993 L -30.6689,-14.2589 L -30.9772,-13.9764 L -31.3374,-13.7642 L -31.7339,-13.6316 L -32.1494,-13.5842
 z
M 4.30035,-22.9082 L 22.043,-23.4193 L 22.5253,-6.67621 L 4.78265,-6.16512 z
M 13.8122,-11.8189 L 14.4216,-11.9669 L 14.987,-12.2384 L 15.4836,-12.6215 L 15.8896,-13.0995 L 16.1875,-13.6514
 L 16.364,-14.2532 L 16.4116,-14.8786 L 16.3281,-15.5002 L 16.1172,-16.0908 L 15.7881,-16.6247 L 15.3552,-17.0785
 L 14.8374,-17.4324 L 14.2573,-17.6709 L 13.6404,-17.7835 L 13.0135,-17.7655 L 12.404,-17.6175 L 11.8386,-17.346
 L 11.3421,-16.9629 L 10.936,-16.4849 L 10.6382,-15.933 L 10.4616,-15.3312 L 10.4141,-14.7058 L 10.4976,-14.0842
 L 10.7085,-13.4936 L 11.0376,-12.9597 L 11.4705,-12.5059 L 11.9883,-12.152 L 12.5683,-11.9135 L 13.1853,-11.8009
 z
M 12.8498,-12.8731 L 12.4631,-13.0321 L 12.1179,-13.268 L 11.8293,-13.5705 L 11.6099,-13.9265 L 11.4693,-14.3202
 L 11.4137,-14.7346 L 11.4454,-15.1515 L 11.5631,-15.5527 L 11.7616,-15.9207 L 12.0323,-16.2393 L 12.3634,-16.4947
 L 12.7403,-16.6757 L 13.1466,-16.7744 L 13.5645,-16.7864 L 13.9758,-16.7113 L 14.3625,-16.5523 L 14.7077,-16.3164
 L 14.9963,-16.0139 L 15.2157,-15.6579 L 15.3563,-15.2642 L 15.412,-14.8498 L 15.3803,-14.4329 L 15.2626,-14.0317
 L 15.064,-13.6637 L 14.7933,-13.3451 L 14.4623,-13.0897 L 14.0854,-12.9087 L 13.6791,-12.81 L 13.2611,-12.798
 z
M -22.5253,-6.67621 L -22.043,-23.4193 L -4.30035,-22.9082 L -4.78265,-6.16512 z
M -12.5683,-11.9135 L -11.9883,-12.152 L -11.4705,-12.5059 L -11.0376,-12.9597 L -10.7085,-13.4936 L -10.4976,-14.0842
 L -10.4141,-14.7058 L -10.4616,-15.3312 L -10.6382,-15.933 L -10.936,-16.4849 L -11.3421,-16.9629 L -11.8386,-17.346
 L -12.404,-17.6175 L -13.0135,-17.7655 L -13.6404,-17.7835 L -14.2573,-17.6709 L -14.8374,-17.4324 L -15.3552,-17.0785
 L -15.7881,-16.6247 L -16.1172,-16.0908 L -16.3281,-15.5002 L -16.4116,-14.8786 L -16.364,-14.2532 L -16.1875,-13.6514
 L -15.8896,-13.0995 L -15.4836,-12.6215 L -14.987,-12.2384 L -14.4216,-11.9669 L -13.8122,-11.8189 L -13.1853,-11.8009
 z
M -13.6791,-12.81 L -14.0854,-12.9087 L -14.4623,-13.0897 L -14.7933,-13.3451 L -15.064,-13.6637 L -15.2626,-14.0317
 L -15.3803,-14.4329 L -15.412,-14.8498 L -15.3563,-15.2642 L -15.2157,-15.6579 L -14.9963,-16.0139 L -14.7077,-16.3164
 L -14.3625,-16.5523 L -13.9758,-16.7113 L -13.5645,-16.7864 L -13.1466,-16.7744 L -12.7403,-16.6757 L -12.3634,-16.4947
 L -12.0323,-16.2393 L -11.7616,-15.9207 L -11.5631,-15.5527 L -11.4454,-15.1515 L -11.4137,-14.7346 L -11.4693,-14.3202
 L -11.6099,-13.9265 L -11.8293,-13.5705 L -12.1179,-13.268 L -12.4631,-13.0321 L -12.8498,-12.8731 L -13.2611,-12.798
 z
M -119.113,1.07085 L -117.507,-15.602 L -99.839,-13.9008 L -101.444,2.77211 z
M -108.827,-3.48607 L -108.232,-3.68507 L -107.691,-4.00339 L -107.229,-4.42709 L -106.865,-4.9377 L -106.615,-5.51283
 L -106.49,-6.12741 L -106.495,-6.75456 L -106.631,-7.36685 L -106.891,-7.93756 L -107.264,-8.44173 L -107.734,-8.85728
 L -108.28,-9.16612 L -108.878,-9.35471 L -109.502,-9.41483 L -110.125,-9.34384 L -110.72,-9.14482 L -111.26,-8.82652
 L -111.723,-8.4028 L -112.087,-7.89221 L -112.337,-7.31706 L -112.462,-6.70248 L -112.457,-6.07535 L -112.321,-5.46304
 L -112.061,-4.89233 L -111.688,-4.38818 L -111.218,-3.97261 L -110.672,-3.66377 L -110.074,-3.47519 L -109.45,-3.41508
 z
M -109.875,-4.45511 L -110.273,-4.58083 L -110.637,-4.78673 L -110.95,-5.06377 L -111.199,-5.39987 L -111.373,-5.78035
 L -111.463,-6.18855 L -111.467,-6.60664 L -111.383,-7.01636 L -111.217,-7.3998 L -110.974,-7.74019 L -110.666,-8.02266
 L -110.305,-8.23488 L -109.909,-8.36754 L -109.493,-8.41487 L -109.077,-8.3748 L -108.678,-8.24907 L -108.314,-8.04318
 L -108.001,-7.76613 L -107.753,-7.43002 L -107.579,-7.04956 L -107.489,-6.64136 L -107.485,-6.22327 L -107.568,-5.81354
 L -107.735,-5.4301 L -107.978,-5.08971 L -108.286,-4.80724 L -108.646,-4.59503 L -109.043,-4.46236 L -109.458,-4.41502
 z
M 99.839,-13.9008 L 117.507,-15.602 L 119.113,1.07085 L 101.444,2.77211 z
M 110.074,-3.47519 L 110.672,-3.66377 L 111.218,-3.97261 L 111.688,-4.38818 L 112.061,-4.89233 L 112.321,-5.46304
 L 112.457,-6.07535 L 112.462,-6.70248 L 112.337,-7.31706 L 112.087,-7.89221 L 111.723,-8.4028 L 111.26,-8.82652
 L 110.72,-9.14482 L 110.125,-9.34384 L 109.502,-9.41483 L 108.878,-9.35471 L 108.28,-9.16612 L 107.734,-8.85728
 L 107.264,-8.44173 L 106.891,-7.93756 L 106.631,-7.36685 L 106.495,-6.75456 L 106.49,-6.12741 L 106.615,-5.51283
 L 106.865,-4.9377 L 107.229,-4.42709 L 107.691,-4.00339 L 108.232,-3.68507 L 108.827,-3.48607 L 109.45,-3.41508
 z
M 109.043,-4.46236 L 108.646,-4.59503 L 108.286,-4.80724 L 107.978,-5.08971 L 107.735,-5.4301 L 107.568,-5.81354
 L 107.485,-6.22327 L 107.489,-6.64136 L 107.579,-7.04956 L 107.753,-7.43002 L 108.001,-7.76613 L 108.314,-8.04318
 L 108.678,-8.24907 L 109.077,-8.3748 L 109.493,-8.41487 L 109.909,-8.36754 L 110.305,-8.23488 L 110.666,-8.02266
 L 110.974,-7.74019 L 111.217,-7.3998 L 111.383,-7.01636 L 111.467,-6.60664 L 111.463,-6.18855 L 111.373,-5.78035
 L 111.199,-5.39987 L 110.95,-5.06377 L 110.637,-4.78673 L 110.273,-4.58083 L 109.875,-4.45511 L 109.458,-4.41502
 z
M -99.9545,2.78893 L -98.131,-13.8615 L -80.4865,-11.9291 L -82.31,4.72131 z
M -89.6096,-1.63297 L -89.0122,-1.82417 L -88.4677,-2.13538 L -87.9998,-2.55299 L -87.629,-3.05878 L -87.3714,-3.6306
 L -87.2383,-4.24348 L -87.2356,-4.87065 L -87.3633,-5.48468 L -87.6159,-6.05873 L -87.9823,-6.56773 L -88.4465,-6.98943
 L -88.9883,-7.30537 L -89.5839,-7.50177 L -90.2074,-7.57005 L -90.8314,-7.50722 L -91.4287,-7.31602 L -91.9732,-7.00481
 L -92.4411,-6.58719 L -92.812,-6.08141 L -93.0696,-5.50958 L -93.2026,-4.8967 L -93.2054,-4.26953 L -93.0777,-3.6555
 L -92.8251,-3.08145 L -92.4586,-2.57245 L -91.9944,-2.15077 L -91.4526,-1.83481 L -90.857,-1.63841 L -90.2336,-1.57013
 z
M -90.6448,-2.61563 L -91.0419,-2.74657 L -91.4031,-2.9572 L -91.7126,-3.23833 L -91.9569,-3.57767 L -92.1253,-3.96036
 L -92.2104,-4.36972 L -92.2086,-4.78783 L -92.1199,-5.19643 L -91.9482,-5.57764 L -91.7009,-5.91483 L -91.389,-6.19324
 L -91.026,-6.40071 L -90.6278,-6.52818 L -90.2117,-6.57007 L -89.7961,-6.52455 L -89.399,-6.39362 L -89.0379,-6.18298
 L -88.7284,-5.90186 L -88.4841,-5.56253 L -88.3157,-5.17982 L -88.2305,-4.77046 L -88.2324,-4.35236 L -88.3211,-3.94377
 L -88.4928,-3.56255 L -88.74,-3.22536 L -89.052,-2.94695 L -89.415,-2.73947 L -89.8132,-2.612 L -90.2292,-2.57011
 z
M 80.4865,-11.9291 L 98.131,-13.8615 L 99.9545,2.78893 L 82.31,4.72131 z
M 90.857,-1.63841 L 91.4526,-1.83481 L 91.9944,-2.15077 L 92.4586,-2.57245 L 92.8251,-3.08145 L 93.0777,-3.6555
 L 93.2054,-4.26953 L 93.2026,-4.8967 L 93.0696,-5.50958 L 92.812,-6.08141 L 92.4411,-6.58719 L 91.9732,-7.00481
 L 91.4287,-7.31602 L 90.8314,-7.50722 L 90.2074,-7.57005 L 89.5839,-7.50177 L 88.9883,-7.30537 L 88.4465,-6.98943
 L 87.9823,-6.56773 L 87.6159,-6.05873 L 87.3633,-5.48468 L 87.2356,-4.87065 L 87.2383,-4.24348 L 87.3714,-3.6306
 L 87.629,-3.05878 L 87.9998,-2.55299 L 88.4677,-2.13538 L 89.0122,-1.82417 L 89.6096,-1.63297 L 90.2336,-1.57013
 z
M 89.8132,-2.612 L 89.415,-2.73947 L 89.052,-2.94695 L 88.74,-3.22536 L 88.4928,-3.56255 L 88.3211,-3.94377
 L 88.2324,-4.35236 L 88.2305,-4.77046 L 88.3157,-5.17982 L 88.4841,-5.56253 L 88.7284,-5.90186 L 89.0379,-6.18298
 L 89.399,-6.39362 L 89.7961,-6.52455 L 90.2117,-6.57007 L 90.6278,-6.52818 L 91.026,-6.40071 L 91.389,-6.19324
 L 91.7009,-5.91483 L 91.9482,-5.57764 L 92.1199,-5.19643 L 92.2086,-4.78783 L 92.2104,-4.36972 L 92.1253,-3.96036
 L 91.9569,-3.57767 L 91.7126,-3.23833 L 91.4031,-2.9572 L 91.0419,-2.74657 L 90.6448,-2.61563 L 90.2292,-2.57011
 z
M -81.4397,4.94592 L -79.3984,-11.6792 L -61.7807,-9.51602 L -63.822,7.1091 z
M -71.0378,0.659821 L -70.438,0.476456 L -69.8895,0.172394 L -69.4162,-0.239059 L -69.0387,-0.739944 L -68.7737,-1.30833
 L -68.6326,-1.91943 L -68.6217,-2.54651 L -68.7413,-3.16216 L -68.9864,-3.73947 L -69.3461,-4.25322 L -69.8048,-4.68094
 L -70.3424,-5.00397 L -70.9354,-5.20815 L -71.5579,-5.28458 L -72.1827,-5.22992 L -72.7824,-5.04655 L -73.331,-4.74249
 L -73.8043,-4.33104 L -74.1817,-3.83014 L -74.4468,-3.26175 L -74.5879,-2.65065 L -74.5988,-2.02357 L -74.4791,-1.40794
 L -74.2341,-0.830612 L -73.8744,-0.316864 L -73.4157,0.11084 L -72.8781,0.433868 L -72.2851,0.638031 L -71.6626,0.714478
 z
M -72.0601,-0.336304 L -72.4555,-0.472427 L -72.8139,-0.687775 L -73.1197,-0.972931 L -73.3595,-1.31543 L -73.5228,-1.7003
 L -73.6026,-2.11073 L -73.5953,-2.52878 L -73.5013,-2.93617 L -73.3246,-3.31512 L -73.0729,-3.64903 L -72.7574,-3.92334
 L -72.3917,-4.12605 L -71.9919,-4.24829 L -71.5753,-4.28474 L -71.1603,-4.23378 L -70.765,-4.09766 L -70.4066,-3.88231
 L -70.1008,-3.59717 L -69.861,-3.25467 L -69.6976,-2.86978 L -69.6178,-2.45935 L -69.6251,-2.04131 L -69.7192,-1.63391
 L -69.8959,-1.25496 L -70.1475,-0.921051 L -70.4631,-0.646744 L -70.8288,-0.444031 L -71.2286,-0.321793 L -71.6451,-0.285355
 z
M 61.7807,-9.51602 L 79.3984,-11.6792 L 81.4397,4.94592 L 63.822,7.1091 z
M 72.2851,0.638031 L 72.8781,0.433868 L 73.4157,0.11084 L 73.8744,-0.316864 L 74.2341,-0.830612 L 74.4791,-1.40794
 L 74.5988,-2.02357 L 74.5879,-2.65065 L 74.4468,-3.26175 L 74.1817,-3.83014 L 73.8043,-4.33104 L 73.331,-4.74249
 L 72.7824,-5.04655 L 72.1827,-5.22992 L 71.5579,-5.28458 L 70.9354,-5.20815 L 70.3424,-5.00397 L 69.8048,-4.68094
 L 69.3461,-4.25322 L 68.9864,-3.73947 L 68.7413,-3.16216 L 68.6217,-2.54651 L 68.6326,-1.91943 L 68.7737,-1.30833
 L 69.0387,-0.739944 L 69.4162,-0.239059 L 69.8895,0.172394 L 70.438,0.476456 L 71.0378,0.659821 L 71.6626,0.714478
 z
M 71.2286,-0.321793 L 70.8288,-0.444031 L 70.4631,-0.646744 L 70.1475,-0.921051 L 69.8959,-1.25496 L 69.7192,-1.63391
 L 69.6251,-2.04131 L 69.6178,-2.45935 L 69.6976,-2.86978 L 69.861,-3.25467 L 70.1008,-3.59717 L 70.4066,-3.88231
 L 70.765,-4.09766 L 71.1603,-4.23378 L 71.5753,-4.28474 L 71.9919,-4.24829 L 72.3917,-4.12605 L 72.7574,-3.92334
 L 73.0729,-3.64903 L 73.3246,-3.31512 L 73.5013,-2.93617 L 73.5953,-2.52878 L 73.6026,-2.11073 L 73.5228,-1.7003
 L 73.3595,-1.31543 L 73.1197,-0.972931 L 72.8139,-0.687775 L 72.4555,-0.472427 L 72.0601,-0.336304 L 71.6451,-0.285355
 z
M 42.9379,-7.32309 L 60.5824,-9.25548 L 62.406,7.39494 L 44.7615,9.32733 z
M 53.3085,2.96759 L 53.9041,2.77119 L 54.4459,2.45525 L 54.9101,2.03355 L 55.2766,1.52457 L 55.5291,0.9505
 L 55.6568,0.336487 L 55.6541,-0.290665 L 55.521,-0.903549 L 55.2635,-1.47537 L 54.8926,-1.98116 L 54.4247,-2.39879
 L 53.8802,-2.70999 L 53.2829,-2.9012 L 52.6589,-2.96402 L 52.0354,-2.89575 L 51.4398,-2.69934 L 50.898,-2.38339
 L 50.4338,-1.96172 L 50.0674,-1.45271 L 49.8148,-0.878647 L 49.6871,-0.264633 L 49.6898,0.362518 L 49.8229,0.975403
 L 50.0804,1.54723 L 50.4513,2.05301 L 50.9192,2.47064 L 51.4637,2.78185 L 52.061,2.97305 L 52.685,3.03587
 z
M 52.2647,1.994 L 51.8665,1.86655 L 51.5034,1.65907 L 51.1915,1.38065 L 50.9443,1.04347 L 50.7726,0.662247
 L 50.6838,0.253647 L 50.682,-0.164444 L 50.7672,-0.573792 L 50.9356,-0.956497 L 51.1798,-1.29582 L 51.4893,-1.57695
 L 51.8505,-1.7876 L 52.2476,-1.91853 L 52.6632,-1.96405 L 53.0792,-1.92215 L 53.4774,-1.79469 L 53.8405,-1.58722
 L 54.1524,-1.30881 L 54.3996,-0.971619 L 54.5714,-0.590393 L 54.6601,-0.181793 L 54.6619,0.236298 L 54.5768,0.645645
 L 54.4084,1.02835 L 54.1641,1.36768 L 53.8546,1.6488 L 53.4934,1.85944 L 53.0963,1.99039 L 52.6807,2.0359
 z
M -62.406,7.39494 L -60.5824,-9.25548 L -42.9379,-7.32309 L -44.7615,9.32733 z
M -52.061,2.97305 L -51.4637,2.78185 L -50.9192,2.47064 L -50.4513,2.05301 L -50.0804,1.54723 L -49.8229,0.975403
 L -49.6898,0.362518 L -49.6871,-0.264633 L -49.8148,-0.878647 L -50.0674,-1.45271 L -50.4338,-1.96172 L -50.898,-2.38339
 L -51.4398,-2.69934 L -52.0354,-2.89575 L -52.6589,-2.96402 L -53.2829,-2.9012 L -53.8802,-2.70999 L -54.4247,-2.39879
 L -54.8926,-1.98116 L -55.2635,-1.47537 L -55.521,-0.903549 L -55.6541,-0.290665 L -55.6568,0.336487 L -55.5291,0.9505
 L -55.2766,1.52457 L -54.9101,2.03355 L -54.4459,2.45525 L -53.9041,2.77119 L -53.3085,2.96759 L -52.685,3.03587
 z
M -53.0963,1.99039 L -53.4934,1.85944 L -53.8546,1.6488 L -54.1641,1.36768 L -54.4084,1.02835 L -54.5768,0.645645
 L -54.6619,0.236298 L -54.6601,-0.181793 L -54.5714,-0.590393 L -54.3996,-0.971619 L -54.1524,-1.30881 L -53.8405,-1.58722
 L -53.4774,-1.79469 L -53.0792,-1.92215 L -52.6632,-1.96405 L -52.2476,-1.91853 L -51.8505,-1.7876 L -51.4893,-1.57695
 L -51.1798,-1.29582 L -50.9356,-0.956497 L -50.7672,-0.573792 L -50.682,-0.164444 L -50.6838,0.253647 L -50.7726,0.662247
 L -50.9443,1.04347 L -51.1915,1.38065 L -51.5034,1.65907 L -51.8665,1.86655 L -52.2647,1.994 L -52.6807,2.0359
 z
M 24.1594,-6.14822 L 41.8276,-7.84949 L 43.4331,8.82338 L 25.7648,10.5246 z
M 34.3943,4.27733 L 34.9924,4.08875 L 35.5383,3.77991 L 36.008,3.36433 L 36.3811,2.86018 L 36.6412,2.28947
 L 36.7769,1.67719 L 36.7824,1.05003 L 36.6573,0.435455 L 36.4073,-0.139679 L 36.0431,-0.650269 L 35.5807,-1.07397
 L 35.0403,-1.39229 L 34.4455,-1.59129 L 33.8224,-1.66229 L 33.1981,-1.60217 L 32.6,-1.41359 L 32.0541,-1.10475
 L 31.5844,-0.689178 L 31.2113,-0.185028 L 30.9512,0.385666 L 30.8155,0.997955 L 30.81,1.62511 L 30.9351,2.23969
 L 31.1852,2.81483 L 31.5493,3.32542 L 32.0117,3.74913 L 32.5521,4.06744 L 33.1469,4.26645 L 33.77,4.33743
 z
M 33.3633,3.29016 L 32.9668,3.15749 L 32.6066,2.94528 L 32.2983,2.66281 L 32.0555,2.32242 L 31.8888,1.93898
 L 31.8054,1.52927 L 31.8091,1.11116 L 31.8996,0.702957 L 32.073,0.322495 L 32.3217,-0.0135956 L 32.6348,-0.290649
 L 32.9987,-0.496536 L 33.3975,-0.622269 L 33.8137,-0.662338 L 34.2291,-0.615005 L 34.6256,-0.482346 L 34.9859,-0.270126
 L 35.2941,0.0123291 L 35.5369,0.352722 L 35.7036,0.73616 L 35.787,1.14587 L 35.7834,1.56398 L 35.6929,1.97218
 L 35.5195,2.35265 L 35.2708,2.68875 L 34.9576,2.96581 L 34.5937,3.17169 L 34.1949,3.29742 L 33.7787,3.33749
 z
M -43.4331,8.82338 L -41.8276,-7.84949 L -24.1594,-6.14822 L -25.7648,10.5246 z
M -33.1469,4.26645 L -32.5521,4.06744 L -32.0117,3.74913 L -31.5493,3.32542 L -31.1852,2.81483 L -30.9351,2.23969
 L -30.81,1.62511 L -30.8155,0.997955 L -30.9512,0.385666 L -31.2113,-0.185028 L -31.5844,-0.689178 L -32.0541,-1.10475
 L -32.6,-1.41359 L -33.1981,-1.60217 L -33.8224,-1.66229 L -34.4455,-1.59129 L -35.0403,-1.39229 L -35.5807,-1.07397
 L -36.0431,-0.650269 L -36.4073,-0.139679 L -36.6573,0.435455 L -36.7824,1.05003 L -36.7769,1.67719 L -36.6412,2.28947
 L -36.3811,2.86018 L -36.008,3.36433 L -35.5383,3.77991 L -34.9924,4.08875 L -34.3943,4.27733 L -33.77,4.33743
 z
M -34.1949,3.29742 L -34.5937,3.17169 L -34.9576,2.96581 L -35.2708,2.68875 L -35.5195,2.35265 L -35.6929,1.97218
 L -35.7834,1.56398 L -35.787,1.14587 L -35.7036,0.73616 L -35.5369,0.352722 L -35.2941,0.0123291 L -34.9859,-0.270126
 L -34.6256,-0.482346 L -34.2291,-0.615005 L -33.8137,-0.662338 L -33.3975,-0.622269 L -32.9987,-0.496536 L -32.6348,-0.290649
 L -32.3217,-0.0135956 L -32.073,0.322495 L -31.8996,0.702957 L -31.8091,1.11116 L -31.8054,1.52927 L -31.8888,1.93898
 L -32.0555,2.32242 L -32.2983,2.66281 L -32.6066,2.94528 L -32.9668,3.15749 L -33.3633,3.29016 L -33.7787,3.33749
 z
M -24.1547,10.2455 L -23.6724,-6.49753 L -5.92973,-5.98643 L -6.41203,10.7566 z
M -14.1977,5.00819 L -13.6176,4.76971 L -13.0998,4.41583 L -12.6669,3.96204 L -12.3378,3.42813 L -12.1269,2.83749
 L -12.0434,2.21591 L -12.091,1.59055 L -12.2676,0.988739 L -12.5654,0.436783 L -12.9715,-0.0411682 L -13.468,-0.424255
 L -14.0334,-0.695755 L -14.6428,-0.84375 L -15.2697,-0.861801 L -15.8867,-0.74913 L -16.4668,-0.510635 L -16.9846,-0.156769
 L -17.4175,0.297028 L -17.7466,0.830917 L -17.9575,1.42155 L -18.041,2.04314 L -17.9934,2.6685 L -17.8168,3.27031
 L -17.519,3.82227 L -17.1129,4.30023 L -16.6164,4.68332 L -16.051,4.95482 L -15.4416,5.10281 L -14.8147,5.12086
 z
M -15.3084,4.11172 L -15.7148,4.01305 L -16.0917,3.83206 L -16.4227,3.57666 L -16.6934,3.25803 L -16.892,2.89005
 L -17.0097,2.48885 L -17.0414,2.07193 L -16.9857,1.65755 L -16.8451,1.26378 L -16.6257,0.907852 L -16.3371,0.605316
 L -15.9919,0.3694 L -15.6052,0.210403 L -15.1939,0.135284 L -14.776,0.147324 L -14.3697,0.246002 L -13.9927,0.426987
 L -13.6617,0.682388 L -13.391,1.00104 L -13.1924,1.369 L -13.0747,1.7702 L -13.043,2.18712 L -13.0987,2.6015
 L -13.2393,2.99527 L -13.4587,3.3512 L -13.7473,3.65373 L -14.0925,3.88965 L -14.4792,4.04865 L -14.8905,4.12376
 z
M 5.92973,-5.98643 L 23.6724,-6.49753 L 24.1547,10.2455 L 6.41203,10.7566 z
M 15.4416,5.10281 L 16.051,4.95482 L 16.6164,4.68332 L 17.1129,4.30023 L 17.519,3.82227 L 17.8168,3.27031
 L 17.9934,2.6685 L 18.041,2.04314 L 17.9575,1.42155 L 17.7466,0.830917 L 17.4175,0.297028 L 16.9846,-0.156769
 L 16.4668,-0.510635 L 15.8867,-0.74913 L 15.2697,-0.861801 L 14.6428,-0.84375 L 14.0334,-0.695755 L 13.468,-0.424255
 L 12.9715,-0.0411682 L 12.5654,0.436783 L 12.2676,0.988739 L 12.091,1.59055 L 12.0434,2.21591 L 12.1269,2.83749
 L 12.3378,3.42813 L 12.6669,3.96204 L 13.0998,4.41583 L 13.6176,4.76971 L 14.1977,5.00819 L 14.8147,5.12086
 z
M 14.4792,4.04865 L 14.0925,3.88965 L 13.7473,3.65373 L 13.4587,3.3512 L 13.2393,2.99527 L 13.0987,2.6015
 L 13.043,2.18712 L 13.0747,1.7702 L 13.1924,1.369 L 13.391,1.00104 L 13.6617,0.682388 L 13.9927,0.426987
 L 14.3697,0.246002 L 14.776,0.147324 L 15.1939,0.135284 L 15.6052,0.210403 L 15.9919,0.3694 L 16.3371,0.605316
 L 16.6257,0.907852 L 16.8451,1.26378 L 16.9857,1.65755 L 17.0414,2.07193 L 17.0097,2.48885 L 16.892,2.89005
 L 16.6934,3.25803 L 16.4227,3.57666 L 16.0917,3.83206 L 15.7148,4.01305 L 15.3084,4.11172 L 14.8905,4.12376
 z
M -129.492,17.3287 L -127.862,0.406921 L -101.236,2.97079 L -102.865,19.8925 z
M -114.714,13.0786 L -114.12,12.8796 L -113.579,12.5613 L -113.117,12.1376 L -112.753,11.627 L -112.503,11.0518
 L -112.378,10.4373 L -112.383,9.81012 L -112.519,9.19781 L -112.779,8.62711 L -113.152,8.12296 L -113.622,7.70738
 L -114.167,7.39854 L -114.766,7.20996 L -115.39,7.14986 L -116.013,7.22084 L -116.608,7.41985 L -117.148,7.73816
 L -117.611,8.16187 L -117.975,8.67247 L -118.225,9.2476 L -118.35,9.86218 L -118.344,10.4893 L -118.209,11.1016
 L -117.949,11.6723 L -117.576,12.1765 L -117.106,12.5921 L -116.56,12.9009 L -115.962,13.0895 L -115.338,13.1496
 z
M -115.762,12.1096 L -116.161,11.9838 L -116.525,11.778 L -116.838,11.5009 L -117.087,11.1648 L -117.26,10.7843
 L -117.351,10.3761 L -117.355,9.95804 L -117.271,9.54831 L -117.104,9.16487 L -116.862,8.82448 L -116.553,8.54201
 L -116.193,8.3298 L -115.797,8.19713 L -115.381,8.1498 L -114.965,8.18988 L -114.566,8.3156 L -114.202,8.5215
 L -113.889,8.79854 L -113.64,9.13464 L -113.467,9.51512 L -113.377,9.92332 L -113.373,10.3414 L -113.456,10.7511
 L -113.623,11.1346 L -113.866,11.475 L -114.174,11.7574 L -114.534,11.9697 L -114.931,12.1023 L -115.346,12.1496
 z
M 101.236,2.97079 L 127.862,0.406921 L 129.492,17.3287 L 102.865,19.8925 z
M 115.962,13.0895 L 116.56,12.9009 L 117.106,12.5921 L 117.576,12.1765 L 117.949,11.6723 L 118.209,11.1016
 L 118.344,10.4893 L 118.35,9.86218 L 118.225,9.2476 L 117.975,8.67247 L 117.611,8.16187 L 117.148,7.73816
 L 116.608,7.41985 L 116.013,7.22084 L 115.39,7.14986 L 114.766,7.20996 L 114.167,7.39854 L 113.622,7.70738
 L 113.152,8.12296 L 112.779,8.62711 L 112.519,9.19781 L 112.383,9.81012 L 112.378,10.4373 L 112.503,11.0518
 L 112.753,11.627 L 113.117,12.1376 L 113.579,12.5613 L 114.12,12.8796 L 114.714,13.0786 L 115.338,13.1496
 z
M 114.931,12.1023 L 114.534,11.9697 L 114.174,11.7574 L 113.866,11.475 L 113.623,11.1346 L 113.456,10.7511
 L 113.373,10.3414 L 113.377,9.92332 L 113.467,9.51512 L 113.64,9.13464 L 113.889,8.79854 L 114.202,8.5215
 L 114.566,8.3156 L 114.965,8.18988 L 115.381,8.1498 L 115.797,8.19713 L 116.193,8.3298 L 116.553,8.54201
 L 116.862,8.82448 L 117.104,9.16487 L 117.271,9.54831 L 117.355,9.95804 L 117.351,10.3761 L 117.26,10.7843
 L 117.087,11.1648 L 116.838,11.5009 L 116.525,11.778 L 116.161,11.9838 L 115.762,12.1096 L 115.346,12.1496
 z
M 82.3372,4.96982 L 99.9817,3.03743 L 101.805,19.6879 L 84.1607,21.6203 z
M 92.7077,15.2605 L 93.3034,15.0641 L 93.8451,14.7482 L 94.3094,14.3265 L 94.6758,13.8175 L 94.9284,13.2434
 L 95.0561,12.6294 L 95.0534,12.0022 L 94.9203,11.3894 L 94.6627,10.8175 L 94.2919,10.3118 L 93.824,9.89413
 L 93.2794,9.58292 L 92.6821,9.39172 L 92.0581,9.32889 L 91.4347,9.39717 L 90.8391,9.59357 L 90.2973,9.90953
 L 89.833,10.3312 L 89.4666,10.8402 L 89.214,11.4143 L 89.0863,12.0283 L 89.089,12.6555 L 89.2221,13.2683
 L 89.4797,13.8402 L 89.8506,14.3459 L 90.3185,14.7636 L 90.863,15.0748 L 91.4603,15.266 L 92.0843,15.3288
 z
M 91.6639,14.2869 L 91.2657,14.1595 L 90.9027,13.952 L 90.5908,13.6736 L 90.3435,13.3364 L 90.1718,12.9552
 L 90.0831,12.5466 L 90.0813,12.1285 L 90.1664,11.7191 L 90.3348,11.3364 L 90.5791,10.9971 L 90.8886,10.716
 L 91.2498,10.5053 L 91.6469,10.3744 L 92.0625,10.3289 L 92.4785,10.3708 L 92.8767,10.4982 L 93.2397,10.7057
 L 93.5517,10.9841 L 93.7989,11.3213 L 93.9706,11.7025 L 94.0593,12.1111 L 94.0611,12.5292 L 93.976,12.9386
 L 93.8076,13.3213 L 93.5633,13.6606 L 93.2538,13.9417 L 92.8927,14.1524 L 92.4956,14.2833 L 92.0799,14.3288
 z
M -101.805,19.6879 L -99.9817,3.03743 L -82.3372,4.96982 L -84.1607,21.6203 z
M -91.4603,15.266 L -90.863,15.0748 L -90.3185,14.7636 L -89.8506,14.3459 L -89.4797,13.8402 L -89.2221,13.2683
 L -89.089,12.6555 L -89.0863,12.0283 L -89.214,11.4143 L -89.4666,10.8402 L -89.833,10.3312 L -90.2973,9.90953
 L -90.8391,9.59357 L -91.4347,9.39717 L -92.0581,9.32889 L -92.6821,9.39172 L -93.2794,9.58292 L -93.824,9.89413
 L -94.2919,10.3118 L -94.6627,10.8175 L -94.9203,11.3894 L -95.0534,12.0022 L -95.0561,12.6294 L -94.9284,13.2434
 L -94.6758,13.8175 L -94.3094,14.3265 L -93.8451,14.7482 L -93.3034,15.0641 L -92.7077,15.2605 L -92.0843,15.3288
 z
M -92.4956,14.2833 L -92.8927,14.1524 L -93.2538,13.9417 L -93.5633,13.6606 L -93.8076,13.3213 L -93.976,12.9386
 L -94.0611,12.5292 L -94.0593,12.1111 L -93.9706,11.7025 L -93.7989,11.3213 L -93.5517,10.9841 L -93.2397,10.7057
 L -92.8767,10.4982 L -92.4785,10.3708 L -92.0625,10.3289 L -91.6469,10.3744 L -91.2498,10.5053 L -90.8886,10.716
 L -90.5791,10.9971 L -90.3348,11.3364 L -90.1664,11.7191 L -90.0813,12.1285 L -90.0831,12.5466 L -90.1718,12.9552
 L -90.3435,13.3364 L -90.5908,13.6736 L -90.9027,13.952 L -91.2657,14.1595 L -91.6639,14.2869 L -92.0799,14.3288
 z
M -83.5115,21.8192 L -81.4702,5.19406 L -63.8525,7.35724 L -65.8938,23.9824 z
M -73.1096,17.5331 L -72.5098,17.3497 L -71.9613,17.0457 L -71.4879,16.6342 L -71.1105,16.1333 L -70.8455,15.5649
 L -70.7044,14.9538 L -70.6934,14.3268 L -70.8131,13.7111 L -71.0582,13.1338 L -71.4179,12.6201 L -71.8766,12.1923
 L -72.4142,11.8693 L -73.0072,11.6651 L -73.6297,11.5887 L -74.2544,11.6434 L -74.8542,11.8267 L -75.4027,12.1308
 L -75.8761,12.5422 L -76.2535,13.0431 L -76.5186,13.6115 L -76.6597,14.2226 L -76.6706,14.8497 L -76.5509,15.4653
 L -76.3059,16.0426 L -75.9461,16.5564 L -75.4875,16.9841 L -74.9499,17.3071 L -74.3569,17.5113 L -73.7344,17.5878
 z
M -74.1319,16.537 L -74.5273,16.4008 L -74.8856,16.1855 L -75.1914,15.9003 L -75.4312,15.5578 L -75.5946,15.173
 L -75.6744,14.7625 L -75.6671,14.3445 L -75.573,13.9371 L -75.3963,13.5582 L -75.1447,13.2242 L -74.8292,12.9499
 L -74.4635,12.7472 L -74.0636,12.625 L -73.6471,12.5885 L -73.2321,12.6395 L -72.8368,12.7756 L -72.4784,12.991
 L -72.1726,13.2761 L -71.9328,13.6186 L -71.7694,14.0035 L -71.6896,14.4139 L -71.6969,14.832 L -71.791,15.2394
 L -71.9677,15.6183 L -72.2193,15.9522 L -72.5349,16.2265 L -72.9005,16.4292 L -73.3004,16.5515 L -73.7169,16.5879
 z
M 63.8525,7.35724 L 81.4702,5.19406 L 83.5115,21.8192 L 65.8938,23.9824 z
M 74.3569,17.5113 L 74.9499,17.3071 L 75.4875,16.9841 L 75.9461,16.5564 L 76.3059,16.0426 L 76.5509,15.4653
 L 76.6706,14.8497 L 76.6597,14.2226 L 76.5186,13.6115 L 76.2535,13.0431 L 75.8761,12.5422 L 75.4027,12.1308
 L 74.8542,11.8267 L 74.2544,11.6434 L 73.6297,11.5887 L 73.0072,11.6651 L 72.4142,11.8693 L 71.8766,12.1923
 L 71.4179,12.6201 L 71.0582,13.1338 L 70.8131,13.7111 L 70.6934,14.3268 L 70.7044,14.9538 L 70.8455,15.5649
 L 71.1105,16.1333 L 71.4879,16.6342 L 71.9613,17.0457 L 72.5098,17.3497 L 73.1096,17.5331 L 73.7344,17.5878
 z
M 73.3004,16.5515 L 72.9005,16.4292 L 72.5349,16.2265 L 72.2193,15.9522 L 71.9677,15.6183 L 71.791,15.2394
 L 71.6969,14.832 L 71.6896,14.4139 L 71.7694,14.0035 L 71.9328,13.6186 L 72.1726,13.2761 L 72.4784,12.991
 L 72.8368,12.7756 L 73.2321,12.6395 L 73.6471,12.5885 L 74.0636,12.625 L 74.4635,12.7472 L 74.8292,12.9499
 L 75.1447,13.2242 L 75.3963,13.5582 L 75.573,13.9371 L 75.6671,14.3445 L 75.6744,14.7625 L 75.5946,15.173
 L 75.4312,15.5578 L 75.1914,15.9003 L 74.8856,16.1855 L 74.5273,16.4008 L 74.1319,16.537 L 73.7169,16.5879
 z
M -64.2567,24.2939 L -62.4332,7.64346 L -44.7887,9.57585 L -46.6122,26.2263 z
M -53.9118,19.872 L -53.3145,19.6808 L -52.7699,19.3696 L -52.302,18.952 L -51.9312,18.4462 L -51.6736,17.8744
 L -51.5405,17.2615 L -51.5378,16.6343 L -51.6655,16.0203 L -51.9181,15.4462 L -52.2845,14.9372 L -52.7488,14.5155
 L -53.2905,14.1996 L -53.8862,14.0032 L -54.5096,13.9349 L -55.1336,13.9977 L -55.7309,14.1889 L -56.2754,14.5002
 L -56.7433,14.9178 L -57.1142,15.4236 L -57.3718,15.9954 L -57.5049,16.6083 L -57.5076,17.2354 L -57.3799,17.8495
 L -57.1273,18.4235 L -56.7608,18.9325 L -56.2966,19.3542 L -55.7548,19.6702 L -55.1592,19.8666 L -54.5358,19.9348
 z
M -54.9471,18.8893 L -55.3441,18.7584 L -55.7053,18.5478 L -56.0148,18.2666 L -56.2591,17.9273 L -56.4275,17.5446
 L -56.5126,17.1353 L -56.5108,16.7171 L -56.4221,16.3085 L -56.2504,15.9273 L -56.0031,15.5901 L -55.6912,15.3117
 L -55.3282,15.1042 L -54.93,14.9768 L -54.514,14.9349 L -54.0983,14.9804 L -53.7012,15.1114 L -53.3401,15.322
 L -53.0306,15.6031 L -52.7863,15.9424 L -52.6179,16.3251 L -52.5328,16.7345 L -52.5346,17.1526 L -52.6233,17.5612
 L -52.795,17.9424 L -53.0423,18.2796 L -53.3542,18.558 L -53.7172,18.7655 L -54.1154,18.893 L -54.5314,18.9349
 z
M 44.7887,9.57585 L 62.4332,7.64346 L 64.2567,24.2939 L 46.6122,26.2263 z
M 55.1592,19.8666 L 55.7548,19.6702 L 56.2966,19.3542 L 56.7608,18.9325 L 57.1273,18.4235 L 57.3799,17.8495
 L 57.5076,17.2354 L 57.5049,16.6083 L 57.3718,15.9954 L 57.1142,15.4236 L 56.7433,14.9178 L 56.2754,14.5002
 L 55.7309,14.1889 L 55.1336,13.9977 L 54.5096,13.9349 L 53.8862,14.0032 L 53.2905,14.1996 L 52.7488,14.5155
 L 52.2845,14.9372 L 51.9181,15.4462 L 51.6655,16.0203 L 51.5378,16.6343 L 51.5405,17.2615 L 51.6736,17.8744
 L 51.9312,18.4462 L 52.302,18.952 L 52.7699,19.3696 L 53.3145,19.6808 L 53.9118,19.872 L 54.5358,19.9348
 z
M 54.1154,18.893 L 53.7172,18.7655 L 53.3542,18.558 L 53.0423,18.2796 L 52.795,17.9424 L 52.6233,17.5612
 L 52.5346,17.1526 L 52.5328,16.7345 L 52.6179,16.3251 L 52.7863,15.9424 L 53.0306,15.6031 L 53.3401,15.322
 L 53.7012,15.1114 L 54.0983,14.9804 L 54.514,14.9349 L 54.93,14.9768 L 55.3282,15.1042 L 55.6912,15.3117
 L 56.0031,15.5901 L 56.2504,15.9273 L 56.4221,16.3085 L 56.5108,16.7171 L 56.5126,17.1353 L 56.4275,17.5446
 L 56.2591,17.9273 L 56.0148,18.2666 L 55.7053,18.5478 L 55.3441,18.7584 L 54.9471,18.8893 L 54.5314,18.9349
 z
M -45.0624,25.7451 L -43.457,9.07224 L -25.7887,10.7735 L -27.3941,27.4464 z
M -34.7763,21.1882 L -34.1815,20.9892 L -33.6411,20.6709 L -33.1787,20.2472 L -32.8145,19.7366 L -32.5644,19.1614
 L -32.4394,18.5468 L -32.4449,17.9197 L -32.5806,17.3074 L -32.8407,16.7367 L -33.2138,16.2325 L -33.6835,15.817
 L -34.2293,15.5081 L -34.8275,15.3195 L -35.4518,15.2594 L -36.0749,15.3304 L -36.6697,15.5294 L -37.2101,15.8477
 L -37.6725,16.2715 L -38.0367,16.782 L -38.2867,17.3572 L -38.4118,17.9718 L -38.4063,18.5989 L -38.2706,19.2112
 L -38.0105,19.7819 L -37.6374,20.2861 L -37.1677,20.7016 L -36.6218,21.0105 L -36.0237,21.1991 L -35.3994,21.2592
 z
M -35.8243,20.2191 L -36.2231,20.0934 L -36.587,19.8875 L -36.9001,19.6105 L -37.1488,19.2744 L -37.3222,18.8939
 L -37.4127,18.4857 L -37.4164,18.0676 L -37.333,17.6579 L -37.1663,17.2745 L -36.9235,16.9341 L -36.6152,16.6516
 L -36.255,16.4394 L -35.8585,16.3067 L -35.443,16.2594 L -35.0269,16.2995 L -34.6281,16.4252 L -34.2642,16.6311
 L -33.951,16.9081 L -33.7023,17.2442 L -33.5289,17.6247 L -33.4384,18.0329 L -33.4348,18.451 L -33.5182,18.8607
 L -33.6849,19.2442 L -33.9277,19.5845 L -34.2359,19.867 L -34.5962,20.0792 L -34.9927,20.2119 L -35.4081,20.2592
 z
M 25.7887,10.7735 L 43.457,9.07224 L 45.0624,25.7451 L 27.3941,27.4464 z
M 36.0237,21.1991 L 36.6218,21.0105 L 37.1677,20.7016 L 37.6374,20.2861 L 38.0105,19.7819 L 38.2706,19.2112
 L 38.4063,18.5989 L 38.4118,17.9718 L 38.2867,17.3572 L 38.0367,16.782 L 37.6725,16.2715 L 37.2101,15.8477
 L 36.6697,15.5294 L 36.0749,15.3304 L 35.4518,15.2594 L 34.8275,15.3195 L 34.2293,15.5081 L 33.6835,15.817
 L 33.2138,16.2325 L 32.8407,16.7367 L 32.5806,17.3074 L 32.4449,17.9197 L 32.4394,18.5468 L 32.5644,19.1614
 L 32.8145,19.7366 L 33.1787,20.2472 L 33.6411,20.6709 L 34.1815,20.9892 L 34.7763,21.1882 L 35.3994,21.2592
 z
M 34.9927,20.2119 L 34.5962,20.0792 L 34.2359,19.867 L 33.9277,19.5845 L 33.6849,19.2442 L 33.5182,18.8607
 L 33.4348,18.451 L 33.4384,18.0329 L 33.5289,17.6247 L 33.7023,17.2442 L 33.951,16.9081 L 34.2642,16.6311
 L 34.6281,16.4252 L 35.0269,16.2995 L 35.443,16.2594 L 35.8585,16.3067 L 36.255,16.4394 L 36.6152,16.6516
 L 36.9235,16.9341 L 37.1663,17.2745 L 37.333,17.6579 L 37.4164,18.0676 L 37.4127,18.4857 L 37.3222,18.8939
 L 37.1488,19.2744 L 36.9001,19.6105 L 36.587,19.8875 L 36.2231,20.0934 L 35.8243,20.2191 L 35.4081,20.2592
 z
M 7.55911,10.9353 L 25.3017,10.4242 L 25.784,27.1672 L 8.04141,27.6783 z
M 17.0709,22.0246 L 17.6804,21.8766 L 18.2458,21.6051 L 18.7423,21.222 L 19.1484,20.744 L 19.4462,20.192
 L 19.6228,19.5902 L 19.6703,18.9649 L 19.5868,18.3433 L 19.3759,17.7527 L 19.0468,17.2188 L 18.6139,16.765
 L 18.0961,16.4111 L 17.5161,16.1726 L 16.8991,16.0599 L 16.2722,16.078 L 15.6628,16.226 L 15.0974,16.4975
 L 14.6008,16.8806 L 14.1948,17.3585 L 13.8969,17.9105 L 13.7204,18.5123 L 13.6728,19.1376 L 13.7563,19.7592
 L 13.9672,20.3499 L 14.2963,20.8838 L 14.7292,21.3376 L 15.247,21.6914 L 15.8271,21.9299 L 16.444,22.0426
 z
M 16.1086,20.9704 L 15.7219,20.8114 L 15.3767,20.5755 L 15.0881,20.2729 L 14.8687,19.917 L 14.7281,19.5232
 L 14.6724,19.1088 L 14.7041,18.6919 L 14.8218,18.2907 L 15.0204,17.9228 L 15.2911,17.6041 L 15.6221,17.3487
 L 15.999,17.1677 L 16.4053,17.0691 L 16.8233,17.057 L 17.2346,17.1321 L 17.6213,17.2911 L 17.9665,17.5271
 L 18.2551,17.8296 L 18.4745,18.1855 L 18.6151,18.5793 L 18.6707,18.9937 L 18.639,19.4106 L 18.5213,19.8118
 L 18.3228,20.1797 L 18.0521,20.4984 L 17.721,20.7538 L 17.3441,20.9348 L 16.9378,21.0335 L 16.5199,21.0455
 z
M -25.784,27.1672 L -25.3017,10.4242 L -7.55911,10.9353 L -8.04141,27.6783 z
M -15.8271,21.9299 L -15.247,21.6914 L -14.7292,21.3376 L -14.2963,20.8838 L -13.9672,20.3499 L -13.7563,19.7592
 L -13.6728,19.1376 L -13.7204,18.5123 L -13.8969,17.9105 L -14.1948,17.3585 L -14.6008,16.8806 L -15.0974,16.4975
 L -15.6628,16.226 L -16.2722,16.078 L -16.8991,16.0599 L -17.5161,16.1726 L -18.0961,16.4111 L -18.6139,16.765
 L -19.0468,17.2188 L -19.3759,17.7527 L -19.5868,18.3433 L -19.6703,18.9649 L -19.6228,19.5902 L -19.4462,20.192
 L -19.1484,20.744 L -18.7423,21.222 L -18.2458,21.6051 L -17.6804,21.8766 L -17.0709,22.0246 L -16.444,22.0426
 z
M -16.9378,21.0335 L -17.3441,20.9348 L -17.721,20.7538 L -18.0521,20.4984 L -18.3228,20.1797 L -18.5213,19.8118
 L -18.639,19.4106 L -18.6707,18.9937 L -18.6151,18.5793 L -18.4745,18.1855 L -18.2551,17.8296 L -17.9665,17.5271
 L -17.6213,17.2911 L -17.2346,17.1321 L -16.8233,17.057 L -16.4053,17.0691 L -15.999,17.1677 L -15.6221,17.3487
 L -15.2911,17.6041 L -15.0204,17.9228 L -14.8218,18.2907 L -14.7041,18.6919 L -14.6724,19.1088 L -14.7281,19.5232
 L -14.8687,19.917 L -15.0881,20.2729 L -15.3767,20.5755 L -15.7219,20.8114 L -16.1086,20.9704 L -16.5199,21.0455
 z
M -131.127,34.327 L -129.522,17.6541 L -111.854,19.3554 L -113.459,36.0283 z
M -120.841,29.7701 L -120.246,29.5711 L -119.706,29.2527 L -119.244,28.829 L -118.879,28.3185 L -118.629,27.7433
 L -118.504,27.1287 L -118.51,26.5016 L -118.645,25.8893 L -118.906,25.3186 L -119.279,24.8144 L -119.748,24.3988
 L -120.294,24.09 L -120.892,23.9014 L -121.517,23.8413 L -122.14,23.9123 L -122.735,24.1113 L -123.275,24.4296
 L -123.737,24.8533 L -124.102,25.3639 L -124.352,25.9391 L -124.477,26.5536 L -124.471,27.1808 L -124.335,27.7931
 L -124.075,28.3638 L -123.702,28.868 L -123.233,29.2835 L -122.687,29.5924 L -122.089,29.7809 L -121.464,29.841
 z
M -121.889,28.801 L -122.288,28.6753 L -122.652,28.4694 L -122.965,28.1924 L -123.214,27.8563 L -123.387,27.4758
 L -123.478,27.0676 L -123.481,26.6495 L -123.398,26.2398 L -123.231,25.8563 L -122.988,25.5159 L -122.68,25.2335
 L -122.32,25.0213 L -121.923,24.8886 L -121.508,24.8413 L -121.092,24.8813 L -120.693,25.0071 L -120.329,25.213
 L -120.016,25.49 L -119.767,25.8261 L -119.594,26.2066 L -119.503,26.6148 L -119.5,27.0329 L -119.583,27.4426
 L -119.75,27.826 L -119.993,28.1664 L -120.301,28.4489 L -120.661,28.6611 L -121.058,28.7938 L -121.473,28.8411
 z
M 111.854,19.3554 L 129.522,17.6541 L 131.127,34.327 L 113.459,36.0283 z
M 122.089,29.7809 L 122.687,29.5924 L 123.233,29.2835 L 123.702,28.868 L 124.075,28.3638 L 124.335,27.7931
 L 124.471,27.1808 L 124.477,26.5536 L 124.352,25.9391 L 124.102,25.3639 L 123.737,24.8533 L 123.275,24.4296
 L 122.735,24.1113 L 122.14,23.9123 L 121.517,23.8413 L 120.892,23.9014 L 120.294,24.09 L 119.748,24.3988
 L 119.279,24.8144 L 118.906,25.3186 L 118.645,25.8893 L 118.51,26.5016 L 118.504,27.1287 L 118.629,27.7433
 L 118.879,28.3185 L 119.244,28.829 L 119.706,29.2527 L 120.246,29.5711 L 120.841,29.7701 L 121.464,29.841
 z
M 121.058,28.7938 L 120.661,28.6611 L 120.301,28.4489 L 119.993,28.1664 L 119.75,27.826 L 119.583,27.4426
 L 119.5,27.0329 L 119.503,26.6148 L 119.594,26.2066 L 119.767,25.8261 L 120.016,25.49 L 120.329,25.213
 L 120.693,25.0071 L 121.092,24.8813 L 121.508,24.8413 L 121.923,24.8886 L 122.32,25.0213 L 122.68,25.2335
 L 122.988,25.5159 L 123.231,25.8563 L 123.398,26.2398 L 123.481,26.6495 L 123.478,27.0676 L 123.387,27.4758
 L 123.214,27.8563 L 122.965,28.1924 L 122.652,28.4694 L 122.288,28.6753 L 121.889,28.801 L 121.473,28.8411
 z
M -112.815,36.4303 L -111.186,19.5086 L -84.5589,22.0725 L -86.1883,38.9942 z
M -98.0377,32.1803 L -97.4429,31.9813 L -96.9025,31.663 L -96.4401,31.2393 L -96.0759,30.7287 L -95.8259,30.1535
 L -95.7008,29.539 L -95.7063,28.9118 L -95.842,28.2995 L -96.1021,27.7288 L -96.4752,27.2246 L -96.9449,26.8091
 L -97.4908,26.5002 L -98.0889,26.3117 L -98.7132,26.2515 L -99.3363,26.3225 L -99.9311,26.5215 L -100.471,26.8398
 L -100.934,27.2636 L -101.298,27.7742 L -101.548,28.3493 L -101.673,28.9639 L -101.668,29.591 L -101.532,30.2033
 L -101.272,30.774 L -100.899,31.2782 L -100.429,31.6938 L -99.8832,32.0026 L -99.2851,32.1912 L -98.6608,32.2513
 z
M -99.0857,31.2113 L -99.4845,31.0855 L -99.8484,30.8796 L -100.162,30.6026 L -100.41,30.2665 L -100.584,29.886
 L -100.674,29.4778 L -100.678,29.0597 L -100.594,28.65 L -100.428,28.2666 L -100.185,27.9262 L -99.8766,27.6437
 L -99.5164,27.4315 L -99.1199,27.2988 L -98.7045,27.2515 L -98.2883,27.2916 L -97.8895,27.4173 L -97.5256,27.6232
 L -97.2124,27.9002 L -96.9637,28.2363 L -96.7903,28.6168 L -96.6998,29.025 L -96.6962,29.4431 L -96.7796,29.8528
 L -96.9463,30.2363 L -97.1891,30.5767 L -97.4973,30.8591 L -97.8576,31.0713 L -98.2541,31.204 L -98.6695,31.2513
 z
M 84.5589,22.0725 L 111.186,19.5086 L 112.815,36.4303 L 86.1883,38.9942 z
M 99.2851,32.1912 L 99.8832,32.0026 L 100.429,31.6938 L 100.899,31.2782 L 101.272,30.774 L 101.532,30.2033
 L 101.668,29.591 L 101.673,28.9639 L 101.548,28.3493 L 101.298,27.7742 L 100.934,27.2636 L 100.471,26.8398
 L 99.9311,26.5215 L 99.3363,26.3225 L 98.7132,26.2515 L 98.0889,26.3117 L 97.4908,26.5002 L 96.9449,26.8091
 L 96.4752,27.2246 L 96.1021,27.7288 L 95.842,28.2995 L 95.7063,28.9118 L 95.7008,29.539 L 95.8259,30.1535
 L 96.0759,30.7287 L 96.4401,31.2393 L 96.9025,31.663 L 97.4429,31.9813 L 98.0377,32.1803 L 98.6608,32.2513
 z
M 98.2541,31.204 L 97.8576,31.0713 L 97.4973,30.8591 L 97.1891,30.5767 L 96.9463,30.2363 L 96.7796,29.8528
 L 96.6962,29.4431 L 96.6998,29.025 L 96.7903,28.6168 L 96.9637,28.2363 L 97.2124,27.9002 L 97.5256,27.6232
 L 97.8895,27.4173 L 98.2883,27.2916 L 98.7045,27.2515 L 99.1199,27.2988 L 99.5164,27.4315 L 99.8766,27.6437
 L 100.185,27.9262 L 100.428,28.2666 L 100.594,28.65 L 100.678,29.0597 L 100.674,29.4778 L 100.584,29.886
 L 100.41,30.2665 L 100.162,30.6026 L 99.8484,30.8796 L 99.4845,31.0855 L 99.0857,31.2113 L 98.6695,31.2513
 z
M 65.9243,24.2305 L 83.542,22.0674 L 85.5833,38.6925 L 67.9656,40.8557 z
M 76.4286,34.3846 L 77.0216,34.1804 L 77.5592,33.8574 L 78.0179,33.4297 L 78.3776,32.9159 L 78.6227,32.3386
 L 78.7424,31.723 L 78.7314,31.0959 L 78.5903,30.4848 L 78.3253,29.9164 L 77.9478,29.4155 L 77.4745,29.0041
 L 76.926,28.7 L 76.3262,28.5166 L 75.7014,28.462 L 75.0789,28.5384 L 74.4859,28.7426 L 73.9483,29.0656
 L 73.4897,29.4933 L 73.1299,30.0071 L 72.8849,30.5844 L 72.7652,31.2 L 72.7762,31.8271 L 72.9173,32.4382
 L 73.1823,33.0066 L 73.5597,33.5075 L 74.0331,33.919 L 74.5816,34.223 L 75.1814,34.4064 L 75.8062,34.461
 z
M 75.3722,33.4248 L 74.9723,33.3025 L 74.6066,33.0998 L 74.2911,32.8255 L 74.0395,32.4916 L 73.8627,32.1126
 L 73.7687,31.7052 L 73.7614,31.2872 L 73.8412,30.8768 L 74.0045,30.4919 L 74.2444,30.1494 L 74.5502,29.8642
 L 74.9086,29.6489 L 75.3039,29.5128 L 75.7189,29.4618 L 76.1354,29.4983 L 76.5352,29.6205 L 76.9009,29.8232
 L 77.2165,30.0975 L 77.4681,30.4314 L 77.6448,30.8104 L 77.7389,31.2178 L 77.7462,31.6358 L 77.6664,32.0462
 L 77.503,32.4311 L 77.2632,32.7736 L 76.9574,33.0588 L 76.599,33.2741 L 76.2037,33.4102 L 75.7887,33.4612
 z
M -85.5833,38.6925 L -83.542,22.0674 L -65.9243,24.2305 L -67.9656,40.8557 z
M -75.1814,34.4064 L -74.5816,34.223 L -74.0331,33.919 L -73.5597,33.5075 L -73.1823,33.0066 L -72.9173,32.4382
 L -72.7762,31.8271 L -72.7652,31.2 L -72.8849,30.5844 L -73.1299,30.0071 L -73.4897,29.4933 L -73.9483,29.0656
 L -74.4859,28.7426 L -75.0789,28.5384 L -75.7014,28.462 L -76.3262,28.5166 L -76.926,28.7 L -77.4745,29.0041
 L -77.9478,29.4155 L -78.3253,29.9164 L -78.5903,30.4848 L -78.7314,31.0959 L -78.7424,31.723 L -78.6227,32.3386
 L -78.3776,32.9159 L -78.0179,33.4297 L -77.5592,33.8574 L -77.0216,34.1804 L -76.4286,34.3846 L -75.8062,34.461
 z
M -76.2037,33.4102 L -76.599,33.2741 L -76.9574,33.0588 L -77.2632,32.7736 L -77.503,32.4311 L -77.6664,32.0462
 L -77.7462,31.6358 L -77.7389,31.2178 L -77.6448,30.8104 L -77.4681,30.4314 L -77.2165,30.0975 L -76.9009,29.8232
 L -76.5352,29.6205 L -76.1354,29.4983 L -75.7189,29.4618 L -75.3039,29.5128 L -74.9086,29.6489 L -74.5502,29.8642
 L -74.2444,30.1494 L -74.0045,30.4919 L -73.8412,30.8768 L -73.7614,31.2872 L -73.7687,31.7052 L -73.8627,32.1126
 L -74.0395,32.4916 L -74.2911,32.8255 L -74.6066,33.0998 L -74.9723,33.3025 L -75.3722,33.4248 L -75.7887,33.4612
 z
M 46.6394,26.4748 L 64.2839,24.5424 L 66.1074,41.1929 L 48.4629,43.1252 z
M 57.01,36.7655 L 57.6056,36.5691 L 58.1474,36.2532 L 58.6116,35.8315 L 58.978,35.3225 L 59.2306,34.7484
 L 59.3583,34.1344 L 59.3556,33.5072 L 59.2225,32.8943 L 58.9649,32.3225 L 58.5941,31.8167 L 58.1262,31.3991
 L 57.5817,31.0879 L 56.9843,30.8967 L 56.3603,30.8339 L 55.7369,30.9022 L 55.1413,31.0986 L 54.5995,31.4145
 L 54.1353,31.8362 L 53.7688,32.3452 L 53.5163,32.9193 L 53.3885,33.5333 L 53.3913,34.1604 L 53.5243,34.7733
 L 53.7819,35.3451 L 54.1528,35.8509 L 54.6207,36.2686 L 55.1652,36.5798 L 55.7625,36.771 L 56.3865,36.8338
 z
M 55.9661,35.7919 L 55.5679,35.6645 L 55.2049,35.457 L 54.893,35.1786 L 54.6458,34.8414 L 54.474,34.4602
 L 54.3853,34.0516 L 54.3835,33.6335 L 54.4686,33.2241 L 54.637,32.8414 L 54.8813,32.5021 L 55.1908,32.2209
 L 55.552,32.0103 L 55.9491,31.8794 L 56.3647,31.8338 L 56.7807,31.8757 L 57.1789,32.0032 L 57.5419,32.2107
 L 57.8539,32.4891 L 58.1011,32.8263 L 58.2728,33.2075 L 58.3615,33.6161 L 58.3634,34.0342 L 58.2782,34.4436
 L 58.1098,34.8263 L 57.8655,35.1656 L 57.556,35.4467 L 57.1949,35.6574 L 56.7978,35.7883 L 56.3822,35.8338
 z
M -66.1074,41.1929 L -64.2839,24.5424 L -46.6394,26.4748 L -48.4629,43.1252 z
M -55.7625,36.771 L -55.1652,36.5798 L -54.6207,36.2686 L -54.1528,35.8509 L -53.7819,35.3451 L -53.5243,34.7733
 L -53.3913,34.1604 L -53.3885,33.5333 L -53.5163,32.9193 L -53.7688,32.3452 L -54.1353,31.8362 L -54.5995,31.4145
 L -55.1413,31.0986 L -55.7369,30.9022 L -56.3603,30.8339 L -56.9843,30.8967 L -57.5817,31.0879 L -58.1262,31.3991
 L -58.5941,31.8167 L -58.9649,32.3225 L -59.2225,32.8943 L -59.3556,33.5072 L -59.3583,34.1344 L -59.2306,34.7484
 L -58.978,35.3225 L -58.6116,35.8315 L -58.1474,36.2532 L -57.6056,36.5691 L -57.01,36.7655 L -56.3865,36.8338
 z
M -56.7978,35.7883 L -57.1949,35.6574 L -57.556,35.4467 L -57.8655,35.1656 L -58.1098,34.8263 L -58.2782,34.4436
 L -58.3634,34.0342 L -58.3615,33.6161 L -58.2728,33.2075 L -58.1011,32.8263 L -57.8539,32.4891 L -57.5419,32.2107
 L -57.1789,32.0032 L -56.7807,31.8757 L -56.3647,31.8338 L -55.9491,31.8794 L -55.552,32.0103 L -55.1908,32.2209
 L -54.8813,32.5021 L -54.637,32.8414 L -54.4686,33.2241 L -54.3835,33.6335 L -54.3853,34.0516 L -54.474,34.4602
 L -54.6458,34.8414 L -54.893,35.1786 L -55.2049,35.457 L -55.5679,35.6645 L -55.9661,35.7919 L -56.3822,35.8338
 z
M -42.4194,44.4437 L -40.7413,27.778 L -23.0806,29.5563 L -24.7587,46.222 z
M -32.1135,39.9317 L -31.5178,39.7353 L -30.9761,39.4193 L -30.5118,38.9976 L -30.1454,38.4886 L -29.8928,37.9146
 L -29.7651,37.3006 L -29.7678,36.6734 L -29.9009,36.0605 L -30.1585,35.4887 L -30.5293,34.9829 L -30.9972,34.5653
 L -31.5418,34.2541 L -32.1391,34.0629 L -32.7631,34 L -33.3865,34.0683 L -33.9821,34.2647 L -34.5239,34.5807
 L -34.9882,35.0023 L -35.3546,35.5114 L -35.6072,36.0854 L -35.7349,36.6994 L -35.7321,37.3266 L -35.5991,37.9395
 L -35.3415,38.5113 L -34.9706,39.0171 L -34.5027,39.4347 L -33.9582,39.7459 L -33.3609,39.9371 L -32.7369,40
 z
M -33.1573,38.9581 L -33.5555,38.8306 L -33.9185,38.6231 L -34.2304,38.3447 L -34.4777,38.0075 L -34.6494,37.6263
 L -34.7381,37.2177 L -34.7399,36.7996 L -34.6548,36.3903 L -34.4864,36.0076 L -34.2421,35.6682 L -33.9326,35.3871
 L -33.5714,35.1765 L -33.1743,35.0455 L -32.7587,35 L -32.3427,35.0419 L -31.9445,35.1694 L -31.5815,35.3768
 L -31.2696,35.6553 L -31.0223,35.9924 L -30.8506,36.3737 L -30.7619,36.7823 L -30.7601,37.2004 L -30.8452,37.6097
 L -31.0136,37.9924 L -31.2579,38.3318 L -31.5674,38.6129 L -31.9286,38.8235 L -32.3256,38.9545 L -32.7413,39
 z
M 23.0806,29.5563 L 40.7413,27.778 L 42.4194,44.4437 L 24.7587,46.222 z
M 33.3609,39.9371 L 33.9582,39.7459 L 34.5027,39.4347 L 34.9706,39.0171 L 35.3415,38.5113 L 35.5991,37.9395
 L 35.7321,37.3266 L 35.7349,36.6994 L 35.6072,36.0854 L 35.3546,35.5114 L 34.9882,35.0023 L 34.5239,34.5807
 L 33.9821,34.2647 L 33.3865,34.0683 L 32.7631,34 L 32.1391,34.0629 L 31.5418,34.2541 L 30.9972,34.5653
 L 30.5293,34.9829 L 30.1585,35.4887 L 29.9009,36.0605 L 29.7678,36.6734 L 29.7651,37.3006 L 29.8928,37.9146
 L 30.1454,38.4886 L 30.5118,38.9976 L 30.9761,39.4193 L 31.5178,39.7353 L 32.1135,39.9317 L 32.7369,40
 z
M 32.3256,38.9545 L 31.9286,38.8235 L 31.5674,38.6129 L 31.2579,38.3318 L 31.0136,37.9924 L 30.8452,37.6097
 L 30.7601,37.2004 L 30.7619,36.7823 L 30.8506,36.3737 L 31.0223,35.9924 L 31.2696,35.6553 L 31.5815,35.3768
 L 31.9445,35.1694 L 32.3427,35.0419 L 32.7587,35 L 33.1743,35.0455 L 33.5714,35.1765 L 33.9326,35.3871
 L 34.2421,35.6682 L 34.4864,36.0076 L 34.6548,36.3903 L 34.7399,36.7996 L 34.7381,37.2177 L 34.6494,37.6263
 L 34.4777,38.0075 L 34.2304,38.3447 L 33.9185,38.6231 L 33.5555,38.8306 L 33.1573,38.9581 L 32.7413,39
 z
M 6.125,51.875 L 6.125,34.125 L 22.875,34.125 L 22.875,51.875 z
M 15.1237,45.9344 L 15.7202,45.7406 L 16.2634,45.427 L 16.7294,45.0074 L 17.0981,44.5 L 17.3532,43.927
 L 17.4836,43.3136 L 17.4836,42.6864 L 17.3532,42.073 L 17.0981,41.5 L 16.7294,40.9926 L 16.2634,40.573
 L 15.7202,40.2594 L 15.1237,40.0656 L 14.5,40 L 13.8763,40.0656 L 13.2798,40.2594 L 12.7366,40.573
 L 12.2706,40.9926 L 11.9019,41.5 L 11.6468,42.073 L 11.5164,42.6864 L 11.5164,43.3136 L 11.6468,43.927
 L 11.9019,44.5 L 12.2706,45.0074 L 12.7366,45.427 L 13.2798,45.7406 L 13.8763,45.9344 L 14.5,46
 z
M 14.0842,44.9563 L 13.6865,44.8271 L 13.3244,44.618 L 13.0137,44.3383 L 12.7679,44 L 12.5979,43.618
 L 12.511,43.209 L 12.511,42.7909 L 12.5979,42.382 L 12.7679,42 L 13.0137,41.6617 L 13.3244,41.382
 L 13.6865,41.1729 L 14.0842,41.0437 L 14.5,41 L 14.9158,41.0437 L 15.3135,41.1729 L 15.6756,41.382
 L 15.9863,41.6617 L 16.232,42 L 16.4021,42.382 L 16.489,42.7909 L 16.489,43.209 L 16.4021,43.618
 L 16.232,44 L 15.9863,44.3383 L 15.6756,44.618 L 15.3135,44.8271 L 14.9158,44.9563 L 14.5,45
 z
M -22.875,51.875 L -22.875,34.125 L -6.125,34.125 L -6.125,51.875 z
M -13.8763,45.9344 L -13.2798,45.7406 L -12.7366,45.427 L -12.2706,45.0074 L -11.9019,44.5 L -11.6468,43.927
 L -11.5164,43.3136 L -11.5164,42.6864 L -11.6468,42.073 L -11.9019,41.5 L -12.2706,40.9926 L -12.7366,40.573
 L -13.2798,40.2594 L -13.8763,40.0656 L -14.5,40 L -15.1237,40.0656 L -15.7202,40.2594 L -16.2634,40.573
 L -16.7294,40.9926 L -17.0981,41.5 L -17.3532,42.073 L -17.4836,42.6864 L -17.4836,43.3136 L -17.3532,43.927
 L -17.0981,44.5 L -16.7294,45.0074 L -16.2634,45.427 L -15.7202,45.7406 L -15.1237,45.9344 L -14.5,46
 z
M -14.9158,44.9563 L -15.3135,44.8271 L -15.6756,44.618 L -15.9863,44.3383 L -16.232,44 L -16.4021,43.618
 L -16.489,43.209 L -16.489,42.7909 L -16.4021,42.382 L -16.232,42 L -15.9863,41.6617 L -15.6756,41.382
 L -15.3135,41.1729 L -14.9158,41.0437 L -14.5,41 L -14.0842,41.0437 L -13.6865,41.1729 L -13.3244,41.382
 L -13.0137,41.6617 L -12.7679,42 L -12.5979,42.382 L -12.511,42.7909 L -12.511,43.209 L -12.5979,43.618
 L -12.7679,44 L -13.0137,44.3383 L -13.3244,44.618 L -13.6865,44.8271 L -14.0842,44.9563 L -14.5,45
 z
" stroke="black" fill="lightgray" stroke-width="0.5"/>
</svg>
